<?xml version="1.0" encoding="utf-8"?>
<!-- Generator: Adobe Illustrator 15.1.0, SVG Export Plug-In . SVG Version: 6.00 Build 0)  -->
<!DOCTYPE svg PUBLIC "-//W3C//DTD SVG 1.1//EN" "http://www.w3.org/Graphics/SVG/1.1/DTD/svg11.dtd">
<svg version="1.1" id="Layer_1" xmlns="http://www.w3.org/2000/svg" xmlns:xlink="http://www.w3.org/1999/xlink" x="0px" y="0px"
	 width="368.598px" height="87.832px" viewBox="0 0 368.598 87.832" enable-background="new 0 0 368.598 87.832"
	 xml:space="preserve">
<g>
	<path fill="#7C878E" d="M57.479,1.152v50.839c0,12.662-7.562,20.222-20.227,20.222c-12.748,0-20.357-7.56-20.357-20.222V1.152H0
		v48.913c0,22.59,14.971,37.768,37.252,37.768c22.279,0,37.248-15.178,37.248-37.768V1.152H57.479z"/>
	<path fill="#7C878E" d="M133.057,0c-22.282,0-37.251,15.175-37.251,37.761v49.316h17.026V35.841
		c0-12.666,7.561-20.227,20.226-20.227c12.746,0,20.356,7.562,20.356,20.227v51.236h16.897V37.761
		C170.31,15.175,155.339,0,133.057,0z"/>
	<rect x="195.615" y="1.152" fill="#7C878E" width="16.896" height="85.925"/>
	<polygon fill="#7C878E" points="235.08,1.152 235.08,17.15 260.387,17.15 260.387,87.077 277.28,87.077 277.28,17.15 
		302.588,17.15 302.588,1.152 	"/>
</g>
<g>
	<path fill="#AFC836" d="M368.598,1.152h-18.281l-41.073,57.527c-1.195,1.712-1.651,3.787-1.286,5.844
		c0.366,2.057,1.511,3.847,3.223,5.04c1.316,0.921,2.863,1.408,4.476,1.408c0.002,0,0.002,0,0.002,0l31.354-0.015v16.121h15.638
		l0.049-29.564h-33.573L368.598,1.152z"/>
</g>
</svg>
