<?xml version="1.0" encoding="utf-8"?>
<!-- Generator: Adobe Illustrator 19.1.1, SVG Export Plug-In . SVG Version: 6.00 Build 0)  -->
<svg version="1.1" id="Layer_1" xmlns="http://www.w3.org/2000/svg" xmlns:xlink="http://www.w3.org/1999/xlink" x="0px" y="0px"
	 viewBox="4.4 106.4 791.5 187" style="enable-background:new 4.4 106.4 791.5 187;" xml:space="preserve">
<style type="text/css">
	.st0{fill:#FFFFFF;}
	.st1{fill:#AFC836;}
</style>
<g>
	<path class="st0" d="M127.8,107.3v109.2c0,27.2-16.2,43.4-43.4,43.4c-27.4,0-43.7-16.2-43.7-43.4V107.3H4.4v105
		c0,48.5,32.1,81.1,80,81.1c47.8,0,80-32.6,80-81.1v-105L127.8,107.3L127.8,107.3z"/>
	<path class="st0" d="M290.1,106.4c-47.8,0-80,32.6-80,81.1v105.9h36.6v-110c0-27.2,16.2-43.4,43.4-43.4c27.4,0,43.7,16.2,43.7,43.4
		v110h36.3V187.5C370.1,139,338,106.4,290.1,106.4z"/>
	<rect x="424.5" y="108.9" class="st0" width="36.3" height="184.5"/>
	<polygon class="st0" points="509.2,108.9 509.2,143.3 563.6,143.3 563.6,293.4 599.8,293.4 599.8,143.3 654.2,143.3 654.2,108.9 	
		"/>
</g>
<g>
	<path class="st1" d="M795.9,108.9h-39.3l-88.2,123.5c-2.6,3.7-3.5,8.1-2.8,12.6c0.8,4.4,3.2,8.3,6.9,10.8c2.8,2,6.1,3,9.6,3l0,0
		h67.3v34.6h33.7v-63.5H711L795.9,108.9z"/>
</g>
</svg>
