<svg id="Layer_1" data-name="Layer 1" xmlns="http://www.w3.org/2000/svg" viewBox="0 0 24 24"><title>Icon Sprite</title><path d="M14.17,12l7.77-7.69a0.8,0.8,0,0,0,0-1.25l-1-1a1.09,1.09,0,0,0-.63-0.3,1.09,1.09,0,0,0-.63.3L12,9.63,4.22,2A0.82,0.82,0,0,0,3,2l-1,1a0.88,0.88,0,0,0-.19.63,1.07,1.07,0,0,0,.3.63L9.83,12,2.05,19.69a1.07,1.07,0,0,0-.3.63,0.82,0.82,0,0,0,.3.63l1,1a1.09,1.09,0,0,0,.63.3A1.09,1.09,0,0,0,4.33,22L12,14.37,19.67,22a1.09,1.09,0,0,0,.63.3,1.09,1.09,0,0,0,.63-0.3l1-1a1.07,1.07,0,0,0,.3-0.63,1.07,1.07,0,0,0-.3-0.63Z"/></svg>