<svg id="Layer_1" data-name="Layer 1" xmlns="http://www.w3.org/2000/svg" viewBox="0 0 24 24"><title>Icon Sprite</title><path d="M24,10.29a6.65,6.65,0,0,1-1.6,4.29A10.81,10.81,0,0,1,18,17.69a15.5,15.5,0,0,1-6,1.14,18.22,18.22,0,0,1-1.93-.11,14.58,14.58,0,0,1-6.13,3.23,10.06,10.06,0,0,1-1.52.29A0.52,0.52,0,0,1,2,22.12a0.67,0.67,0,0,1-.23-0.39h0a0.17,0.17,0,0,1,0-.16,0.36,0.36,0,0,0,0-.13,0.25,0.25,0,0,1,.06-0.13l0.08-.12L2,21.07l0.11-.12,0.41-.46L3,20q0.14-.15.41-0.53a5.22,5.22,0,0,0,.43-0.68Q4,18.47,4.21,18a8.21,8.21,0,0,0,.35-1A9.79,9.79,0,0,1,1.26,14,6.47,6.47,0,0,1,.05,10.29,6.36,6.36,0,0,1,1,7,9.09,9.09,0,0,1,3.54,4.25,13,13,0,0,1,7.36,2.43,15.82,15.82,0,0,1,12,1.75a15.5,15.5,0,0,1,6,1.14A10.8,10.8,0,0,1,22.35,6a6.66,6.66,0,0,1,1.6,4.29h0Z"/></svg>