<svg id="Layer_1" data-name="Layer 1" xmlns="http://www.w3.org/2000/svg" viewBox="0 0 24 24"><title>Icon Sprite</title><path d="M15.83,19.19v-2.4a0.46,0.46,0,0,0-.48-0.48H13.92V8.64a0.46,0.46,0,0,0-.48-0.48H8.64a0.46,0.46,0,0,0-.48.48V11a0.46,0.46,0,0,0,.48.48h1.44v4.79H8.64a0.46,0.46,0,0,0-.48.48v2.4a0.46,0.46,0,0,0,.48.48h6.71A0.46,0.46,0,0,0,15.83,19.19ZM13.92,5.77V3.37a0.46,0.46,0,0,0-.48-0.48H10.56a0.46,0.46,0,0,0-.48.48v2.4a0.46,0.46,0,0,0,.48.48h2.88A0.46,0.46,0,0,0,13.92,5.77ZM23.5,12A11.25,11.25,0,0,1,22,17.77,11.44,11.44,0,0,1,17.77,22,11.25,11.25,0,0,1,12,23.5,11.25,11.25,0,0,1,6.23,22,11.44,11.44,0,0,1,2,17.77,11.25,11.25,0,0,1,.5,12,11.25,11.25,0,0,1,2,6.23,11.44,11.44,0,0,1,6.23,2,11.25,11.25,0,0,1,12,.5,11.25,11.25,0,0,1,17.77,2,11.44,11.44,0,0,1,22,6.23,11.25,11.25,0,0,1,23.5,12Z"/></svg>