<svg id="Layer_1" data-name="Layer 1" xmlns="http://www.w3.org/2000/svg" viewBox="0 0 24 24"><title>Icon Sprite</title><path d="M22.8,18.3v1.8a0.91,0.91,0,0,1-.9.9H2.1a0.87,0.87,0,0,1-.63-0.27A0.86,0.86,0,0,1,1.2,20.1V18.3a0.87,0.87,0,0,1,.27-0.63A0.86,0.86,0,0,1,2.1,17.4H21.9A0.91,0.91,0,0,1,22.8,18.3Zm0-7.2v1.8a0.91,0.91,0,0,1-.9.9H2.1a0.87,0.87,0,0,1-.63-0.27A0.86,0.86,0,0,1,1.2,12.9V11.1a0.87,0.87,0,0,1,.27-0.63A0.86,0.86,0,0,1,2.1,10.2H21.9A0.91,0.91,0,0,1,22.8,11.1Zm0-7.2V5.7a0.91,0.91,0,0,1-.9.9H2.1a0.87,0.87,0,0,1-.63-0.27A0.86,0.86,0,0,1,1.2,5.7V3.9a0.87,0.87,0,0,1,.27-0.63A0.86,0.86,0,0,1,2.1,3H21.9A0.91,0.91,0,0,1,22.8,3.9Z"/></svg>