<svg id="Layer_1" data-name="Layer 1" xmlns="http://www.w3.org/2000/svg" viewBox="0 0 24 24"><title>Icon Sprite</title><path d="M23.58,0.2a0.83,0.83,0,0,1,.36.85L20.52,21.54a0.84,0.84,0,0,1-.43.6,0.82,0.82,0,0,1-.41.11,0.9,0.9,0,0,1-.32-0.07l-6-2.47-3.23,3.93a0.78,0.78,0,0,1-.65.31,0.73,0.73,0,0,1-.29-0.05,0.84,0.84,0,0,1-.41-0.31,0.83,0.83,0,0,1-.15-0.49V18.44L20.11,4.32,5.85,16.65,0.59,14.49a0.78,0.78,0,0,1-.53-0.73A0.79,0.79,0,0,1,.48,13L22.67,0.17A0.81,0.81,0,0,1,23.1.05,0.83,0.83,0,0,1,23.58.2Z"/></svg>