<svg id="Layer_1" data-name="Layer 1" xmlns="http://www.w3.org/2000/svg" viewBox="0 0 24 24"><title>Icon Sprite</title><path d="M6.27,21.14l1.32-1.32L4.18,16.41,2.86,17.73v1.55H4.72v1.86H6.27ZM13.87,7.67a0.28,0.28,0,0,0-.32-0.32,0.34,0.34,0,0,0-.25.1L5.43,15.32a0.34,0.34,0,0,0-.1.25,0.28,0.28,0,0,0,.32.32,0.34,0.34,0,0,0,.25-0.1l7.87-7.87A0.34,0.34,0,0,0,13.87,7.67ZM13.08,4.88l6,6L7,23H1V17ZM23,6.27a1.78,1.78,0,0,1-.54,1.31L20.05,10l-6-6,2.41-2.4A1.73,1.73,0,0,1,17.73,1,1.8,1.8,0,0,1,19,1.55L22.46,5A1.86,1.86,0,0,1,23,6.27h0Z"/></svg>