<svg id="Layer_1" data-name="Layer 1" xmlns="http://www.w3.org/2000/svg" viewBox="0 0 24 24"><title>Icon Sprite</title><path d="M23.49,11.42a1.15,1.15,0,0,0-.27-0.72,1.15,1.15,0,0,0-.72-0.27l-8.84,0L13.54,1.46A0.93,0.93,0,0,0,13.27.74,0.94,0.94,0,0,0,12.55.47H11.33a1,1,0,0,0-.66.33,1.13,1.13,0,0,0-.26.73l0.05,9-9-.05h0a1.13,1.13,0,0,0-.72.27,0.94,0.94,0,0,0-.27.73v1.21a1.15,1.15,0,0,0,.27.72,1.13,1.13,0,0,0,.73.27l8.84,0.05,0,8.84a1.15,1.15,0,0,0,.27.72,1.15,1.15,0,0,0,.72.27H12.6a1.13,1.13,0,0,0,.72-0.26,1.12,1.12,0,0,0,.27-0.73l-0.05-9,9,0.05a0.92,0.92,0,0,0,1-1V11.42Z"/></svg>