<svg id="Layer_1" data-name="Layer 1" xmlns="http://www.w3.org/2000/svg" viewBox="0 0 24 24"><title>Icon Sprite</title><path d="M16.58,10.17A6.17,6.17,0,0,0,14.7,5.64a6.17,6.17,0,0,0-4.53-1.88A6.17,6.17,0,0,0,5.64,5.64a6.17,6.17,0,0,0-1.88,4.53A6.17,6.17,0,0,0,5.64,14.7a6.17,6.17,0,0,0,4.53,1.88A6.17,6.17,0,0,0,14.7,14.7,6.17,6.17,0,0,0,16.58,10.17Zm7.32,11.9a1.86,1.86,0,0,1-1.83,1.83,1.7,1.7,0,0,1-1.29-.54l-4.91-4.89a9.79,9.79,0,0,1-5.71,1.77,9.89,9.89,0,0,1-3.91-.79A9.86,9.86,0,0,1,.89,14.08a10,10,0,0,1,0-7.82A9.86,9.86,0,0,1,6.26.89a10,10,0,0,1,7.82,0,9.86,9.86,0,0,1,5.36,5.36,9.89,9.89,0,0,1,.79,3.91,9.79,9.79,0,0,1-1.77,5.71l4.91,4.91a1.75,1.75,0,0,1,.53,1.29h0Z"/></svg>