<svg id="Layer_1" data-name="Layer 1" xmlns="http://www.w3.org/2000/svg" viewBox="0 0 24 24"><title>Icon Sprite</title><path d="M22.91,19.62a3.66,3.66,0,0,1-1.13,2.84,4.27,4.27,0,0,1-3,1H5.23a4.26,4.26,0,0,1-3-1,3.67,3.67,0,0,1-1.13-2.84q0-.79.05-1.55a14.88,14.88,0,0,1,.22-1.63,12.32,12.32,0,0,1,.41-1.63,7.55,7.55,0,0,1,.67-1.46,5.31,5.31,0,0,1,1-1.21,4,4,0,0,1,1.33-.8A4.82,4.82,0,0,1,6.45,11a1.92,1.92,0,0,1,.65.32l1.15,0.72a7.45,7.45,0,0,0,1.67.72,6.81,6.81,0,0,0,4.14,0,7.45,7.45,0,0,0,1.67-.72l1.15-.72A1.92,1.92,0,0,1,17.55,11a4.8,4.8,0,0,1,1.73.3,4.06,4.06,0,0,1,1.33.8,5.28,5.28,0,0,1,1,1.21,7.58,7.58,0,0,1,.67,1.46,12.27,12.27,0,0,1,.41,1.63,14.92,14.92,0,0,1,.22,1.63q0.05,0.76.05,1.55h0ZM18,6.25a5.45,5.45,0,0,1-1.74,4.07A5.83,5.83,0,0,1,12,12a5.83,5.83,0,0,1-4.21-1.68A5.45,5.45,0,0,1,6.05,6.25,5.45,5.45,0,0,1,7.79,2.18,5.83,5.83,0,0,1,12,.5a5.83,5.83,0,0,1,4.21,1.68A5.45,5.45,0,0,1,18,6.25Z"/></svg>