<svg xmlns="http://www.w3.org/2000/svg" width="34" height="32" viewBox="0 0 34 32"><path d="M11.429 25.143q0-.946-.67-1.616t-1.616-.67-1.616.67-.67 1.616.67 1.616 1.616.67 1.616-.67.67-1.616zM4.571 16h6.857v-4.571H8.607q-.25.036-.393.161l-3.482 3.482q-.125.214-.161.393v.536zm22.858 9.143q0-.946-.67-1.616t-1.616-.67-1.616.67-.67 1.616.67 1.616 1.616.67 1.616-.67.67-1.616zm2.285-12V9.714q0-.25-.161-.411t-.411-.161h-4v-4q0-.25-.161-.411t-.411-.161h-3.429q-.25 0-.411.161t-.161.411v4h-4q-.25 0-.411.161t-.161.411v3.429q0 .25.161.411t.411.161h4v4q0 .25.161.411t.411.161h3.429q.25 0 .411-.161t.161-.411v-4h4q.25 0 .411-.161t.161-.411zm4.572-9.714V24q0 .464-.339.804t-.804.339h-3.429q0 1.893-1.339 3.232t-3.232 1.339-3.232-1.339-1.339-3.232h-6.857q0 1.893-1.339 3.232t-3.232 1.339-3.232-1.339-1.339-3.232H2.287q-.464 0-.804-.339T1.144 24t.339-.804.804-.339v-7.429q0-.464.232-1.036t.571-.911l3.536-3.536q.339-.339.911-.571t1.036-.232h2.857V3.428q0-.464.339-.804t.804-.339h20.571q.464 0 .804.339t.339.804z"/></svg>