<svg xmlns="http://www.w3.org/2000/svg" width="32" height="32" viewBox="0 0 32 32"><path d="M17.143 4.571q0-.464-.339-.804T16 3.428t-.804.339-.339.804.339.804.804.339.804-.339.339-.804zM32 21.143v6.286q0 .393-.357.536-.143.036-.214.036-.232 0-.411-.161l-1.661-1.661q-2.125 2.554-5.688 4.045t-7.67 1.491-7.67-1.491-5.688-4.045L.98 27.84q-.161.161-.411.161-.071 0-.214-.036-.357-.143-.357-.536v-6.286q0-.25.161-.411t.411-.161h6.286q.393 0 .536.357.143.339-.125.625l-1.786 1.786q1.196 1.625 3.384 2.741t4.848 1.473V15.999h-3.429q-.464 0-.804-.339t-.339-.804V12.57q0-.464.339-.804t.804-.339h3.429V8.516q-1.036-.607-1.661-1.652t-.625-2.295q0-1.893 1.339-3.232t3.232-1.339 3.232 1.339 1.339 3.232q0 1.25-.625 2.295t-1.661 1.652v2.911h3.429q.464 0 .804.339t.339.804v2.286q0 .464-.339.804t-.804.339h-3.429v11.554q2.661-.357 4.848-1.473t3.384-2.741l-1.786-1.786q-.268-.286-.125-.625.143-.357.536-.357h6.286q.25 0 .411.161t.161.411z"/></svg>