<svg xmlns="http://www.w3.org/2000/svg" width="25" height="32" viewBox="0 0 25 32"><path d="M8.804 8.625q.286 0 .491-.205t.205-.491-.205-.491-.491-.205-.482.205-.196.491.196.491.482.205zm7.535 0q.286 0 .482-.205t.196-.491-.196-.491-.482-.205-.491.205-.205.491.205.491.491.205zm-14.5 3.286q.75 0 1.286.536t.536 1.286v7.679q0 .768-.527 1.304t-1.295.536-1.304-.536-.536-1.304v-7.679q0-.75.536-1.286t1.304-.536zm18.929.339v11.893q0 .821-.571 1.393t-1.375.571h-1.339v4.054q0 .768-.536 1.304t-1.304.536-1.304-.536-.536-1.304v-4.054h-2.464v4.054q0 .768-.536 1.304t-1.304.536q-.75 0-1.286-.536t-.536-1.304l-.018-4.054H6.338q-.821 0-1.393-.571t-.571-1.393V12.25h16.393zm-4.143-7.232q1.911.982 3.054 2.741t1.143 3.848H4.304q0-2.089 1.143-3.848t3.071-2.741L7.25 2.679q-.125-.232.089-.357.232-.107.357.107l1.286 2.357q1.696-.75 3.589-.75t3.589.75l1.286-2.357q.125-.214.357-.107.214.125.089.357zm8.518 8.714v7.679q0 .768-.536 1.304t-1.304.536q-.75 0-1.286-.536t-.536-1.304v-7.679q0-.768.536-1.295t1.286-.527q.768 0 1.304.527t.536 1.295z"/></svg>