<svg xmlns="http://www.w3.org/2000/svg" width="25" height="32" viewBox="0 0 25 32"><path d="M24.875 21.696q-.696 2.232-2.196 4.464-2.304 3.5-4.589 3.5-.875 0-2.5-.571-1.536-.571-2.696-.571-1.089 0-2.536.589-1.446.607-2.357.607-2.714 0-5.375-4.625Q.001 20.428.001 16.107q0-4.071 2.018-6.679 2-2.571 5.071-2.571 1.286 0 3.161.536 1.857.536 2.464.536.804 0 2.554-.607 1.821-.607 3.089-.607 2.125 0 3.804 1.161.929.643 1.857 1.786-1.411 1.196-2.036 2.107-1.161 1.679-1.161 3.696 0 2.214 1.232 3.982t2.821 2.25zM18.161.75q0 1.089-.518 2.429-.536 1.339-1.661 2.464-.964.964-1.929 1.286-.661.196-1.857.304.054-2.661 1.393-4.589Q14.91.733 18.053.001q.018.054.045.196t.045.196q0 .071.009.179t.009.179z"/></svg>