<svg xmlns="http://www.w3.org/2000/svg" width="32" height="32" viewBox="0 0 32 32"><path d="M19.429 14.857q0-.464-.339-.804t-.804-.339h-4.571q-.464 0-.804.339t-.339.804.339.804.804.339h4.571q.464 0 .804-.339t.339-.804zm10.285-3.428v17.143q0 .464-.339.804t-.804.339H3.428q-.464 0-.804-.339t-.339-.804V11.429q0-.464.339-.804t.804-.339h25.143q.464 0 .804.339t.339.804zm1.143-8V8q0 .464-.339.804t-.804.339H2.285q-.464 0-.804-.339T1.142 8V3.429q0-.464.339-.804t.804-.339h27.429q.464 0 .804.339t.339.804z"/></svg>