<svg xmlns="http://www.w3.org/2000/svg" width="32" height="32" viewBox="0 0 32 32"><path d="M22.929 15.982q0-.482-.321-.804l-8.089-8.089q-.321-.321-.804-.321t-.804.321l-8.089 8.089q-.321.321-.321.804t.321.804l1.625 1.625q.321.321.804.321t.804-.321l3.375-3.375V24q0 .464.339.804t.804.339h2.286q.464 0 .804-.339t.339-.804v-8.964l3.375 3.375q.339.339.804.339t.804-.339l1.625-1.625q.321-.321.321-.804zm4.5.018q0 3.732-1.839 6.884t-4.991 4.991-6.884 1.839-6.884-1.839-4.991-4.991T.001 16 1.84 9.116t4.991-4.991 6.884-1.839 6.884 1.839 4.991 4.991T27.429 16z"/></svg>