<svg xmlns="http://www.w3.org/2000/svg" width="32" height="32" viewBox="0 0 32 32"><path d="M32 16q0 .464-.339.804l-4.571 4.571q-.339.339-.804.339t-.804-.339-.339-.804v-2.286h-6.857v6.857h2.286q.464 0 .804.339t.339.804-.339.804l-4.571 4.571q-.339.339-.804.339t-.804-.339l-4.571-4.571q-.339-.339-.339-.804t.339-.804.804-.339h2.286v-6.857H6.859v2.286q0 .464-.339.804t-.804.339-.804-.339L.341 16.804Q.002 16.465.002 16t.339-.804l4.571-4.571q.339-.339.804-.339t.804.339.339.804v2.286h6.857V6.858H11.43q-.464 0-.804-.339t-.339-.804.339-.804L15.197.34q.339-.339.804-.339t.804.339l4.571 4.571q.339.339.339.804t-.339.804-.804.339h-2.286v6.857h6.857v-2.286q0-.464.339-.804t.804-.339.804.339l4.571 4.571Q32 15.535 32 16z"/></svg>