<svg xmlns="http://www.w3.org/2000/svg" width="32" height="32" viewBox="0 0 32 32"><path d="M20.571 14.286v3.429q0 .232-.17.402t-.402.17h-6.286v3.429q0 .25-.161.411t-.411.161q-.214 0-.429-.179l-5.696-5.696q-.161-.161-.161-.411t.161-.411l5.714-5.714q.161-.161.411-.161.232 0 .402.17t.17.402v3.429h6.286q.232 0 .402.17t.17.402zM23.429 16q0-2.643-1.304-4.875t-3.536-3.536-4.875-1.304-4.875 1.304-3.536 3.536T3.999 16t1.304 4.875 3.536 3.536 4.875 1.304 4.875-1.304 3.536-3.536T23.429 16zm4 0q0 3.732-1.839 6.884t-4.991 4.991-6.884 1.839-6.884-1.839-4.991-4.991T.001 16 1.84 9.116t4.991-4.991 6.884-1.839 6.884 1.839 4.991 4.991T27.429 16z"/></svg>