<svg xmlns="http://www.w3.org/2000/svg" width="32" height="32" viewBox="0 0 32 32"><path d="M20 16.571q0 .214-.179.429l-5.696 5.696q-.196.161-.411.161t-.411-.161l-5.714-5.714q-.268-.286-.125-.625Q7.607 16 8 16h3.429V9.714q0-.25.161-.411t.411-.161h3.429q.25 0 .411.161t.161.411V16h3.429q.25 0 .411.161t.161.411zM13.714 6.286q-2.643 0-4.875 1.304t-3.536 3.536-1.304 4.875 1.304 4.875 3.536 3.536 4.875 1.304 4.875-1.304 3.536-3.536 1.304-4.875-1.304-4.875-3.536-3.536-4.875-1.304zM27.429 16q0 3.732-1.839 6.884t-4.991 4.991-6.884 1.839-6.884-1.839-4.991-4.991T.001 16 1.84 9.116t4.991-4.991 6.884-1.839 6.884 1.839 4.991 4.991T27.429 16z"/></svg>