<svg xmlns="http://www.w3.org/2000/svg" width="32" height="32" viewBox="0 0 32 32"><path d="M22.929 16.018q0-.482-.321-.804l-1.625-1.625q-.321-.321-.804-.321t-.804.321L16 16.964V8q0-.464-.339-.804t-.804-.339h-2.286q-.464 0-.804.339T11.428 8v8.964l-3.375-3.375q-.339-.339-.804-.339t-.804.339L4.82 15.214q-.321.321-.321.804t.321.804l8.089 8.089q.321.321.804.321t.804-.321l8.089-8.089q.321-.321.321-.804zm4.5-.018q0 3.732-1.839 6.884t-4.991 4.991-6.884 1.839-6.884-1.839-4.991-4.991T.001 16 1.84 9.116t4.991-4.991 6.884-1.839 6.884 1.839 4.991 4.991T27.429 16z"/></svg>