<svg xmlns="http://www.w3.org/2000/svg" width="32" height="32" viewBox="0 0 32 32"><path d="M22.911 9.661L16.572 16l6.339 6.339 2.571-2.571q.518-.554 1.25-.25.696.304.696 1.054v8q0 .464-.339.804t-.804.339h-8q-.75 0-1.054-.714-.304-.696.25-1.232l2.571-2.571-6.339-6.339-6.339 6.339 2.571 2.571q.554.536.25 1.232-.304.714-1.054.714h-8q-.464 0-.804-.339t-.339-.804v-8q0-.75.714-1.054.696-.304 1.232.25l2.571 2.571L10.854 16 4.515 9.661l-2.571 2.571q-.339.339-.804.339-.214 0-.429-.089-.714-.304-.714-1.054v-8q0-.464.339-.804t.804-.339h8q.75 0 1.054.714.304.696-.25 1.232L7.373 6.802l6.339 6.339 6.339-6.339-2.571-2.571q-.554-.536-.25-1.232.304-.714 1.054-.714h8q.464 0 .804.339t.339.804v8q0 .75-.696 1.054-.232.089-.446.089-.464 0-.804-.339z"/></svg>