<svg xmlns="http://www.w3.org/2000/svg" width="30" height="32" viewBox="0 0 30 32"><path d="M26.464 18.75q.821.464 1.063 1.384t-.223 1.741l-1.143 1.964q-.464.821-1.384 1.063t-1.741-.223l-4.75-2.732v5.482q0 .929-.679 1.607T16 29.715h-2.286q-.929 0-1.607-.679t-.679-1.607v-5.482l-4.75 2.732q-.821.464-1.741.223t-1.384-1.063L2.41 21.875q-.464-.821-.223-1.741T3.25 18.75L8 16l-4.75-2.75q-.821-.464-1.063-1.384t.223-1.741l1.143-1.964q.464-.821 1.384-1.063t1.741.223l4.75 2.732V4.571q0-.929.679-1.607t1.607-.679H16q.929 0 1.607.679t.679 1.607v5.482l4.75-2.732q.821-.464 1.741-.223t1.384 1.063l1.143 1.964q.464.821.223 1.741t-1.063 1.384L21.714 16z"/></svg>