<svg xmlns="http://www.w3.org/2000/svg" width="32" height="32" viewBox="0 0 32 32"><path d="M17.357 13.839q0-1.929-.955-3.018t-2.634-1.089q-1.125 0-2.214.545T9.59 11.786t-1.42 2.446-.545 3.214q0 2 .955 3.089t2.688 1.089q1.714 0 3.143-1.188t2.188-2.964.759-3.634zM27.429 16q0 1.982-.661 3.518t-1.759 2.411-2.348 1.33-2.589.491q-.107 0-.277.009t-.295.009q-1.696 0-2.536-.946-.5-.589-.589-1.482-.929 1.179-2.348 1.964t-3.098.786q-2.875 0-4.455-1.705t-1.58-4.813q0-2.804 1.179-5.179t3.196-3.759 4.393-1.384q1.554 0 2.768.634t1.893 1.777l.036-.339.196-1q.018-.107.098-.214t.17-.107h2.107q.089 0 .232.196.089.089.054.286l-2.143 10.964q-.089.429-.089.857 0 .696.223.929t.795.232q.5-.018 1.018-.098t1.304-.429 1.375-.893 1.018-1.598.429-2.446q0-5.214-3.107-8.321t-8.321-3.107q-2.321 0-4.438.911T5.637 7.922t-2.438 3.643-.911 4.438.911 4.438 2.438 3.643 3.643 2.438 4.438.911q4.071 0 7.232-2.571.196-.161.429-.143t.375.214l.732.875q.143.214.125.429-.036.232-.214.393-1.821 1.482-4.063 2.286t-4.616.804q-2.786 0-5.321-1.089t-4.375-2.929-2.929-4.375-1.089-5.321 1.089-5.321T4.022 6.31t4.375-2.929 5.321-1.089q6.143 0 9.929 3.786t3.786 9.929z"/></svg>