<svg xmlns="http://www.w3.org/2000/svg" width="41" height="32" viewBox="0 0 41 32"><path d="M30.857 8L24 20.571h13.714zM8 8L1.143 20.571h13.714zm14.661-3.429q-.25.714-.813 1.277t-1.277.813v23.054h10.857q.25 0 .411.161t.161.411v1.143q0 .25-.161.411t-.411.161h-24q-.25 0-.411-.161t-.161-.411v-1.143q0-.25.161-.411t.411-.161h10.857V6.661q-.714-.25-1.277-.813t-.813-1.277H7.427q-.25 0-.411-.161t-.161-.411V2.856q0-.25.161-.411t.411-.161h8.768q.375-1.018 1.25-1.652t1.982-.634 1.982.634 1.25 1.652h8.768q.25 0 .411.161t.161.411v1.143q0 .25-.161.411t-.411.161h-8.768zm-3.232.286q.589 0 1.009-.42t.42-1.009-.42-1.009-1.009-.42-1.009.42T18 3.428t.42 1.009 1.009.42zm19.428 15.714q0 1.304-.83 2.339t-2.098 1.625-2.58.884-2.491.295-2.491-.295-2.58-.884-2.098-1.625-.83-2.339q0-.196.625-1.446t1.643-3.116 1.911-3.491 1.821-3.286 1-1.786q.321-.589 1-.589t1 .589l1 1.786q.929 1.661 1.821 3.286t1.911 3.491 1.643 3.116.625 1.446zm-22.857 0q0 1.304-.83 2.339t-2.098 1.625-2.58.884-2.491.295-2.491-.295-2.58-.884T.832 22.91t-.83-2.339q0-.196.625-1.446t1.643-3.116 1.911-3.491 1.821-3.286 1-1.786q.321-.589 1-.589t1 .589l1 1.786q.929 1.661 1.821 3.286t1.911 3.491 1.643 3.116.625 1.446z"/></svg>