<svg xmlns="http://www.w3.org/2000/svg" width="41" height="32" viewBox="0 0 41 32"><path d="M34.286 9.143v13.714H4.572V9.143h29.714zm2.285 10.286h2.286v-6.857h-2.286V7.429q0-.25-.161-.411t-.411-.161H2.856q-.25 0-.411.161t-.161.411v17.143q0 .25.161.411t.411.161h33.143q.25 0 .411-.161t.161-.411v-5.143zm4.572-6.858v6.857q0 .946-.67 1.616t-1.616.67v2.857q0 1.179-.839 2.018T36 27.428H2.857q-1.179 0-2.018-.839T0 24.571V7.428Q0 6.249.839 5.41t2.018-.839H36q1.179 0 2.018.839t.839 2.018v2.857q.946 0 1.616.67t.67 1.616z"/></svg>