<svg xmlns="http://www.w3.org/2000/svg" width="37" height="32" viewBox="0 0 37 32"><path d="M18.571 30.286q0-.286-.286-.286-1.054 0-1.813-.759t-.759-1.813q0-.286-.286-.286t-.286.286q0 1.304.92 2.223t2.223.92q.286 0 .286-.286zm-9.589-8.482L24.643 8.233q-.75-1.571-2.366-2.616t-3.991-1.045q-1.661 0-3.027.563t-2.17 1.438-1.232 1.839-.429 1.875q0 6.857-2.446 11.518zm24.161 3.339q0 .929-.679 1.607t-1.607.679h-8q0 1.893-1.339 3.232T18.286 32t-3.223-1.33-1.348-3.223l2.661-2.304h13.518q-2.964-3.339-4.054-8.196l1.982-1.732q1.089 6.357 5.321 9.929zM34.679.286L36.179 2q.143.179.134.42t-.188.402L2.696 31.786q-.179.143-.42.125t-.384-.196l-1.5-1.714q-.143-.179-.134-.42t.188-.384l3.321-2.875q-.339-.571-.339-1.179.893-.75 1.625-1.571t1.518-2.134 1.33-2.83.893-3.679.348-4.643q0-2.714 2.089-5.045t5.482-2.83q-.143-.339-.143-.696 0-.714.5-1.214t1.214-.5 1.214.5.5 1.214q0 .357-.143.696 2.214.321 3.911 1.473t2.643 2.813L33.873.215q.179-.143.42-.125t.384.196z"/></svg>