<svg xmlns="http://www.w3.org/2000/svg" width="32" height="32" viewBox="0 0 32 32"><path d="M16.286 30.286Q16.286 30 16 30q-1.054 0-1.813-.759t-.759-1.813q0-.286-.286-.286t-.286.286q0 1.304.92 2.223t2.223.92q.286 0 .286-.286zM4.393 25.143h23.214q-4.75-5.357-4.75-14.857 0-.911-.429-1.875t-1.232-1.839-2.17-1.438-3.027-.563-3.027.563-2.17 1.438T9.57 8.411t-.429 1.875q0 9.5-4.75 14.857zm26.464 0q0 .929-.679 1.607t-1.607.679h-8q0 1.893-1.339 3.232T16 32t-3.232-1.339-1.339-3.232h-8q-.929 0-1.607-.679t-.679-1.607q.893-.75 1.625-1.571t1.518-2.134 1.33-2.83.893-3.679.348-4.643q0-2.714 2.089-5.045t5.482-2.83q-.143-.339-.143-.696 0-.714.5-1.214t1.214-.5 1.214.5.5 1.214q0 .357-.143.696 3.393.5 5.482 2.83t2.089 5.045q0 2.482.348 4.643t.893 3.679 1.33 2.83 1.518 2.134 1.625 1.571z"/></svg>