<svg xmlns="http://www.w3.org/2000/svg" width="41" height="32" viewBox="0 0 41 32"><path d="M13.607 20.571H8q-.714 0-1.027-.625t.116-1.196l3.357-4.482Q9.285 13.714 8 13.714q-2.357 0-4.036 1.679t-1.679 4.036 1.679 4.036T8 25.144q2.054 0 3.625-1.295t1.982-3.277zm-3.321-2.285h3.321q-.321-1.518-1.339-2.643zm8.571 0L24 11.429h-8.571l-1.768 2.357q1.875 1.839 2.25 4.5h2.946zm20 1.143q0-2.357-1.679-4.036t-4.036-1.679q-1.071 0-2.161.429l3.107 4.643q.268.411.179.875t-.482.714q-.268.196-.643.196-.625 0-.946-.518l-3.107-4.643q-1.661 1.696-1.661 4.018 0 2.357 1.679 4.036t4.036 1.679 4.036-1.679 1.679-4.036zm2.286 0q0 3.304-2.348 5.652t-5.652 2.348-5.652-2.348-2.348-5.652q0-1.732.705-3.277t1.955-2.67l-1.161-1.75-6.304 8.375q-.321.464-.911.464h-3.518q-.411 2.929-2.661 4.893t-5.25 1.964q-3.304 0-5.652-2.348t-2.348-5.652 2.348-5.652 5.652-2.348q2.036 0 3.839.982l2.446-3.268h-4q-.464 0-.804-.339t-.339-.804.339-.804.804-.339h6.857v2.286h7.768L23.39 6.856h-3.964q-.464 0-.804-.339t-.339-.804.339-.804.804-.339h4.571q.589 0 .946.5l4.768 7.143q1.625-.786 3.429-.786 3.304 0 5.652 2.348t2.348 5.652z"/></svg>