<svg xmlns="http://www.w3.org/2000/svg" width="32" height="32" viewBox="0 0 32 32"><path d="M12.571 5.714v13.714q0 .464-.339.804t-.804.339v10.286q0 .464-.339.804t-.804.339H1.142q-.464 0-.804-.339t-.339-.804v-9.143L4.445 6.125q.125-.411.554-.411h7.571zm5.715 0v12.571h-4.571V5.714h4.571zm13.714 16v9.143q0 .464-.339.804t-.804.339h-9.143q-.464 0-.804-.339t-.339-.804V20.571q-.464 0-.804-.339t-.339-.804V5.714h7.571q.429 0 .554.411zM13.143.571v4H6.857v-4q0-.25.161-.411t.411-.161h5.143q.25 0 .411.161t.161.411zm12 0v4h-6.286v-4q0-.25.161-.411t.411-.161h5.143q.25 0 .411.161t.161.411z"/></svg>