<svg xmlns="http://www.w3.org/2000/svg" width="32" height="32" viewBox="0 0 32 32"><path d="M32 25.143V32H0v-6.857q.804 0 1.518-.25t1.054-.491.839-.67q.536-.482.92-.679t1.009-.196.991.196.938.679q.518.446.839.679t1.036.482 1.536.25q.804 0 1.518-.259t1.036-.482.857-.67q.375-.339.58-.482t.554-.268.777-.125q.625 0 1.009.196t.92.679q.5.429.839.67t1.054.491 1.518.25 1.518-.25 1.054-.491.839-.67q.536-.482.92-.679t1.009-.196q.607 0 .991.196t.92.679q.5.429.839.67t1.054.491 1.518.25zm0-5.714v3.429q-.625 0-.991-.196t-.938-.679q-.518-.446-.839-.679t-1.036-.482-1.518-.25q-.821 0-1.536.25t-1.036.482-.839.679q-.393.339-.589.482t-.554.268-.786.125q-.625 0-1.009-.196t-.92-.679q-.518-.446-.839-.679t-1.036-.482-1.536-.25q-.804 0-1.518.259t-1.036.482-.857.67q-.375.339-.58.482t-.554.268-.777.125q-.625 0-1.009-.196t-.92-.679q-.5-.429-.839-.67t-1.054-.491-1.518-.25q-.821 0-1.536.25t-1.036.482-.839.679q-.536.482-.92.679t-1.009.196v-3.429q0-1.429 1-2.429t2.429-1h1.143V8h4.571v8h4.571V8h4.571v8h4.571V8h4.571v8h1.143q1.429 0 2.429 1t1 2.429zM9.143 4q0 1.375-.643 2.116t-1.643.741q-.946 0-1.616-.67t-.67-1.616q0-.518.17-.911t.42-.607.554-.5.554-.563.42-.795.17-1.196q.679 0 1.482 1.321t.804 2.679zm9.143 0q0 1.375-.643 2.116T16 6.857q-.946 0-1.616-.67t-.67-1.616q0-.518.17-.911t.42-.607.554-.5.554-.563.42-.795.17-1.196q.679 0 1.482 1.321t.804 2.679zm9.143 0q0 1.375-.643 2.116t-1.643.741q-.946 0-1.616-.67t-.67-1.616q0-.518.17-.911t.42-.607.554-.5.554-.563.42-.795.17-1.196q.679 0 1.482 1.321t.804 2.679z"/></svg>