<svg xmlns="http://www.w3.org/2000/svg" width="32" height="32" viewBox="0 0 32 32"><path d="M15.018 18.804l2.643 2.643L15 24.108zM15 7.893l2.661 2.661-2.643 2.643zM12.679 29.75l8.286-8.286L15.501 16l5.464-5.464-8.286-8.286v10.911L8.125 8.607l-1.661 1.661L12.178 16l-5.714 5.732 1.661 1.661 4.554-4.554V29.75zM25.518 16q0 3.732-.571 6.527t-1.563 4.589-2.509 2.902-3.241 1.545-3.92.438-3.92-.438-3.241-1.545-2.509-2.902-1.563-4.589T1.91 16t.571-6.527 1.563-4.589 2.509-2.902T9.794.437t3.92-.438 3.92.438 3.241 1.545 2.509 2.902 1.563 4.589.571 6.527z"/></svg>