<svg xmlns="http://www.w3.org/2000/svg" width="25" height="32" viewBox="0 0 25 32"><path d="M9.911 27.161q1.321.571 2.5.571 6.714 0 6.714-5.982 0-2.036-.732-3.214-.482-.786-1.098-1.321t-1.205-.83-1.438-.446-1.5-.188-1.688-.036q-1.304 0-1.804.179 0 .946-.009 2.839t-.009 2.821q0 .143-.018 1.205t-.009 1.723.08 1.491.214 1.188zm-.25-13.322q.75.125 1.946.125 1.464 0 2.554-.232t1.964-.795 1.33-1.598.455-2.536q0-1.25-.518-2.188t-1.411-1.464-1.929-.777-2.214-.25q-.893 0-2.321.232 0 .893.071 2.696t.071 2.714q0 .482-.009 1.429t-.009 1.411q0 .821.018 1.232zM0 29.714l.036-1.679q.268-.071 1.518-.286t1.893-.482q.125-.214.223-.482t.152-.598.098-.58.054-.67.009-.607v-1.17q0-17.536-.393-18.304-.071-.143-.393-.259t-.795-.196-.884-.125-.866-.08-.545-.054L.036 2.66q1.75-.036 6.071-.205t6.661-.17q.411 0 1.223.009t1.205.009q1.25 0 2.438.232t2.295.75 1.929 1.268 1.321 1.866.5 2.455q0 .929-.295 1.705t-.696 1.286-1.152 1.027-1.304.804-1.5.714q2.75.625 4.58 2.393t1.83 4.429q0 1.786-.625 3.205t-1.67 2.33-2.464 1.527-2.92.866-3.143.25q-.786 0-2.357-.054t-2.357-.054q-1.893 0-5.482.196t-4.125.214z"/></svg>