<svg xmlns="http://www.w3.org/2000/svg" width="23" height="32" viewBox="0 0 23 32"><path d="M20.839 11.429q.321 3.25-2.339 4.607 2.089.5 3.125 1.839t.804 3.821q-.125 1.268-.58 2.232t-1.152 1.589-1.732 1.045-2.17.616-2.598.268V32h-2.75v-4.482q-1.429 0-2.179-.018V32h-2.75v-4.554q-.321 0-.964-.009t-.982-.009H1.001l.554-3.268h1.982q.893 0 1.036-.911V16.07h.286q-.107-.018-.286-.018v-5.125q-.232-1.214-1.589-1.214H1.002V6.784l3.786.018q1.143 0 1.732-.018v-4.5h2.75v4.411q1.464-.036 2.179-.036V2.284h2.75v4.5q1.411.125 2.5.402t2.018.804 1.473 1.393.652 2.045zM17 21.161q0-.643-.268-1.143t-.661-.821-1.027-.545-1.17-.33-1.321-.161-1.232-.054-1.152.018-.848.018v6.036q.143 0 .661.009t.857.009.946-.027 1.045-.071 1.018-.152.991-.25.848-.375.705-.536.438-.714.17-.911zm-1.268-8.5q0-.589-.223-1.045t-.545-.75-.857-.5-.982-.295-1.098-.143-1.036-.045-.964.018-.705.009v5.482q.089 0 .616.009t.83 0 .893-.036.982-.098.92-.196.866-.33.661-.482.482-.688.161-.911z"/></svg>