<svg xmlns="http://www.w3.org/2000/svg" width="30" height="32" viewBox="0 0 30 32"><path d="M29.143 17.143q0 .464-.339.804t-.804.339h-4q0 3.054-1.196 5.179l3.714 3.732q.339.339.339.804t-.339.804q-.321.339-.804.339t-.804-.339l-3.536-3.518q-.089.089-.268.232t-.75.509-1.161.652-1.464.518-1.732.232v-16h-2.286v16q-.911 0-1.813-.241t-1.554-.589-1.179-.696-.777-.58l-.268-.25-3.268 3.696q-.357.375-.857.375-.429 0-.768-.286-.339-.321-.366-.795t.277-.83l3.607-4.054q-1.036-2.036-1.036-4.893h-4q-.464 0-.804-.339t-.339-.804.339-.804.804-.339h4v-5.25L2.622 7.662q-.339-.339-.339-.804t.339-.804.804-.339.804.339l3.089 3.089H22.39l3.089-3.089q.339-.339.804-.339t.804.339.339.804-.339.804l-3.089 3.089v5.25h4q.464 0 .804.339t.339.804zM20.571 6.857H9.142q0-2.375 1.67-4.045t4.045-1.67 4.045 1.67 1.67 4.045z"/></svg>