<svg xmlns="http://www.w3.org/2000/svg" width="25" height="32" viewBox="0 0 25 32"><path d="M6.857 23.429v1.143q0 .232-.17.402t-.402.17H5.142q-.232 0-.402-.17t-.17-.402v-1.143q0-.232.17-.402t.402-.17h1.143q.232 0 .402.17t.17.402zm0-4.572V20q0 .232-.17.402t-.402.17H5.142q-.232 0-.402-.17T4.57 20v-1.143q0-.232.17-.402t.402-.17h1.143q.232 0 .402.17t.17.402zm4.572 0V20q0 .232-.17.402t-.402.17H9.714q-.232 0-.402-.17T9.142 20v-1.143q0-.232.17-.402t.402-.17h1.143q.232 0 .402.17t.17.402zm-4.572-4.571v1.143q0 .232-.17.402t-.402.17H5.142q-.232 0-.402-.17t-.17-.402v-1.143q0-.232.17-.402t.402-.17h1.143q.232 0 .402.17t.17.402zm13.714 9.143v1.143q0 .232-.17.402t-.402.17h-1.143q-.232 0-.402-.17t-.17-.402v-1.143q0-.232.17-.402t.402-.17h1.143q.232 0 .402.17t.17.402zM16 18.857V20q0 .232-.17.402t-.402.17h-1.143q-.232 0-.402-.17t-.17-.402v-1.143q0-.232.17-.402t.402-.17h1.143q.232 0 .402.17t.17.402zm-4.571-4.571v1.143q0 .232-.17.402t-.402.17H9.714q-.232 0-.402-.17t-.17-.402v-1.143q0-.232.17-.402t.402-.17h1.143q.232 0 .402.17t.17.402zM6.857 9.714v1.143q0 .232-.17.402t-.402.17H5.142q-.232 0-.402-.17t-.17-.402V9.714q0-.232.17-.402t.402-.17h1.143q.232 0 .402.17t.17.402zm13.714 9.143V20q0 .232-.17.402t-.402.17h-1.143q-.232 0-.402-.17t-.17-.402v-1.143q0-.232.17-.402t.402-.17h1.143q.232 0 .402.17t.17.402zM16 14.286v1.143q0 .232-.17.402t-.402.17h-1.143q-.232 0-.402-.17t-.17-.402v-1.143q0-.232.17-.402t.402-.17h1.143q.232 0 .402.17t.17.402zm-4.571-4.572v1.143q0 .232-.17.402t-.402.17H9.714q-.232 0-.402-.17t-.17-.402V9.714q0-.232.17-.402t.402-.17h1.143q.232 0 .402.17t.17.402zM6.857 5.143v1.143q0 .232-.17.402t-.402.17H5.142q-.232 0-.402-.17t-.17-.402V5.143q0-.232.17-.402t.402-.17h1.143q.232 0 .402.17t.17.402zm13.714 9.143v1.143q0 .232-.17.402t-.402.17h-1.143q-.232 0-.402-.17t-.17-.402v-1.143q0-.232.17-.402t.402-.17h1.143q.232 0 .402.17t.17.402zM16 9.714v1.143q0 .232-.17.402t-.402.17h-1.143q-.232 0-.402-.17t-.17-.402V9.714q0-.232.17-.402t.402-.17h1.143q.232 0 .402.17t.17.402zm-4.571-4.571v1.143q0 .232-.17.402t-.402.17H9.714q-.232 0-.402-.17t-.17-.402V5.143q0-.232.17-.402t.402-.17h1.143q.232 0 .402.17t.17.402zm9.142 4.571v1.143q0 .232-.17.402t-.402.17h-1.143q-.232 0-.402-.17t-.17-.402V9.714q0-.232.17-.402t.402-.17h1.143q.232 0 .402.17t.17.402zM16 5.143v1.143q0 .232-.17.402t-.402.17h-1.143q-.232 0-.402-.17t-.17-.402V5.143q0-.232.17-.402t.402-.17h1.143q.232 0 .402.17t.17.402zm4.571 0v1.143q0 .232-.17.402t-.402.17h-1.143q-.232 0-.402-.17t-.17-.402V5.143q0-.232.17-.402t.402-.17h1.143q.232 0 .402.17t.17.402zM16 29.714h6.857V2.285H2.286v27.429h6.857v-4q0-.232.17-.402t.402-.17h5.714q.232 0 .402.17t.17.402v4zm9.143-28.571v29.714q0 .464-.339.804T24 32H1.143q-.464 0-.804-.339T0 30.857V1.143Q0 .679.339.339T1.143 0H24q.464 0 .804.339t.339.804z"/></svg>