<svg xmlns="http://www.w3.org/2000/svg" width="32" height="32" viewBox="0 0 32 32"><path d="M24 0q.464 0 .804.339t.339.804v29.714q0 .464-.339.804T24 32H1.143q-.464 0-.804-.339T0 30.857V1.143Q0 .679.339.339T1.143 0H24zM9.143 5.143v1.143q0 .25.161.411t.411.161h1.143q.25 0 .411-.161t.161-.411V5.143q0-.25-.161-.411t-.411-.161H9.715q-.25 0-.411.161t-.161.411zm0 4.571v1.143q0 .25.161.411t.411.161h1.143q.25 0 .411-.161t.161-.411V9.714q0-.25-.161-.411t-.411-.161H9.715q-.25 0-.411.161t-.161.411zm0 4.572v1.143q0 .25.161.411t.411.161h1.143q.25 0 .411-.161t.161-.411v-1.143q0-.25-.161-.411t-.411-.161H9.715q-.25 0-.411.161t-.161.411zm0 4.571V20q0 .25.161.411t.411.161h1.143q.25 0 .411-.161T11.43 20v-1.143q0-.25-.161-.411t-.411-.161H9.715q-.25 0-.411.161t-.161.411zm-2.286 5.714v-1.143q0-.25-.161-.411t-.411-.161H5.142q-.25 0-.411.161t-.161.411v1.143q0 .25.161.411t.411.161h1.143q.25 0 .411-.161t.161-.411zm0-4.571v-1.143q0-.25-.161-.411t-.411-.161H5.142q-.25 0-.411.161t-.161.411V20q0 .25.161.411t.411.161h1.143q.25 0 .411-.161T6.857 20zm0-4.571v-1.143q0-.25-.161-.411t-.411-.161H5.142q-.25 0-.411.161t-.161.411v1.143q0 .25.161.411t.411.161h1.143q.25 0 .411-.161t.161-.411zm0-4.572V9.714q0-.25-.161-.411t-.411-.161H5.142q-.25 0-.411.161t-.161.411v1.143q0 .25.161.411t.411.161h1.143q.25 0 .411-.161t.161-.411zm0-4.571V5.143q0-.25-.161-.411t-.411-.161H5.142q-.25 0-.411.161t-.161.411v1.143q0 .25.161.411t.411.161h1.143q.25 0 .411-.161t.161-.411zM16 29.143v-3.429q0-.25-.161-.411t-.411-.161H9.714q-.25 0-.411.161t-.161.411v3.429q0 .25.161.411t.411.161h5.714q.25 0 .411-.161t.161-.411zM16 20v-1.143q0-.25-.161-.411t-.411-.161h-1.143q-.25 0-.411.161t-.161.411V20q0 .25.161.411t.411.161h1.143q.25 0 .411-.161T16 20zm0-4.571v-1.143q0-.25-.161-.411t-.411-.161h-1.143q-.25 0-.411.161t-.161.411v1.143q0 .25.161.411t.411.161h1.143q.25 0 .411-.161t.161-.411zm0-4.572V9.714q0-.25-.161-.411t-.411-.161h-1.143q-.25 0-.411.161t-.161.411v1.143q0 .25.161.411t.411.161h1.143q.25 0 .411-.161t.161-.411zm0-4.571V5.143q0-.25-.161-.411t-.411-.161h-1.143q-.25 0-.411.161t-.161.411v1.143q0 .25.161.411t.411.161h1.143q.25 0 .411-.161T16 6.286zm4.571 18.285v-1.143q0-.25-.161-.411t-.411-.161h-1.143q-.25 0-.411.161t-.161.411v1.143q0 .25.161.411t.411.161h1.143q.25 0 .411-.161t.161-.411zm0-4.571v-1.143q0-.25-.161-.411t-.411-.161h-1.143q-.25 0-.411.161t-.161.411V20q0 .25.161.411t.411.161h1.143q.25 0 .411-.161t.161-.411zm0-4.571v-1.143q0-.25-.161-.411t-.411-.161h-1.143q-.25 0-.411.161t-.161.411v1.143q0 .25.161.411t.411.161h1.143q.25 0 .411-.161t.161-.411zm0-4.572V9.714q0-.25-.161-.411t-.411-.161h-1.143q-.25 0-.411.161t-.161.411v1.143q0 .25.161.411t.411.161h1.143q.25 0 .411-.161t.161-.411zm0-4.571V5.143q0-.25-.161-.411t-.411-.161h-1.143q-.25 0-.411.161t-.161.411v1.143q0 .25.161.411t.411.161h1.143q.25 0 .411-.161t.161-.411z"/></svg>