<svg xmlns="http://www.w3.org/2000/svg" width="32" height="32" viewBox="0 0 32 32"><path d="M18.286 16q0 1.893-1.339 3.232t-3.232 1.339-3.232-1.339T9.144 16t1.339-3.232 3.232-1.339 3.232 1.339T18.286 16zm2.285 0q0-2.839-2.009-4.848t-4.848-2.009-4.848 2.009T6.857 16t2.009 4.848 4.848 2.009 4.848-2.009T20.571 16zm2.286 0q0 3.786-2.679 6.464t-6.464 2.679-6.464-2.679T4.571 16 7.25 9.536t6.464-2.679 6.464 2.679T22.857 16zm2.286 0q0-2.321-.911-4.438t-2.438-3.643-3.643-2.438-4.438-.911-4.438.911-3.643 2.438-2.438 3.643T2.283 16t.911 4.438 2.438 3.643 3.643 2.438 4.438.911 4.438-.911 3.643-2.438 2.438-3.643.911-4.438zm2.286 0q0 3.732-1.839 6.884t-4.991 4.991-6.884 1.839-6.884-1.839-4.991-4.991T.001 16 1.84 9.116t4.991-4.991 6.884-1.839 6.884 1.839 4.991 4.991T27.429 16z"/></svg>