<svg xmlns="http://www.w3.org/2000/svg" width="32" height="32" viewBox="0 0 32 32"><path d="M29.714 11.429q.946 0 1.616.67t.67 1.616-.67 1.616-1.616.67v6.857q0 .929-.679 1.607t-1.607.679q-7.446-6.196-14.5-6.786-1.036.339-1.625 1.179t-.554 1.795.714 1.652q-.357.589-.411 1.17t.107 1.036.598.982.857.893 1.098.902q-.518 1.036-1.991 1.482t-3.009.205-2.357-.991q-.125-.411-.527-1.563t-.571-1.688-.411-1.589-.268-1.804.063-1.759.393-1.973H2.855q-1.179 0-2.018-.839t-.839-2.018v-3.429q0-1.179.839-2.018t2.018-.839h8.571q7.768 0 16-6.857.929 0 1.607.679t.679 1.607v6.857zm-2.285 10.785V5.178q-7.036 5.393-13.714 6.125v4.821q6.732.75 13.714 6.089z"/></svg>