<svg xmlns="http://www.w3.org/2000/svg" width="32" height="32" viewBox="0 0 32 32"><path d="M6.857 21.714q0-.946-.67-1.616t-1.616-.67-1.616.67-.67 1.616.67 1.616 1.616.67 1.616-.67.67-1.616zm18.286 0q0-.946-.67-1.616t-1.616-.67-1.616.67-.67 1.616.67 1.616 1.616.67 1.616-.67.67-1.616zm-.822-7.071l-1.286-6.857q-.089-.411-.402-.67t-.723-.259H5.517q-.411 0-.723.259t-.402.67l-1.286 6.857q-.089.536.25.946t.875.411h18.964q.536 0 .875-.411t.25-.946zM20.286 3.714q0-.357-.25-.607t-.607-.25H8q-.357 0-.607.25t-.25.607.25.607.607.25h11.429q.357 0 .607-.25t.25-.607zm7.143 12.947v10.768h-2.286v2.286q0 .946-.67 1.616t-1.616.67-1.616-.67-.67-1.616v-2.286H6.857v2.286q0 .946-.67 1.616t-1.616.67-1.616-.67-.67-1.616v-2.286H-.001V16.661q0-2 .446-3.982l1.839-8.107q.161-1.393 1.741-2.446T8.132.537t5.58-.536 5.58.536 4.107 1.589 1.741 2.446l1.875 8.107q.411 1.821.411 3.982z"/></svg>