<svg xmlns="http://www.w3.org/2000/svg" width="32" height="32" viewBox="0 0 32 32"><path d="M6.857 27.429q0-.946-.67-1.616t-1.616-.67-1.616.67-.67 1.616.67 1.616 1.616.67 1.616-.67.67-1.616zm6.857 0q0-.946-.67-1.616t-1.616-.67-1.616.67-.67 1.616.67 1.616 1.616.67 1.616-.67.67-1.616zm-6.857-6.858q0-.946-.67-1.616t-1.616-.67-1.616.67-.67 1.616.67 1.616 1.616.67 1.616-.67.67-1.616zm13.714 6.858q0-.946-.67-1.616t-1.616-.67-1.616.67-.67 1.616.67 1.616 1.616.67 1.616-.67.67-1.616zm-6.857-6.858q0-.946-.67-1.616t-1.616-.67-1.616.67-.67 1.616.67 1.616 1.616.67 1.616-.67.67-1.616zm-6.857-6.857q0-.946-.67-1.616t-1.616-.67-1.616.67-.67 1.616.67 1.616 1.616.67 1.616-.67.67-1.616zm13.714 6.857q0-.946-.67-1.616t-1.616-.67-1.616.67-.67 1.616.67 1.616 1.616.67 1.616-.67.67-1.616zm-6.857-6.857q0-.946-.67-1.616t-1.616-.67-1.616.67-.67 1.616.67 1.616 1.616.67 1.616-.67.67-1.616zm13.715 13.715v-6.857q0-.929-.679-1.607t-1.607-.679-1.607.679-.679 1.607v6.857q0 .929.679 1.607t1.607.679 1.607-.679.679-1.607zm-6.858-13.715q0-.946-.67-1.616t-1.616-.67-1.616.67-.67 1.616.67 1.616 1.616.67 1.616-.67.67-1.616zM27.429 8V3.429q0-.464-.339-.804t-.804-.339H3.429q-.464 0-.804.339t-.339.804V8q0 .464.339.804t.804.339h22.857q.464 0 .804-.339T27.429 8zm0 5.714q0-.946-.67-1.616t-1.616-.67-1.616.67-.67 1.616.67 1.616 1.616.67 1.616-.67.67-1.616zm2.285-11.428v27.429q0 .929-.679 1.607t-1.607.679H2.285q-.929 0-1.607-.679t-.679-1.607V2.286q0-.929.679-1.607T2.285 0h25.143q.929 0 1.607.679t.679 1.607z"/></svg>