<svg xmlns="http://www.w3.org/2000/svg" width="32" height="32" viewBox="0 0 32 32"><path d="M20.571 20v1.143q0 .25-.161.411t-.411.161H9.713q-.25 0-.411-.161t-.161-.411V20q0-.25.161-.411t.411-.161h10.286q.25 0 .411.161t.161.411zM2.286 29.714h25.143V11.428H2.286v18.286zM9.143 8V2.857q0-.25-.161-.411t-.411-.161H7.428q-.25 0-.411.161t-.161.411V8q0 .25.161.411t.411.161h1.143q.25 0 .411-.161T9.143 8zm13.714 0V2.857q0-.25-.161-.411t-.411-.161h-1.143q-.25 0-.411.161t-.161.411V8q0 .25.161.411t.411.161h1.143q.25 0 .411-.161T22.857 8zm6.857-1.143v22.857q0 .929-.679 1.607T27.428 32H2.285q-.929 0-1.607-.679t-.679-1.607V6.857q0-.929.679-1.607t1.607-.679h2.286V2.857q0-1.179.839-2.018T7.428 0h1.143q1.179 0 2.018.839t.839 2.018v1.714h6.857V2.857q0-1.179.839-2.018T21.142 0h1.143q1.179 0 2.018.839t.839 2.018v1.714h2.286q.929 0 1.607.679t.679 1.607z"/></svg>