<svg xmlns="http://www.w3.org/2000/svg" width="32" height="32" viewBox="0 0 32 32"><path d="M27.429 4.571q.929 0 1.607.679t.679 1.607v22.857q0 .929-.679 1.607T27.429 32H2.286q-.929 0-1.607-.679T0 29.714V6.857q0-.929.679-1.607t1.607-.679h2.286V2.857q0-1.179.839-2.018T7.429 0h1.143q1.179 0 2.018.839t.839 2.018v1.714h6.857V2.857q0-1.179.839-2.018T21.143 0h1.143q1.179 0 2.018.839t.839 2.018v1.714h2.286zm-6.858-1.714V8q0 .25.161.411t.411.161h1.143q.25 0 .411-.161T22.858 8V2.857q0-.25-.161-.411t-.411-.161h-1.143q-.25 0-.411.161t-.161.411zm-13.714 0V8q0 .25.161.411t.411.161h1.143q.25 0 .411-.161T9.144 8V2.857q0-.25-.161-.411t-.411-.161H7.429q-.25 0-.411.161t-.161.411zm20.572 26.857V11.428H2.286v18.286h25.143zM16 19.429h4q.25 0 .411.161t.161.411v1.143q0 .25-.161.411t-.411.161h-4v4q0 .25-.161.411t-.411.161h-1.143q-.25 0-.411-.161t-.161-.411v-4h-4q-.25 0-.411-.161t-.161-.411v-1.143q0-.25.161-.411t.411-.161h4v-4q0-.25.161-.411t.411-.161h1.143q.25 0 .411.161t.161.411v4z"/></svg>