<svg xmlns="http://www.w3.org/2000/svg" width="32" height="32" viewBox="0 0 32 32"><path d="M16.571 14.857q0-.25-.161-.411t-.411-.161q-1.179 0-2.018.839t-.839 2.018q0 .25.161.411t.411.161.411-.161.161-.411q0-.714.5-1.214t1.214-.5q.25 0 .411-.161t.161-.411zm4 2.322q0 1.893-1.339 3.232T16 21.75t-3.232-1.339-1.339-3.232 1.339-3.232T16 12.608t3.232 1.339 1.339 3.232zM2.286 27.429h27.429v-2.286H2.286v2.286zm20.571-10.25q0-2.839-2.009-4.848T16 10.322t-4.848 2.009-2.009 4.848 2.009 4.848T16 24.036t4.848-2.009 2.009-4.848zM4.571 5.714h6.857V3.428H4.571v2.286zM2.286 9.143h27.429V4.572H14.929l-1.143 2.286h-11.5v2.286zM32 4.571v22.857q0 .946-.67 1.616t-1.616.67H2.285q-.946 0-1.616-.67t-.67-1.616V4.571q0-.946.67-1.616t1.616-.67h27.429q.946 0 1.616.67T32 4.571z"/></svg>