<svg xmlns="http://www.w3.org/2000/svg" width="37" height="32" viewBox="0 0 37 32"><path d="M8.571 19.429q0-1.179-.839-2.018t-2.018-.839-2.018.839-.839 2.018.839 2.018 2.018.839 2.018-.839.839-2.018zm.643-5.715h18.143l-1.589-6.375q-.036-.143-.25-.313t-.375-.17H11.429q-.161 0-.375.17t-.25.313zm24.5 5.715q0-1.179-.839-2.018t-2.018-.839-2.018.839T28 19.429t.839 2.018 2.018.839 2.018-.839.839-2.018zm2.857-1.715v6.857q0 .25-.161.411t-.411.161h-1.714v2.286q0 1.429-1 2.429t-2.429 1-2.429-1-1-2.429v-2.286H9.141v2.286q0 1.429-1 2.429t-2.429 1-2.429-1-1-2.429v-2.286H.569q-.25 0-.411-.161t-.161-.411v-6.857q0-1.661 1.17-2.83t2.83-1.17h.5l1.875-7.482q.411-1.679 1.857-2.813t3.196-1.134h13.714q1.75 0 3.196 1.134t1.857 2.813l1.875 7.482h.5q1.661 0 2.83 1.17t1.17 2.83z"/></svg>