<svg xmlns="http://www.w3.org/2000/svg" width="30" height="32" viewBox="0 0 30 32"><path d="M21.714 12.571q0-.464-.339-.804t-.804-.339h-2.286V9.142q0-.464-.339-.804t-.804-.339-.804.339-.339.804v2.286h-2.286q-.464 0-.804.339t-.339.804.339.804.804.339h2.286V16q0 .464.339.804t.804.339.804-.339.339-.804v-2.286h2.286q.464 0 .804-.339t.339-.804zM11.429 27.429q0 .946-.67 1.616t-1.616.67-1.616-.67-.67-1.616.67-1.616 1.616-.67 1.616.67.67 1.616zm16 0q0 .946-.67 1.616t-1.616.67-1.616-.67-.67-1.616.67-1.616 1.616-.67 1.616.67.67 1.616zM29.714 8v9.143q0 .429-.286.759t-.732.384l-18.643 2.179q.018.125.08.384t.107.473.045.393q0 .286-.429 1.143h16.429q.464 0 .804.339t.339.804-.339.804-.804.339H7.999q-.464 0-.804-.339t-.339-.804q0-.25.196-.705t.527-1.063.366-.679L4.784 6.858H1.141q-.464 0-.804-.339t-.339-.804.339-.804.804-.339h4.571q.286 0 .509.116t.357.277.232.438.134.473.098.527.08.455h21.446q.464 0 .804.339t.339.804z"/></svg>