<svg xmlns="http://www.w3.org/2000/svg" width="41" height="32" viewBox="0 0 41 32"><path d="M5.589 13.875q0 .911-.643 1.5-.518.464-1.589.464h-.304V11.91h.304q1.089 0 1.589.482.643.554.643 1.482zm31.715-1.161q0 .929-1.143.929h-.339v-1.804h.357q1.125 0 1.125.875zM6.786 13.875q0-1.321-.893-2.152t-2.304-.83H1.893v5.946h1.696q1.321 0 2.125-.679 1.071-.911 1.071-2.286zm.535 2.964h1.161v-5.946H7.321v5.946zm5.715-1.803q0-.714-.366-1.107t-1.348-.75q-.518-.179-.705-.339t-.188-.411q0-.286.241-.473t.616-.188q.518 0 .946.482l.607-.786q-.732-.661-1.75-.661-.786 0-1.321.491t-.536 1.205q0 .625.321.991t1.143.652q.661.232.804.339.339.214.339.607 0 .357-.25.598t-.643.241q-.857 0-1.268-.786l-.75.714q.786 1.143 2.054 1.143.911 0 1.482-.545t.571-1.42zM18 16.643v-1.375q-.661.661-1.393.661-.875 0-1.438-.58t-.563-1.473q0-.857.563-1.455t1.384-.598q.768 0 1.446.679v-1.375q-.714-.357-1.429-.357-1.321 0-2.241.902t-.92 2.205.911 2.205 2.232.902q.75 0 1.446-.339zm22 10.786v-9.411q-1.161.714-2.58 1.5t-4.241 2.089-5.884 2.455-7.455 2.402-9 2.107h28.018q.464 0 .804-.339t.339-.804zM24.804 13.911q0-1.339-.946-2.286t-2.286-.946-2.286.946-.946 2.286.946 2.286 2.286.946 2.286-.946.946-2.286zM27.518 17l2.571-6.107h-1.268l-1.607 4-1.589-4h-1.268L26.893 17h.625zm3.089-.161h3.286v-1h-2.125v-1.607h2.054v-1h-2.054v-1.321h2.125v-1.018h-3.286v5.946zm6.982 0h1.429l-1.875-2.5q1.357-.286 1.357-1.679 0-.839-.554-1.304t-1.554-.464H34.66v5.946h1.161v-2.375h.161zm3.554-12.16v22.643q0 1-.688 1.696t-1.67.696H2.356q-.982 0-1.67-.696t-.688-1.696V4.679q0-1 .688-1.696t1.67-.696h36.429q.982 0 1.67.696t.688 1.696z"/></svg>