<svg xmlns="http://www.w3.org/2000/svg" width="41" height="32" viewBox="0 0 41 32"><path d="M34.839 17.821q0 .464-.277.795t-.688.42q-.143.036-.321.036h-2.732v-2.5h2.732q.179 0 .321.036.411.089.688.42t.277.795zm-.321-3.803q0 .446-.268.75t-.679.375q-.054.018-.268.018h-2.482v-2.304h2.482q.054 0 .152.009t.116.009q.411.071.679.384t.268.759zM13 16.946v-5.5H8.929v5.5q0 1.036-.679 1.688t-1.875.652q-1.929 0-4.089-1.054v2q.946.268 2.161.411t1.946.161l.75.018q5.857 0 5.857-3.875zm12.75 3.286v-2.018q-1.768.929-3.571 1.054-1.929.143-3.018-.732T18.072 16t1.089-2.536 3.018-.732q1.804.125 3.571 1.036v-2q-.857-.214-1.786-.348t-1.429-.17l-.5-.036q-2.268-.107-3.902.25t-2.509 1.071-1.268 1.571-.393 1.893.393 1.893 1.268 1.571 2.509 1.071 3.902.25q1.804-.071 3.714-.554zm13.107-2.053q0-.964-.768-1.58t-1.946-.705v-.054q1.018-.143 1.589-.741t.571-1.42q0-.982-.732-1.571t-1.911-.643q-.054 0-.214-.009t-.25-.009h-8.125v9.107h8.768q1.321 0 2.17-.652t.848-1.723zm2.286-13.608v22.857q0 .929-.679 1.607t-1.607.679H2.286q-.929 0-1.607-.679T0 27.428V4.571q0-.929.679-1.607t1.607-.679h36.571q.929 0 1.607.679t.679 1.607z"/></svg>