<svg xmlns="http://www.w3.org/2000/svg" width="41" height="32" viewBox="0 0 41 32"><path d="M13.304 16.179q0 .661-.455 1.098t-1.116.438q-.518 0-.83-.286t-.313-.786q0-.661.446-1.116t1.107-.455q.5 0 .83.295t.33.812zm14.017-2.661q0 .75-.393 1.018t-1.179.268l-.571.018.304-1.911q.036-.196.232-.196h.321q.393 0 .625.036t.446.223.214.545zm6.268 2.661q0 .643-.455 1.089t-1.098.446q-.518 0-.839-.286t-.321-.786q0-.661.446-1.116t1.107-.455q.5 0 .83.295t.33.813zM9.161 13.125q0-1.054-.688-1.527t-1.795-.473H3.821q-.339 0-.375.339L2.285 18.75q-.018.107.054.196t.179.089h1.357q.357 0 .393-.339l.321-1.964q.018-.143.125-.232t.268-.116.304-.027.339.018.25.018q1.536 0 2.411-.866t.875-2.402zm5.518 5.571l.732-4.661q.018-.107-.054-.196t-.179-.089h-1.357q-.25 0-.304.589-.482-.714-1.696-.714-1.286 0-2.188.964t-.902 2.268q0 1.054.616 1.679t1.652.625q.5 0 1.036-.214t.857-.571q-.071.214-.071.375 0 .286.232.286h1.232q.339 0 .393-.339zM22.661 14q0-.089-.071-.17t-.161-.08h-1.375q-.196 0-.321.179l-1.893 2.786-.786-2.679q-.089-.286-.393-.286h-1.339q-.089 0-.161.08t-.071.17q0 .036.348 1.054t.75 2.196.42 1.25q-1.464 2-1.464 2.143 0 .232.232.232h1.375q.196 0 .321-.179l4.554-6.571q.036-.036.036-.125zm6.785-.875q0-1.054-.688-1.527t-1.795-.473h-2.839q-.357 0-.393.339L22.57 18.75q-.018.107.054.196t.179.089h1.464q.214 0 .286-.232l.321-2.071q.018-.143.125-.232t.268-.116.304-.027.339.018.25.018q1.536 0 2.411-.866t.875-2.402zm5.518 5.571l.732-4.661q.018-.107-.054-.196t-.179-.089h-1.357q-.25 0-.304.589-.464-.714-1.696-.714-1.286 0-2.188.964t-.902 2.268q0 1.054.616 1.679t1.652.625q.518 0 1.054-.214t.839-.571q0 .018-.036.161t-.036.214q0 .286.232.286h1.232q.339 0 .393-.339zm3.893-7.303v-.018q0-.25-.232-.25h-1.321q-.196 0-.232.196l-1.161 7.429-.018.036q0 .089.071.17t.179.08h1.179q.339 0 .375-.339zM7 13.786q-.089.625-.464.821t-1.071.196l-.589.018.304-1.911q.036-.196.232-.196h.339q.714 0 1.036.205t.214.866zm34.143-9.215v22.857q0 .929-.679 1.607t-1.607.679H2.286q-.929 0-1.607-.679T0 27.428V4.571q0-.929.679-1.607t1.607-.679h36.571q.929 0 1.607.679t.679 1.607z"/></svg>