<svg xmlns="http://www.w3.org/2000/svg" width="41" height="32" viewBox="0 0 41 32"><path d="M28.518 16.125q0 1.232-.375 1.893-.339.625-.929.625-.411 0-.732-.161v-4q.518-.536 1.018-.536 1.018 0 1.018 2.179zm7.821-.643h-1.964q.107-1.75 1-1.75.911 0 .964 1.75zM8.5 17.893q0-1.054-.589-1.634t-1.804-1.027q-.643-.232-.929-.429t-.286-.446q0-.464.679-.464 1.036 0 2.214.589l.321-2q-1.196-.571-2.661-.571-1.375 0-2.196.679-.857.696-.857 1.946 0 1.036.58 1.616t1.777 1.009q.696.25.973.455t.277.491q0 .554-.857.554-.518 0-1.25-.223t-1.286-.545l-.321 2.018q1.286.732 3 .732 1.446 0 2.304-.661.911-.732.911-2.089zm5.268-3.839l.339-1.982h-1.714V9.661l-2.304.375-.321 2.036-.821.143-.304 1.839H9.75v3.911q0 1.5.786 2.143.679.536 1.982.536.571 0 1.411-.196v-2.107q-.571.125-.786.125-.75 0-.75-.893v-3.518h1.375zm5.643.446v-2.482q-.268-.054-.5-.054-.571 0-.991.286t-.598.821l-.179-1h-2.339v8.411h2.679v-5.464q.464-.554 1.464-.554.286 0 .464.036zm.66 5.982h2.679v-8.411h-2.679v8.411zm11.108-4.446q0-2.179-.804-3.196-.714-.929-1.982-.929-1.143 0-2.089 1l-.143-.839h-2.357V23.59l2.679-.446v-2.696q.643.196 1.214.196 1.482 0 2.393-1 1.089-1.161 1.089-3.607zm-8.358-6.215q0-.589-.411-1t-1-.411-1 .411-.411 1 .411 1.009 1 .42 1-.42.411-1.009zm16.036 6.375q0-2.018-.857-3.143-.893-1.143-2.571-1.143-1.714 0-2.705 1.179t-.991 3.214q0 2.286 1.125 3.357.982.982 2.875.982 1.804 0 2.857-.714l-.286-1.839q-1.018.554-2.286.554-.768 0-1.125-.339-.411-.339-.5-1.179h4.429q.036-.25.036-.929zm2.286-11.625v22.857q0 .929-.679 1.607t-1.607.679H2.286q-.929 0-1.607-.679T0 27.428V4.571q0-.929.679-1.607t1.607-.679h36.571q.929 0 1.607.679t.679 1.607z"/></svg>