<svg xmlns="http://www.w3.org/2000/svg" width="37" height="32" viewBox="0 0 37 32"><path d="M14.018 18h3.696q-.25 2.821-1.759 4.438t-3.83 1.616q-2.893 0-4.545-2.071T5.928 16.34q0-3.464 1.661-5.563t4.161-2.098q2.643 0 4.143 1.554t1.732 4.411H14q-.089-1.143-.634-1.768t-1.455-.625q-1.018 0-1.58 1.08t-.563 3.17q0 .857.089 1.5t.321 1.241.714.92 1.179.321q1.696 0 1.946-2.482zm12.714 0h3.679q-.25 2.821-1.75 4.438t-3.821 1.616q-2.893 0-4.545-2.071t-1.652-5.643q0-3.464 1.661-5.563t4.161-2.098q2.643 0 4.143 1.554t1.732 4.411h-3.643q-.071-1.143-.625-1.768t-1.446-.625q-1.018 0-1.58 1.08t-.563 3.17q0 .857.089 1.5t.321 1.241.705.92 1.17.321q.875 0 1.366-.679T26.732 18zm6.411-2.125q0-3.696-.277-5.482t-1.08-2.875q-.107-.143-.241-.25T31.161 7t-.286-.196q-1.536-1.125-12.446-1.125-11.161 0-12.679 1.125-.089.071-.313.205t-.375.25-.259.259q-.804 1.071-1.071 2.848t-.268 5.509q0 3.714.268 5.491t1.071 2.866q.107.143.268.268t.366.25.313.214q.786.589 4.277.875t8.402.286q10.893 0 12.446-1.161.089-.071.304-.196t.366-.25.241-.286q.821-1.071 1.089-2.839t.268-5.518zm3.428-13.589v27.429H0V2.286h36.571z"/></svg>