<svg xmlns="http://www.w3.org/2000/svg" width="32" height="32" viewBox="0 0 32 32"><path d="M24.571 16l2.464 2.411q.536.5.357 1.25-.214.732-.929.911l-3.357.857.946 3.321q.214.732-.339 1.25-.518.554-1.25.339l-3.321-.946-.857 3.357q-.179.714-.911.929-.214.036-.339.036-.554 0-.911-.393l-2.411-2.464-2.411 2.464q-.5.536-1.25.357-.732-.196-.911-.929l-.857-3.357-3.321.946q-.732.214-1.25-.339-.554-.518-.339-1.25l.946-3.321-3.357-.857q-.714-.179-.929-.911-.179-.75.357-1.25L2.855 16 .391 13.589q-.536-.5-.357-1.25.214-.732.929-.911l3.357-.857-.946-3.321Q3.16 6.518 3.713 6q.518-.554 1.25-.339l3.321.946.857-3.357q.179-.732.911-.911.732-.214 1.25.339l2.411 2.482 2.411-2.482q.518-.536 1.25-.339.732.179.911.911l.857 3.357 3.321-.946q.732-.214 1.25.339.554.518.339 1.25l-.946 3.321 3.357.857q.714.179.929.911.179.75-.357 1.25z"/></svg>