<svg xmlns="http://www.w3.org/2000/svg" width="32" height="32" viewBox="0 0 32 32"><path d="M20.911 14.518l-7.536 7.536q-.339.339-.804.339t-.804-.339l-5.25-5.25q-.339-.339-.339-.804t.339-.804l1.821-1.821q.339-.339.804-.339t.804.339L12.571 16l4.911-4.911q.339-.339.804-.339t.804.339l1.821 1.821q.339.339.339.804t-.339.804zM23.429 16q0-2.643-1.304-4.875t-3.536-3.536-4.875-1.304-4.875 1.304-3.536 3.536T3.999 16t1.304 4.875 3.536 3.536 4.875 1.304 4.875-1.304 3.536-3.536T23.429 16zm4 0q0 3.732-1.839 6.884t-4.991 4.991-6.884 1.839-6.884-1.839-4.991-4.991T.001 16 1.84 9.116t4.991-4.991 6.884-1.839 6.884 1.839 4.991 4.991T27.429 16z"/></svg>