<svg xmlns="http://www.w3.org/2000/svg" width="32" height="32" viewBox="0 0 32 32"><path d="M22.929 13.107q0-.5-.321-.821l-1.625-1.607q-.339-.339-.804-.339t-.804.339l-7.286 7.268-4.036-4.036q-.339-.339-.804-.339t-.804.339L4.82 15.518q-.321.321-.321.821 0 .482.321.804l6.464 6.464q.339.339.804.339.482 0 .821-.339l9.696-9.696q.321-.321.321-.804zm4.5 2.893q0 3.732-1.839 6.884t-4.991 4.991-6.884 1.839-6.884-1.839-4.991-4.991T.001 16 1.84 9.116t4.991-4.991 6.884-1.839 6.884 1.839 4.991 4.991T27.429 16z"/></svg>