<svg xmlns="http://www.w3.org/2000/svg" width="32" height="32" viewBox="0 0 32 32"><path d="M15.946 0Q20.232-.036 24 2.143q4.143 2.393 6.286 6.643l-13.25-.696q-2.857-.161-5.25 1.33t-3.304 4.098L3.553 5.947q2.286-2.839 5.554-4.384T15.946 0zM2.607 7.232l6.018 11.839q1.286 2.554 3.768 3.875t5.232.804l-4.107 8.054q-3.786-.589-6.875-2.813t-4.866-5.643T0 16q0-4.768 2.607-8.768zm28.322 3.018q1.036 2.679 1.063 5.545t-.866 5.464-2.732 4.857-4.393 3.741q-4.107 2.375-8.893 2.125l7.232-11.125q1.571-2.339 1.473-5.188t-1.902-4.955zM16 10.607q2.232 0 3.813 1.58T21.393 16t-1.58 3.813T16 21.393t-3.813-1.58T10.607 16t1.58-3.813T16 10.607z"/></svg>