<svg xmlns="http://www.w3.org/2000/svg" width="32" height="32" viewBox="0 0 32 32"><path d="M13.714 29.714h16V18.285h-7.429q-.714 0-1.214-.5t-.5-1.214V9.142h-6.857v20.571zM18.286 4V2.857q0-.232-.17-.402t-.402-.17H5.143q-.232 0-.402.17t-.17.402V4q0 .232.17.402t.402.17h12.571q.232 0 .402-.17t.17-.402zm4.571 12h5.339l-5.339-5.339V16zM32 18.286v12q0 .714-.5 1.214t-1.214.5H13.143q-.714 0-1.214-.5t-.5-1.214v-2.857H1.715q-.714 0-1.214-.5t-.5-1.214v-24q0-.714.5-1.214t1.214-.5h19.429q.714 0 1.214.5t.5 1.214v5.857q.375.232.643.5l7.286 7.286q.5.5.857 1.357t.357 1.571z"/></svg>