<svg xmlns="http://www.w3.org/2000/svg" width="18" height="32" viewBox="0 0 18 32"><path d="M5.143 26.286q0-.714-.5-1.214t-1.214-.5-1.214.5-.5 1.214.5 1.214 1.214.5 1.214-.5.5-1.214zm0-20.572q0-.714-.5-1.214T3.429 4t-1.214.5-.5 1.214.5 1.214 1.214.5 1.214-.5.5-1.214zM16.571 8q0-.714-.5-1.214t-1.214-.5-1.214.5-.5 1.214.5 1.214 1.214.5 1.214-.5.5-1.214zm1.715 0q0 .929-.464 1.723t-1.25 1.241q-.036 5.125-4.036 7.393-1.214.679-3.625 1.446-2.286.714-3.027 1.268t-.741 1.786v.464q.786.446 1.25 1.241t.464 1.723q0 1.429-1 2.429t-2.429 1-2.429-1-1-2.429q0-.929.464-1.723t1.25-1.241V8.678Q.927 8.232.463 7.437t-.464-1.723q0-1.429 1-2.429t2.429-1 2.429 1 1 2.429q0 .929-.464 1.723t-1.25 1.241v8.875q.964-.464 2.75-1.018.982-.304 1.562-.527t1.259-.554 1.054-.705.723-.911.5-1.241.152-1.634q-.786-.446-1.25-1.241t-.464-1.723q0-1.429 1-2.429t2.429-1 2.429 1 1 2.429z"/></svg>