<svg xmlns="http://www.w3.org/2000/svg" width="32" height="32" viewBox="0 0 32 32"><path d="M11.429 16q0 .946-.67 1.616t-1.616.67-1.616-.67T6.857 16t.67-1.616 1.616-.67 1.616.67.67 1.616zm6.857 0q0 .946-.67 1.616t-1.616.67-1.616-.67-.67-1.616.67-1.616 1.616-.67 1.616.67.67 1.616zm6.857 0q0 .946-.67 1.616t-1.616.67-1.616-.67-.67-1.616.67-1.616 1.616-.67 1.616.67.67 1.616zM16 6.857q-3.643 0-6.813 1.241t-5.036 3.348T2.285 16q0 2 1.277 3.813t3.598 3.134l1.554.893-.482 1.714q-.429 1.625-1.25 3.071 2.714-1.125 4.911-3.054l.768-.679 1.018.107q1.232.143 2.321.143 3.643 0 6.812-1.241t5.036-3.348 1.866-4.554-1.866-4.554-5.036-3.348-6.813-1.241zM32 16q0 3.107-2.143 5.741t-5.821 4.161T16 27.429q-1.25 0-2.589-.143-3.536 3.125-8.214 4.321-.875.25-2.036.393h-.089q-.268 0-.482-.188t-.286-.491v-.018q-.054-.071-.009-.214t.036-.179.08-.17l.107-.161.125-.152.143-.161q.125-.143.554-.616t.616-.679.554-.705.58-.911.482-1.054.464-1.357q-2.804-1.589-4.42-3.929T0 15.997q0-2.321 1.268-4.438t3.411-3.652 5.107-2.438T16 4.567t6.214.902 5.107 2.438 3.411 3.652T32 15.997z"/></svg>