<svg xmlns="http://www.w3.org/2000/svg" width="32" height="32" viewBox="0 0 32 32"><path d="M11.429 16q0-.946-.67-1.616t-1.616-.67-1.616.67T6.857 16t.67 1.616 1.616.67 1.616-.67.67-1.616zm6.857 0q0-.946-.67-1.616T16 13.714t-1.616.67-.67 1.616.67 1.616 1.616.67 1.616-.67.67-1.616zm6.857 0q0-.946-.67-1.616t-1.616-.67-1.616.67-.67 1.616.67 1.616 1.616.67 1.616-.67.67-1.616zM32 16q0 3.107-2.143 5.741t-5.821 4.161T16 27.429q-1.964 0-3.768-.321-3.089 3.089-7.768 4.089-.929.179-1.536.232-.214.018-.393-.107t-.232-.321q-.071-.268.357-.661.089-.089.42-.384t.455-.42.42-.455.429-.563.366-.661.357-.857.259-1.027.223-1.295q-2.607-1.607-4.098-3.866T0 15.999q0-3.107 2.143-5.741t5.821-4.161T16 4.57t8.036 1.527 5.821 4.161T32 15.999z"/></svg>