<svg xmlns="http://www.w3.org/2000/svg" width="32" height="32" viewBox="0 0 32 32"><path d="M13.714 17.143v8q0 .464-.339.804t-.804.339-.804-.339l-2.571-2.571-5.929 5.929q-.179.179-.411.179t-.411-.179L.409 27.269Q.23 27.09.23 26.858t.179-.411l5.929-5.929-2.571-2.571q-.339-.339-.339-.804t.339-.804.804-.339h8q.464 0 .804.339t.339.804zm13.482-12q0 .232-.179.411l-5.929 5.929 2.571 2.571q.339.339.339.804t-.339.804-.804.339h-8q-.464 0-.804-.339t-.339-.804v-8q0-.464.339-.804t.804-.339.804.339l2.571 2.571 5.929-5.929q.179-.179.411-.179t.411.179l2.036 2.036q.179.179.179.411z"/></svg>