<svg xmlns="http://www.w3.org/2000/svg" width="32" height="32" viewBox="0 0 32 32"><path d="M20.536 19.179v1.946q0 .893-.652 1.589t-1.679 1.08-2.107.58T14 24.57q-3.661 0-6.116-2.482t-2.455-6.179q0-3.625 2.429-6.054t6.054-2.429q.607 0 1.348.08t1.661.321 1.652.607 1.232 1.009.5 1.446v1.946q0 .286-.286.286h-2.107q-.286 0-.286-.286v-1.25q0-.768-1.17-1.205t-2.455-.438q-2.5 0-4.08 1.634t-1.58 4.241q0 2.696 1.634 4.455t4.17 1.759q1.214 0 2.464-.429t1.25-1.179v-1.25q0-.125.08-.205t.188-.08h2.125q.107 0 .196.08t.089.205zM13.714 4.571q-2.321 0-4.438.911T5.633 7.92t-2.438 3.643-.911 4.438.911 4.438 2.438 3.643 3.643 2.438 4.438.911 4.437-.911 3.643-2.438 2.438-3.643.911-4.438-.911-4.438-2.438-3.643-3.643-2.438-4.438-.911zM27.429 16q0 3.732-1.839 6.884t-4.991 4.991-6.884 1.839-6.884-1.839-4.991-4.991T.001 16 1.84 9.116t4.991-4.991 6.884-1.839 6.884 1.839 4.991 4.991T27.429 16z"/></svg>