<svg xmlns="http://www.w3.org/2000/svg" width="32" height="32" viewBox="0 0 32 32"><path d="M10.804 22.018q2.732 0 4.589-1.857.25-.321.054-.643l-.804-1.464q-.107-.232-.429-.304-.286-.036-.482.196l-.071.054q-.071.071-.205.179t-.313.232-.42.259-.509.241-.598.17-.67.063q-1.357 0-2.232-.893t-.875-2.268q0-1.357.857-2.241t2.179-.884q.661 0 1.277.25t.902.5l.286.25q.196.196.464.179.286-.036.429-.25l.946-1.393q.232-.357-.036-.696-.054-.071-.196-.214t-.536-.42-.866-.5-1.205-.402-1.536-.179q-2.643 0-4.393 1.723t-1.75 4.295q0 2.607 1.732 4.313t4.411 1.705zm11.25 0q2.732 0 4.589-1.857.25-.321.071-.643l-.804-1.464q-.143-.25-.446-.304-.286-.036-.482.196l-.071.054q-.071.071-.205.179t-.313.232-.42.259-.509.241-.598.17-.67.063q-1.357 0-2.232-.893t-.875-2.268q0-1.357.857-2.241t2.179-.884q.661 0 1.277.25t.902.5l.286.25q.196.196.464.179.286-.036.429-.25l.946-1.393q.232-.357-.036-.696-.054-.071-.196-.214t-.536-.42-.866-.5-1.205-.402-1.536-.179q-2.625 0-4.384 1.723t-1.759 4.295q0 2.607 1.732 4.313t4.411 1.705zM16 2.857q-2.679 0-5.107 1.045T6.705 6.706t-2.804 4.188-1.045 5.107 1.045 5.107 2.804 4.188 4.188 2.804T16 29.145t5.107-1.045 4.188-2.804 2.804-4.188 1.045-5.107-1.045-5.107-2.804-4.188-4.188-2.804T16 2.857zM16 0q3.25 0 6.214 1.268t5.107 3.411 3.411 5.107T32 16t-1.268 6.214-3.411 5.107-5.107 3.411T16 32t-6.214-1.268-5.107-3.411-3.411-5.107T0 16t1.268-6.214 3.411-5.107 5.107-3.411T16 0z"/></svg>