<svg xmlns="http://www.w3.org/2000/svg" width="30" height="32" viewBox="0 0 30 32"><path d="M9.946 22.857h10.625V12.232zm-.803-.803l10.625-10.625H9.143v10.625zm20.571 1.375v3.429q0 .25-.161.411t-.411.161h-4v4q0 .25-.161.411t-.411.161h-3.429q-.25 0-.411-.161t-.161-.411v-4H5.14q-.25 0-.411-.161t-.161-.411V11.429h-4q-.25 0-.411-.161t-.161-.411V7.428q0-.25.161-.411t.411-.161h4v-4q0-.25.161-.411t.411-.161h3.429q.25 0 .411.161t.161.411v4h15.196l4.393-4.411q.179-.161.411-.161t.411.161q.161.179.161.411t-.161.411L25.141 7.66v15.196h4q.25 0 .411.161t.161.411z"/></svg>