<svg xmlns="http://www.w3.org/2000/svg" width="32" height="32" viewBox="0 0 32 32"><path d="M21.375 18.286h-1.946q-.464 0-.804-.339t-.339-.804v-2.286q0-.464.339-.804t.804-.339h1.946q-.571-1.929-2.009-3.366T16 8.339v1.946q0 .464-.339.804t-.804.339h-2.286q-.464 0-.804-.339t-.339-.804V8.339q-1.929.571-3.366 2.009t-2.009 3.366h1.946q.464 0 .804.339t.339.804v2.286q0 .464-.339.804t-.804.339H6.053q.571 1.929 2.009 3.366t3.366 2.009v-1.946q0-.464.339-.804t.804-.339h2.286q.464 0 .804.339t.339.804v1.946q1.929-.571 3.366-2.009t2.009-3.366zm6.054-3.429v2.286q0 .464-.339.804t-.804.339h-2.554q-.661 2.875-2.759 4.973T16 26.018v2.554q0 .464-.339.804t-.804.339h-2.286q-.464 0-.804-.339t-.339-.804v-2.554q-2.875-.661-4.973-2.759t-2.759-4.973H1.142q-.464 0-.804-.339t-.339-.804v-2.286q0-.464.339-.804t.804-.339h2.554q.661-2.875 2.759-4.973t4.973-2.759V3.428q0-.464.339-.804t.804-.339h2.286q.464 0 .804.339t.339.804v2.554q2.875.661 4.973 2.759t2.759 4.973h2.554q.464 0 .804.339t.339.804z"/></svg>