<svg xmlns="http://www.w3.org/2000/svg" width="41" height="32" viewBox="0 0 41 32"><path d="M11.429 29.143l6.857-3.429v-5.607l-6.857 2.929v6.107zm-1.143-8.107l7.214-3.089-7.214-3.089-7.214 3.089zm19.428 8.107l6.857-3.429v-5.607l-6.857 2.929v6.107zm-1.143-8.107l7.214-3.089-7.214-3.089-7.214 3.089zm-8-5.232l6.857-2.946v-4.75l-6.857 2.929v4.768zm-1.142-6.768l7.875-3.375-7.875-3.375-7.875 3.375zm19.428 9.25v7.429q0 .643-.339 1.196t-.929.839l-8 4q-.446.25-1.018.25t-1.018-.25l-8-4q-.089-.036-.125-.071-.036.036-.125.071l-8 4q-.446.25-1.018.25t-1.018-.25l-8-4q-.589-.286-.929-.839t-.339-1.196v-7.429q0-.679.384-1.25t1.009-.857l7.75-3.321V5.715q0-.679.384-1.25t1.009-.857l8-3.429Q18.946 0 19.428 0t.893.179l8 3.429q.625.286 1.009.857t.384 1.25v7.143l7.75 3.321q.643.286 1.018.857t.375 1.25z"/></svg>