<svg xmlns="http://www.w3.org/2000/svg" width="32" height="32" viewBox="0 0 32 32"><path d="M6.857 20.571q0-.946-.67-1.616t-1.616-.67-1.616.67-.67 1.616.67 1.616 1.616.67 1.616-.67.67-1.616zm3.429-8q0-.946-.67-1.616T8 10.285t-1.616.67-.67 1.616.67 1.616 1.616.67 1.616-.67.67-1.616zm7.643 8.59l1.804-6.821q.107-.464-.134-.866t-.688-.527-.857.116-.536.705l-1.804 6.821q-1.071.089-1.911.777t-1.125 1.759q-.357 1.375.357 2.607t2.089 1.589 2.607-.357 1.589-2.089q.286-1.071-.107-2.089t-1.286-1.625zm11.785-.59q0-.946-.67-1.616t-1.616-.67-1.616.67-.67 1.616.67 1.616 1.616.67 1.616-.67.67-1.616zM18.286 9.143q0-.946-.67-1.616T16 6.857t-1.616.67-.67 1.616.67 1.616 1.616.67 1.616-.67.67-1.616zm8 3.428q0-.946-.67-1.616T24 10.285t-1.616.67-.67 1.616.67 1.616 1.616.67 1.616-.67.67-1.616zm5.714 8q0 4.661-2.518 8.625-.339.518-.964.518H3.482q-.625 0-.964-.518Q0 25.25 0 20.571q0-3.25 1.268-6.214T4.679 9.25t5.107-3.411T16 4.571t6.214 1.268 5.107 3.411 3.411 5.107T32 20.571z"/></svg>