<svg xmlns="http://www.w3.org/2000/svg" width="32" height="32" viewBox="0 0 32 32"><path d="M13.714 13.714q4.232 0 7.911-.768t5.804-2.268v3.036q0 1.232-1.839 2.286t-5 1.67-6.875.616-6.875-.616-5-1.67-1.839-2.286v-3.036q2.125 1.5 5.804 2.268t7.911.768zm0 13.715q4.232 0 7.911-.768t5.804-2.268v3.036q0 1.232-1.839 2.286t-5 1.67-6.875.616-6.875-.616-5-1.67-1.839-2.286v-3.036q2.125 1.5 5.804 2.268t7.911.768zm0-6.858q4.232 0 7.911-.768t5.804-2.268v3.036q0 1.232-1.839 2.286t-5 1.67-6.875.616-6.875-.616-5-1.67-1.839-2.286v-3.036q2.125 1.5 5.804 2.268t7.911.768zm0-20.571q3.714 0 6.875.616t5 1.67 1.839 2.286v2.286q0 1.232-1.839 2.286t-5 1.67-6.875.616-6.875-.616-5-1.67T0 6.858V4.572Q0 3.34 1.839 2.286t5-1.67T13.714 0z"/></svg>