<svg xmlns="http://www.w3.org/2000/svg" width="34" height="32" viewBox="0 0 34 32"><path d="M32 17.714V2.857q0-.232-.17-.402t-.402-.17H2.857q-.232 0-.402.17t-.17.402v14.857q0 .232.17.402t.402.17h28.571q.232 0 .402-.17t.17-.402zm2.286-14.857v19.429q0 1.179-.839 2.018t-2.018.839h-9.714q0 .661.286 1.384t.571 1.268.286.777q0 .464-.339.804t-.804.339h-9.143q-.464 0-.804-.339t-.339-.804q0-.25.286-.786t.571-1.25.286-1.393H2.858q-1.179 0-2.018-.839t-.839-2.018V2.857q0-1.179.839-2.018T2.858 0h28.571q1.179 0 2.018.839t.839 2.018z"/></svg>