<svg xmlns="http://www.w3.org/2000/svg" width="32" height="32" viewBox="0 0 32 32"><path d="M18.286 16q0 1.893-1.339 3.232t-3.232 1.339-3.232-1.339T9.144 16t1.339-3.232 3.232-1.339 3.232 1.339T18.286 16zm-4.572-9.714q-2.643 0-4.875 1.304t-3.536 3.536-1.304 4.875 1.304 4.875 3.536 3.536 4.875 1.304 4.875-1.304 3.536-3.536 1.304-4.875-1.304-4.875-3.536-3.536-4.875-1.304zM27.429 16q0 3.732-1.839 6.884t-4.991 4.991-6.884 1.839-6.884-1.839-4.991-4.991T.001 16 1.84 9.116t4.991-4.991 6.884-1.839 6.884 1.839 4.991 4.991T27.429 16z"/></svg>