<svg xmlns="http://www.w3.org/2000/svg" width="32" height="32" viewBox="0 0 32 32"><path d="M1.232 14.196h.018q.286-2.25 1.045-4.313t2.054-3.875T7.34 2.865 11.331.767t4.938-.768q4.125 0 7.393 1.884t5.25 5.42q1.857 3.339 1.857 7.893v3.357H10.68q.018 1.982.955 3.438t2.438 2.188 3.384 1.018 3.804.054 3.714-.83 3.098-1.509v6.732q-1.643.982-4.098 1.643t-5.58.679-5.643-.946q-3.375-1.304-5.563-4.446t-2.223-6.643q-.054-4.321 1.982-7.357t5.804-4.786q-.857 1.071-1.393 2.241t-.821 2.848h11.339q.143-1.375-.143-2.5t-.839-1.813-1.259-1.188-1.438-.732-1.339-.366-1-.152l-.393-.018q-2.411.089-4.634.795T6.841 8.769t-3.143 2.509-2.464 2.92z"/></svg>