<svg xmlns="http://www.w3.org/2000/svg" width="32" height="32" viewBox="0 0 32 32"><path d="M22.286 2.286q2.125 0 3.634 1.509t1.509 3.634v17.143q0 2.125-1.509 3.634t-3.634 1.509H5.143q-2.125 0-3.634-1.509T0 24.572V7.429q0-2.125 1.509-3.634t3.634-1.509h17.143zm.571 18.857v-7.786q-.554.625-1.143.982-.607.393-2.366 1.518t-2.705 1.768q-1.75 1.232-2.929 1.232-1.179 0-2.929-1.232-.821-.571-2.527-1.652t-2.545-1.652q-.214-.143-.589-.482t-.554-.482v7.786q0 .714.5 1.214t1.214.5h14.857q.714 0 1.214-.5t.5-1.214zm0-10.232q0-.732-.491-1.25t-1.223-.518H6.286q-.714 0-1.214.5t-.5 1.214q0 .661.545 1.366t1.205 1.152q.839.571 2.455 1.589t2.313 1.482l.304.205q.25.169.375.25t.375.232.42.232.384.17.402.134.366.045.366-.045.402-.134.384-.17.42-.232.375-.232.375-.25.304-.205l4.768-3.107q.625-.411 1.188-1.116t.563-1.313z"/></svg>