<svg xmlns="http://www.w3.org/2000/svg" width="18" height="32" viewBox="0 0 18 32"><path d="M17.429 23.339l.625 2.839q.054.214-.054.402t-.304.259l-.089.018q-.071.036-.188.063t-.286.08-.384.098-.455.089-.536.089-.598.08-.652.054-.688.018q-4.179 0-7.304-2.33t-4.25-6.277H.57q-.232 0-.402-.17t-.17-.402v-2.018q0-.232.17-.402t.402-.17h1.179q-.036-1.018.018-1.875H.571q-.25 0-.411-.161t-.161-.411v-2.036q0-.25.161-.411t.411-.161h1.75q1.196-3.75 4.348-6.036t7.152-2.286q1.821 0 3.464.411.196.054.357.268.107.196.054.429l-.768 2.839q-.054.232-.25.348t-.429.045l-.071-.018q-.071-.018-.205-.045l-.313-.063-.402-.063-.464-.054-.518-.045-.527-.018q-2.25 0-4.036 1.143t-2.679 3.143h8.357q.286 0 .446.214.179.214.125.464l-.429 2.036q-.089.464-.571.464H6.248q-.054.661 0 1.875h8.196q.268 0 .446.214.161.214.107.482l-.429 2q-.036.196-.196.33t-.357.134H7.104q.857 2.089 2.67 3.313t4.08 1.223q.321 0 .643-.027t.598-.063.527-.08.438-.089.33-.08l.214-.054.089-.036q.232-.089.464.036.214.125.268.375z"/></svg>