<svg xmlns="http://www.w3.org/2000/svg" width="32" height="32" viewBox="0 0 32 32"><path d="M32 21.143v3.429q0 .232-.17.402t-.402.17H6.857v3.429q0 .232-.17.402t-.402.17q-.214 0-.429-.179L.16 23.252q-.161-.161-.161-.393 0-.25.161-.411l5.714-5.714q.161-.161.411-.161.232 0 .402.17t.17.402v3.429h24.571q.232 0 .402.17t.17.402zm0-9.714q0 .25-.161.411l-5.714 5.714q-.161.161-.411.161-.232 0-.402-.17t-.17-.402v-3.429H.571q-.232 0-.402-.17t-.17-.402V9.713q0-.232.17-.402t.402-.17h24.571V5.712q0-.25.161-.411t.411-.161q.214 0 .429.179l5.696 5.696q.161.161.161.411z"/></svg>