<svg xmlns="http://www.w3.org/2000/svg" width="32" height="32" viewBox="0 0 32 32"><path d="M13.714 2.286q3.732 0 6.884 1.839t4.991 4.991T27.428 16t-1.839 6.884-4.991 4.991-6.884 1.839-6.884-1.839-4.991-4.991T0 16t1.839-6.884T6.83 4.125t6.884-1.839zM16 24.554v-3.393q0-.25-.161-.42t-.393-.17h-3.429q-.232 0-.411.179t-.179.411v3.393q0 .232.179.411t.411.179h3.429q.232 0 .393-.17t.161-.42zm-.036-6.143l.321-11.089q0-.214-.179-.321-.179-.143-.429-.143h-3.929q-.25 0-.429.143-.179.107-.179.321l.304 11.089q0 .179.179.313t.429.134h3.304q.25 0 .42-.134t.188-.313z"/></svg>