<svg xmlns="http://www.w3.org/2000/svg" width="32" height="32" viewBox="0 0 32 32"><path d="M25.143 16.571v5.714q0 2.125-1.509 3.634T20 27.428H5.143q-2.125 0-3.634-1.509T0 22.285V7.428q0-2.125 1.509-3.634t3.634-1.509h12.571q.25 0 .411.161t.161.411V4q0 .25-.161.411t-.411.161H5.143q-1.179 0-2.018.839t-.839 2.018v14.857q0 1.179.839 2.018t2.018.839H20q1.179 0 2.018-.839t.839-2.018v-5.714q0-.25.161-.411t.411-.161h1.143q.25 0 .411.161t.161.411zM32 1.143v9.143q0 .464-.339.804t-.804.339-.804-.339L26.91 7.947 15.267 19.59q-.179.179-.411.179t-.411-.179l-2.036-2.036q-.179-.179-.179-.411t.179-.411L24.052 5.089l-3.143-3.143q-.339-.339-.339-.804t.339-.804.804-.339h9.143q.464 0 .804.339t.339.804z"/></svg>