<svg xmlns="http://www.w3.org/2000/svg" width="32" height="32" viewBox="0 0 32 32"><path d="M22.857 16.571V8q0-.464-.339-.804t-.804-.339h-8.571q-.75 0-1.054.696-.304.732.25 1.25l2.571 2.571-9.536 9.536q-.339.339-.339.804t.339.804l1.821 1.821q.339.339.804.339t.804-.339l9.536-9.536 2.571 2.571q.321.339.804.339.214 0 .446-.089.696-.304.696-1.054zm4.572-9.142v17.143q0 2.125-1.509 3.634t-3.634 1.509H5.143q-2.125 0-3.634-1.509T0 24.572V7.429q0-2.125 1.509-3.634t3.634-1.509h17.143q2.125 0 3.634 1.509t1.509 3.634z"/></svg>