<svg xmlns="http://www.w3.org/2000/svg" width="32" height="32" viewBox="0 0 32 32"><path d="M9.911 23.839l1.393-2.518q-1.554-1.125-2.429-2.839T8 14.857q0-2.161 1.089-4.018Q5 12.928 2.285 17.143q2.982 4.607 7.625 6.696zm6.946-13.553q0-.357-.25-.607T16 9.429q-2.232 0-3.83 1.598t-1.598 3.83q0 .357.25.607t.607.25.607-.25.25-.607q0-1.536 1.089-2.625T16 11.143q.357 0 .607-.25t.25-.607zm6.482-3.411q0 .125-.018.161-1.875 3.357-5.625 10.107t-5.643 10.125l-.875 1.589q-.179.286-.5.286-.214 0-2.393-1.25-.286-.179-.286-.5 0-.214.786-1.554-2.554-1.161-4.705-3.089T.357 18.375Q0 17.821 0 17.143t.357-1.232q2.732-4.196 6.786-6.625T16 6.857q1.589 0 3.214.304l.964-1.732q.179-.286.5-.286.089 0 .321.107t.554.277.589.33.563.33.348.205q.286.179.286.482zM24 14.857q0 2.482-1.411 4.527t-3.732 2.938l5-8.964q.143.804.143 1.5zm8 2.286q0 .625-.357 1.232-.696 1.143-1.946 2.589-2.679 3.071-6.205 4.768t-7.491 1.696l1.321-2.357q3.786-.321 7.009-2.446t5.384-5.482q-2.054-3.196-5.036-5.25l1.125-2q1.696 1.143 3.259 2.732t2.58 3.286q.357.607.357 1.232z"/></svg>