<svg xmlns="http://www.w3.org/2000/svg" width="32" height="32" viewBox="0 0 32 32"><path d="M30.321 1.679Q32 3.358 32 5.724t-1.679 4.027l-4.018 3.982 1.857 1.857q.179.179.179.411t-.179.411l-3.75 3.75q-.179.179-.411.179t-.411-.179l-1.875-1.875-10.768 10.768q-.661.661-1.607.661H5.713l-4.571 2.286-1.143-1.143 2.286-4.571v-3.625q0-.946.661-1.607l10.768-10.768-1.875-1.875q-.179-.179-.179-.411t.179-.411l3.75-3.75q.179-.179.411-.179t.411.179l1.857 1.857L22.25 1.68Q23.911.001 26.277.001t4.045 1.679zM9.143 26.286L19.429 16 16 12.571 5.714 22.857v3.429h3.429z"/></svg>