<svg xmlns="http://www.w3.org/2000/svg" width="32" height="32" viewBox="0 0 32 32"><path d="M31.196 2.518q.339-.339.571-.232t.232.571v26.286q0 .464-.232.571t-.571-.232L18.517 16.803q-.161-.161-.232-.339v12.679q0 .464-.232.571t-.571-.232L4.803 16.803q-.161-.161-.232-.339v12.107q0 .464-.339.804t-.804.339H1.142q-.464 0-.804-.339t-.339-.804V3.428q0-.464.339-.804t.804-.339h2.286q.464 0 .804.339t.339.804v12.107q.071-.196.232-.339L17.482 2.517q.339-.339.571-.232t.232.571v12.679q.071-.196.232-.339z"/></svg>