<svg xmlns="http://www.w3.org/2000/svg" width="32" height="32" viewBox="0 0 32 32"><path d="M5.143 6.857q1.179 0 2.018.839T8 9.714v19.429q0 1.179-.839 2.018T5.143 32H2.857q-1.179 0-2.018-.839T0 29.143V9.714q0-1.179.839-2.018t2.018-.839h2.286zm24.571 2.911q1.036.607 1.661 1.661T32 13.715v13.714q0 1.893-1.339 3.232T27.429 32H12q-1.179 0-2.018-.839t-.839-2.018V1.714q0-.714.5-1.214t1.214-.5h12q.714 0 1.571.357t1.357.857l2.714 2.714q.5.5.857 1.357t.357 1.571v2.911zM16.571 27.429v-2.286q0-.25-.161-.411t-.411-.161h-2.286q-.25 0-.411.161t-.161.411v2.286q0 .25.161.411t.411.161h2.286q.25 0 .411-.161t.161-.411zm0-4.572v-2.286q0-.25-.161-.411t-.411-.161h-2.286q-.25 0-.411.161t-.161.411v2.286q0 .25.161.411t.411.161h2.286q.25 0 .411-.161t.161-.411zm0-4.571V16q0-.25-.161-.411t-.411-.161h-2.286q-.25 0-.411.161t-.161.411v2.286q0 .25.161.411t.411.161h2.286q.25 0 .411-.161t.161-.411zm4.572 9.143v-2.286q0-.25-.161-.411t-.411-.161h-2.286q-.25 0-.411.161t-.161.411v2.286q0 .25.161.411t.411.161h2.286q.25 0 .411-.161t.161-.411zm0-4.572v-2.286q0-.25-.161-.411t-.411-.161h-2.286q-.25 0-.411.161t-.161.411v2.286q0 .25.161.411t.411.161h2.286q.25 0 .411-.161t.161-.411zm0-4.571V16q0-.25-.161-.411t-.411-.161h-2.286q-.25 0-.411.161t-.161.411v2.286q0 .25.161.411t.411.161h2.286q.25 0 .411-.161t.161-.411zm4.571 9.143v-2.286q0-.25-.161-.411t-.411-.161h-2.286q-.25 0-.411.161t-.161.411v2.286q0 .25.161.411t.411.161h2.286q.25 0 .411-.161t.161-.411zm0-4.572v-2.286q0-.25-.161-.411t-.411-.161h-2.286q-.25 0-.411.161t-.161.411v2.286q0 .25.161.411t.411.161h2.286q.25 0 .411-.161t.161-.411zm0-4.571V16q0-.25-.161-.411t-.411-.161h-2.286q-.25 0-.411.161t-.161.411v2.286q0 .25.161.411t.411.161h2.286q.25 0 .411-.161t.161-.411zm1.715-6.857V6.858h-2.857q-.714 0-1.214-.5t-.5-1.214V2.287H11.429v9.143h16z"/></svg>