<svg xmlns="http://www.w3.org/2000/svg" width="34" height="32" viewBox="0 0 34 32"><path d="M34.286 17.143q-.018.571-5.143 1.714l-6.286.571-4 1.143h-1.143l-5.232 6.286h1.232q.464 0 .804.08t.339.205-.339.205-.804.08H8v-.571h1.143v-7.429H6.286l-3.429 4H1.143l-.571-.571v-3.429h.571v-.571h2.286v-.143L0 18.284v-2.286l3.429-.429v-.143H1.143v-.571H.572v-3.429l.571-.571h1.714l3.429 4h2.857V7.426H8v-.571h5.714q.464 0 .804.08t.339.205-.339.205-.804.08h-1.232l5.232 6.286h1.143l4 1.143 6.286.571q4.661 1.036 5.125 1.661z"/></svg>