<svg xmlns="http://www.w3.org/2000/svg" width="32" height="32" viewBox="0 0 32 32"><path d="M26.214 6.786q.5.5.857 1.357t.357 1.571v20.571q0 .714-.5 1.214t-1.214.5h-24q-.714 0-1.214-.5T0 30.285V1.714Q0 1 .5.5T1.714 0h16q.714 0 1.571.357t1.357.857zm-7.928-4.357v6.714H25q-.179-.518-.393-.732l-5.589-5.589q-.214-.214-.732-.393zm6.857 27.285V11.428h-7.429q-.714 0-1.214-.5T16 9.714V2.285H2.286v27.429h22.857zM7.661 25.536v1.893h5.018v-1.893H11.34l1.839-2.875q.089-.125.179-.295t.134-.241.063-.071h.036q.018.071.089.179.036.071.08.134t.107.143.116.152l1.911 2.875h-1.357v1.893h5.196v-1.893h-1.214l-3.429-4.875 3.482-5.036h1.196v-1.911h-4.982v1.911h1.321l-1.839 2.839q-.071.125-.179.295t-.161.241l-.036.054h-.036q-.018-.071-.089-.179-.107-.196-.304-.411l-1.893-2.839h1.357v-1.911H7.748v1.911h1.214l3.375 4.857-3.464 5.054H7.659z"/></svg>