<svg xmlns="http://www.w3.org/2000/svg" width="32" height="32" viewBox="0 0 32 32"><path d="M26.214 6.786q.5.5.857 1.357t.357 1.571v20.571q0 .714-.5 1.214t-1.214.5h-24q-.714 0-1.214-.5T0 30.285V1.714Q0 1 .5.5T1.714 0h16q.714 0 1.571.357t1.357.857zm-7.928-4.357v6.714H25q-.179-.518-.393-.732l-5.589-5.589q-.214-.214-.732-.393zm6.857 27.285V11.428h-7.429q-.714 0-1.214-.5T16 9.714V2.285H2.286v27.429h22.857zM7.429 25.536v1.893h5.839v-1.893h-1.661v-2.982h2.446q1.357 0 2.107-.268 1.196-.411 1.902-1.554t.705-2.607q0-1.446-.661-2.518t-1.786-1.554q-.857-.339-2.321-.339H7.428v1.911h1.643v9.911H7.428zm6.303-5h-2.125V15.75h2.143q.929 0 1.482.321 1 .589 1 2.054 0 1.589-1.107 2.143-.554.268-1.393.268z"/></svg>