<svg xmlns="http://www.w3.org/2000/svg" width="32" height="32" viewBox="0 0 32 32"><path d="M26.214 6.786q.5.5.857 1.357t.357 1.571v20.571q0 .714-.5 1.214t-1.214.5h-24q-.714 0-1.214-.5T0 30.285V1.714Q0 1 .5.5T1.714 0h16q.714 0 1.571.357t1.357.857zm-7.928-4.357v6.714H25q-.179-.518-.393-.732l-5.589-5.589q-.214-.214-.732-.393zm6.857 27.285V11.428h-7.429q-.714 0-1.214-.5T16 9.714V2.285H2.286v27.429h22.857zm-20.982-16v1.911h1.25L8.34 27.429h2.839l2.286-8.661q.125-.357.179-.821.036-.286.036-.429h.071l.054.429q.018.054.063.357t.098.464l2.286 8.661h2.839l2.929-11.804h1.25v-1.911h-5.357v1.911h1.607l-1.768 7.821q-.089.357-.125.821l-.036.375h-.071l-.054-.375q-.018-.089-.071-.375t-.089-.446l-2.571-9.732h-2.036l-2.571 9.732q-.036.161-.08.438t-.063.384l-.071.375h-.071l-.036-.375q-.036-.464-.125-.821l-1.768-7.821h1.607v-1.911H4.164z"/></svg>