<svg xmlns="http://www.w3.org/2000/svg" width="32" height="32" viewBox="0 0 32 32"><path d="M11.429 6.857V4.571H9.143v2.286h2.286zm2.285 2.286V6.857h-2.286v2.286h2.286zm-2.285 2.286V9.143H9.143v2.286h2.286zm2.285 2.285v-2.286h-2.286v2.286h2.286zm12.5-6.928q.5.5.857 1.357t.357 1.571v20.571q0 .714-.5 1.214t-1.214.5h-24q-.714 0-1.214-.5T0 30.285V1.714Q0 1 .5.5T1.714 0h16q.714 0 1.571.357t1.357.857zm-7.928-4.357v6.714H25q-.179-.518-.393-.732l-5.589-5.589q-.214-.214-.732-.393zm6.857 27.285V11.428h-7.429q-.714 0-1.214-.5T16 9.714V2.285h-2.286v2.286h-2.286V2.285H2.285v27.429h22.857zM13.946 16.839l1.911 6.232Q16 23.553 16 24q0 1.482-1.295 2.455t-3.277.973-3.277-.973T6.856 24q0-.446.143-.929.375-1.125 2.143-7.071v-2.286h2.286V16h1.411q.393 0 .696.232t.411.607zm-2.517 8.304q.946 0 1.616-.339t.67-.804-.67-.804-1.616-.339-1.616.339-.67.804.67.804 1.616.339z"/></svg>