<svg xmlns="http://www.w3.org/2000/svg" width="32" height="32" viewBox="0 0 32 32"><path d="M26.214 8.5q.25.25.5.643h-8.429V.714q.393.25.643.5zm-8.5 2.929h9.714v18.857q0 .714-.5 1.214t-1.214.5h-24Q1 32 .5 31.5T0 30.286V1.715Q0 1.001.5.501t1.214-.5H16v9.714q0 .714.5 1.214t1.214.5zm2.857 13.142v-1.143q0-.25-.161-.411t-.411-.161H7.428q-.25 0-.411.161t-.161.411v1.143q0 .25.161.411t.411.161h12.571q.25 0 .411-.161t.161-.411zm0-4.571v-1.143q0-.25-.161-.411t-.411-.161H7.428q-.25 0-.411.161t-.161.411V20q0 .25.161.411t.411.161h12.571q.25 0 .411-.161t.161-.411zm0-4.571v-1.143q0-.25-.161-.411t-.411-.161H7.428q-.25 0-.411.161t-.161.411v1.143q0 .25.161.411t.411.161h12.571q.25 0 .411-.161t.161-.411z"/></svg>