<svg xmlns="http://www.w3.org/2000/svg" width="32" height="32" viewBox="0 0 32 32"><path d="M26.214 6.786q.5.5.857 1.357t.357 1.571v20.571q0 .714-.5 1.214t-1.214.5h-24q-.714 0-1.214-.5T0 30.285V1.714Q0 1 .5.5T1.714 0h16q.714 0 1.571.357t1.357.857zm-7.928-4.357v6.714H25q-.179-.518-.393-.732l-5.589-5.589q-.214-.214-.732-.393zm6.857 27.285V11.428h-7.429q-.714 0-1.214-.5T16 9.714V2.285H2.286v27.429h22.857zm-9.179-10.589q.589.464 1.5 1Q18.518 20 19.553 20q2.625 0 3.161.875.286.393.036.929 0 .018-.018.036l-.036.036v.018q-.107.679-1.268.679-.857 0-2.054-.357t-2.321-.946q-3.946.429-7 1.482-2.732 4.679-4.321 4.679-.268 0-.5-.125l-.429-.214q-.018-.018-.107-.089-.179-.179-.107-.643.161-.714 1-1.634t2.357-1.723q.25-.161.411.107.036.036.036.071.929-1.518 1.911-3.518 1.214-2.429 1.857-4.679-.429-1.464-.545-2.848t.116-2.277q.196-.714.75-.714h.393q.411 0 .625.268.321.375.161 1.214-.036.107-.071.143.018.054.018.143v.536q-.036 2.196-.25 3.429.982 2.929 2.607 4.25zM5.679 26.464q.929-.429 2.446-2.821-.911.714-1.563 1.5t-.884 1.321zm7.107-16.428q-.268.75-.036 2.357.018-.125.125-.786 0-.054.125-.768.018-.071.071-.143-.018-.018-.018-.036t-.009-.027-.009-.027q-.018-.393-.232-.643 0 .018-.018.036v.036zm-2.215 11.803q2.411-.964 5.071-1.446-.036-.018-.232-.17t-.286-.241q-1.357-1.196-2.268-3.143-.482 1.536-1.482 3.518-.536 1-.804 1.482zm11.536-.285q-.429-.429-2.5-.429 1.357.5 2.214.5.25 0 .321-.018 0-.018-.036-.054z"/></svg>