<svg xmlns="http://www.w3.org/2000/svg" width="32" height="32" viewBox="0 0 32 32"><path d="M26.214 6.786q.5.5.857 1.357t.357 1.571v20.571q0 .714-.5 1.214t-1.214.5h-24q-.714 0-1.214-.5T0 30.285V1.714Q0 1 .5.5T1.714 0h16q.714 0 1.571.357t1.357.857zm-7.928-4.357v6.714H25q-.179-.518-.393-.732l-5.589-5.589q-.214-.214-.732-.393zm6.857 27.285V11.428h-7.429q-.714 0-1.214-.5T16 9.714V2.285H2.286v27.429h22.857zm-11.429-16q.929 0 1.607.679T16 16v6.857q0 .929-.679 1.607t-1.607.679H6.857q-.929 0-1.607-.679t-.679-1.607V16q0-.929.679-1.607t1.607-.679h6.857zm8.786.036q.357.143.357.536v10.286q0 .393-.357.536-.143.036-.214.036-.25 0-.411-.161l-4.732-4.75v-1.607l4.732-4.75q.161-.161.411-.161.071 0 .214.036z"/></svg>