<svg xmlns="http://www.w3.org/2000/svg" width="25" height="32" viewBox="0 0 25 32"><path d="M25.143 30.286v1.143q0 .232-.17.402t-.402.17h-24q-.232 0-.402-.17t-.17-.402v-1.143q0-.232.17-.402t.402-.17h24q.232 0 .402.17t.17.402zm-4.572-18.857q0 1.393-.438 2.571t-1.143 2.009-1.563 1.571-1.714 1.384-1.563 1.286-1.143 1.455-.438 1.723q0 1.714 1.196 4l-.071-.018.018.018q-1.607-.732-2.857-1.482T8.382 24.16t-2.027-2.188-1.295-2.688-.491-3.286q0-1.393.438-2.571t1.143-2.009 1.563-1.571 1.714-1.384 1.563-1.286 1.143-1.455.438-1.723q0-1.679-1.179-4l.054.018-.018-.018q1.607.732 2.857 1.482t2.473 1.786 2.027 2.188 1.295 2.688.491 3.286z"/></svg>