<svg xmlns="http://www.w3.org/2000/svg" width="25" height="32" viewBox="0 0 25 32"><path d="M9.143 3.429q0-.464-.339-.804T8 2.286t-.804.339-.339.804.339.804.804.339.804-.339.339-.804zm16-.572v5.714q0 .286-.214.446-.143.125-.357.125-.071 0-.125-.018l-8-1.714q-.196-.036-.321-.196t-.125-.357H11.43v1.821q1.982.411 3.277 1.982t1.295 3.625v14.286q0 .464-.339.804t-.804.339H5.716q-.464 0-.804-.339t-.339-.804V14.285q0-1.893 1.116-3.402t2.884-2.045V6.856h-.571q-1.054 0-2.054.42t-1.634.946T3.135 9.41t-.723.955-.25.438q-.304.625-1.018.625-.286 0-.518-.125-.411-.214-.563-.661t.063-.875q.089-.179.259-.464t.67-.955 1.08-1.25 1.518-1.196 1.938-.938q-.446-.75-.446-1.536 0-1.179.839-2.018T8.002.571t2.018.839.839 2.018q0 .589-.25 1.143h5.393q0-.196.125-.357t.321-.196l8-1.714q.054-.018.125-.018.214 0 .357.125.214.161.214.446z"/></svg>