<svg xmlns="http://www.w3.org/2000/svg" width="32" height="32" viewBox="0 0 32 32"><path d="M16.125 32q-5.054 0-9.009-2.688t-5.884-7.116Q.196 19.857.036 16.821T.5 10.883t1.982-5.571T5.678.982L5.482 6q.196-.25 1.214-.277T7.946 6q.75-1.446 2.866-2.464T15 2.482q-.964.804-2.134 2.652t-1.045 2.92q.446.143 1.116.241t1.125.134 1.214.071.902.054q.268.089.17.813t-.545 1.348q-.089.125-.295.33t-1.009.634-1.804.607l.268 3.375-2.482-1.196q-.321.768-.134 1.455t.643 1.188 1.17.741 1.446.116q.911-.161 1.75-.616t1.491-.804 1.313-.313q1.089.071 1.598.589t.348 1.161q-.018.036-.045.098t-.152.223-.321.277-.563.188-.83.018q-1.071 1.696-2.58 2.42t-3.741.527q1.321 1.089 2.902 1.473t3.009.107 2.759-.929 2.286-1.563 1.438-1.857q.768-1.625.696-3.438t-.67-3.366-1.402-2.232q1.554.679 2.446 1.42t1.375 2.009q.268-3.036-1.027-6.125t-3.741-5.071q4.732 1.375 7.357 4.991t2.696 9.241q.036 2.268-.723 4.554t-2.205 4.25-3.375 3.5-4.42 2.42-5.152.884z"/></svg>