<svg xmlns="http://www.w3.org/2000/svg" width="32" height="32" viewBox="0 0 32 32"><path d="M29.714 18.661v-11q-3.018 1.625-5.464 1.625-1.464 0-2.589-.571-1.786-.875-3.286-1.366t-3.179-.491q-3.089 0-7.196 2.268v10.696q4.375-2.018 7.732-2.018.982 0 1.848.134t1.75.464 1.375.554 1.473.705l.5.25q.786.393 1.804.393 2.143 0 5.232-1.643zm-24-14.09q0 .625-.313 1.143t-.83.821v22.607q0 .25-.161.411t-.411.161H2.856q-.25 0-.411-.161t-.161-.411V6.535q-.518-.304-.83-.821t-.313-1.143q0-.946.67-1.616t1.616-.67 1.616.67.67 1.616zM32 5.714v13.625q0 .696-.625 1.018-.179.089-.304.161-3.893 2.071-6.589 2.071-1.571 0-2.821-.625l-.5-.25q-1.143-.589-1.768-.857t-1.625-.518-2.036-.25q-1.821 0-4.205.786t-4.08 1.821q-.268.161-.589.161-.286 0-.571-.143-.571-.339-.571-1V8.464q0-.625.554-.982.625-.375 1.402-.759t2.036-.929 2.723-.884 2.768-.339q2 0 3.732.554t3.732 1.536Q23.342 7 24.252 7q2.179 0 5.536-2 .393-.214.554-.304.554-.286 1.107.036.554.357.554.982z"/></svg>