<svg xmlns="http://www.w3.org/2000/svg" width="32" height="32" viewBox="0 0 32 32"><path d="M14.857 17.857v-3.429q-3.232.286-6.857 2.089v3.304q3.661-1.714 6.857-1.964zm0-7.464V6.875Q11.786 7.018 8 9.125V12.5q3.839-1.982 6.857-2.107zm14.857 8.268v-3.286q-4.196 2.071-6.857 1.268v-4q-.357-.107-.696-.268-.089-.054-.589-.304t-.616-.304-.563-.268-.616-.277-.58-.232-.643-.223-.625-.152-.705-.134-.705-.071-.786-.036q-.411 0-.875.054v3.964h.339q1.821 0 3.438.518t3.527 1.464q.339.161.696.268v3.357q.75.304 1.625.304 2.143 0 5.232-1.643zm0-7.625V7.661q-3.018 1.625-5.464 1.625-.804 0-1.393-.143v3.5q2.643.75 6.857-1.607zm-24-6.465q0 .625-.313 1.143t-.83.821v22.607q0 .25-.161.411t-.411.161H2.856q-.25 0-.411-.161t-.161-.411V6.535q-.518-.304-.83-.821t-.313-1.143q0-.946.67-1.616t1.616-.67 1.616.67.67 1.616zM32 5.714v13.625q0 .696-.625 1.018-.179.089-.304.161-3.893 2.071-6.589 2.071-1.571 0-2.821-.625l-.5-.25q-1.143-.589-1.768-.857t-1.625-.518-2.036-.25q-1.821 0-4.205.786t-4.08 1.821q-.268.161-.589.161-.286 0-.571-.143-.571-.339-.571-1V8.464q0-.625.554-.982.625-.375 1.402-.759t2.036-.929 2.723-.884 2.768-.339q2 0 3.732.554t3.732 1.536Q23.342 7 24.252 7q2.179 0 5.536-2 .393-.214.554-.304.554-.286 1.107.036.554.357.554.982z"/></svg>