<svg xmlns="http://www.w3.org/2000/svg" width="34" height="32" viewBox="0 0 34 32"><path d="M31.804 16.625q0-.625-.946-.625H11.429q-.714 0-1.527.384t-1.277.938l-5.25 6.482q-.321.429-.321.714 0 .625.946.625h19.429q.714 0 1.536-.393t1.268-.946l5.25-6.482q.321-.393.321-.696zm-20.375-2.911h13.714v-2.857q0-.714-.5-1.214t-1.214-.5H13.143q-.714 0-1.214-.5t-.5-1.214V6.286q0-.714-.5-1.214t-1.214-.5H4.001q-.714 0-1.214.5t-.5 1.214v15.232l4.571-5.625q.786-.946 2.071-1.563t2.5-.616zm22.66 2.911q0 1.107-.821 2.143L28 25.25q-.768.946-2.071 1.563t-2.5.616H4q-1.643 0-2.821-1.179T0 23.429V6.286q0-1.643 1.179-2.821T4 2.286h5.714q1.643 0 2.821 1.179t1.179 2.821v.571h9.714q1.643 0 2.821 1.179t1.179 2.821v2.857h3.429q.964 0 1.768.438t1.196 1.259q.268.571.268 1.214z"/></svg>