<svg xmlns="http://www.w3.org/2000/svg" width="30" height="32" viewBox="0 0 30 32"><path d="M27.429 23.429V10.858q0-.714-.5-1.214t-1.214-.5H13.144q-.714 0-1.214-.5t-.5-1.214V6.287q0-.714-.5-1.214t-1.214-.5H4.002q-.714 0-1.214.5t-.5 1.214V23.43q0 .714.5 1.214t1.214.5h21.714q.714 0 1.214-.5t.5-1.214zm2.285-12.572v12.571q0 1.643-1.179 2.821t-2.821 1.179H4q-1.643 0-2.821-1.179T0 23.428V6.285q0-1.643 1.179-2.821T4 2.285h5.714q1.643 0 2.821 1.179t1.179 2.821v.571h12q1.643 0 2.821 1.179t1.179 2.821z"/></svg>