<svg xmlns="http://www.w3.org/2000/svg" width="34" height="32" viewBox="0 0 34 32"><path d="M33.554 17q0 .554-.554 1.179l-6 7.071q-.768.911-2.152 1.545t-2.563.634H2.856q-.607 0-1.08-.232t-.473-.768q0-.554.554-1.179l6-7.071q.768-.911 2.152-1.545T12.572 16h19.429q.607 0 1.08.232t.473.768zm-6.125-6.143v2.857H12.572q-1.679 0-3.518.848t-2.929 2.134L.018 23.875q0-.071-.009-.223T0 23.429V6.286q0-1.643 1.179-2.821T4 2.286h5.714q1.643 0 2.821 1.179t1.179 2.821v.571h9.714q1.643 0 2.821 1.179t1.179 2.821z"/></svg>