<svg xmlns="http://www.w3.org/2000/svg" width="30" height="32" viewBox="0 0 30 32"><path d="M12.946 9.982L9.91 18.018q.589 0 2.438.036t2.866.036q.339 0 1.018-.036-1.554-4.518-3.286-8.071zM0 29.714l.036-1.411q.411-.125 1-.223t1.018-.188.884-.259.795-.518.554-.902l4.232-11 5-12.929h2.286q.143.25.196.375l3.661 8.571q.589 1.393 1.893 4.598t2.036 4.902q.268.607 1.036 2.58t1.286 3.009q.357.804.625 1.018.339.268 1.571.527t1.5.366q.107.679.107 1.018 0 .071-.009.232t-.009.232q-1.125 0-3.393-.143t-3.411-.143q-1.357 0-3.839.125t-3.179.143q0-.768.071-1.393l2.339-.5q.018 0 .223-.045t.277-.063.259-.08.268-.116.196-.143.161-.196.045-.25q0-.286-.554-1.723t-1.286-3.17-.75-1.786l-8.036-.036q-.464 1.036-1.366 3.491t-.902 2.902q0 .393.25.67t.777.438.866.241 1.018.152.732.071q.018.339.018 1.036 0 .161-.036.482-1.036 0-3.116-.179t-3.116-.179q-.143 0-.473.071t-.384.071q-1.429.25-3.357.25z"/></svg>