<svg xmlns="http://www.w3.org/2000/svg" width="32" height="32" viewBox="0 0 32 32"><path d="M20.25 21.946q.143.446-.071.866t-.661.563-.875-.071-.571-.679q-.446-1.429-1.652-2.313t-2.705-.884-2.705.884-1.652 2.313q-.143.464-.563.679t-.866.071q-.464-.143-.679-.563t-.071-.866q.661-2.161 2.464-3.482t4.071-1.321 4.071 1.321 2.464 3.482zm-8.821-10.517q0 .946-.67 1.616t-1.616.67-1.616-.67-.67-1.616.67-1.616 1.616-.67 1.616.67.67 1.616zm9.142 0q0 .946-.67 1.616t-1.616.67-1.616-.67-.67-1.616.67-1.616 1.616-.67 1.616.67.67 1.616zM25.143 16q0-2.321-.911-4.438t-2.438-3.643-3.643-2.438-4.438-.911-4.438.911-3.643 2.438-2.438 3.643T2.283 16t.911 4.438 2.438 3.643 3.643 2.438 4.438.911 4.438-.911 3.643-2.438 2.438-3.643.911-4.438zm2.286 0q0 3.732-1.839 6.884t-4.991 4.991-6.884 1.839-6.884-1.839-4.991-4.991T.001 16 1.84 9.116t4.991-4.991 6.884-1.839 6.884 1.839 4.991 4.991T27.429 16z"/></svg>