<svg xmlns="http://www.w3.org/2000/svg" width="34" height="32" viewBox="0 0 34 32"><path d="M14.857 19.429v-2.286q0-.25-.161-.411t-.411-.161h-3.429v-3.429q0-.25-.161-.411t-.411-.161H7.998q-.25 0-.411.161t-.161.411v3.429H3.997q-.25 0-.411.161t-.161.411v2.286q0 .25.161.411t.411.161h3.429v3.429q0 .25.161.411t.411.161h2.286q.25 0 .411-.161t.161-.411v-3.429h3.429q.25 0 .411-.161t.161-.411zm10.286 1.142q0-.946-.67-1.616t-1.616-.67-1.616.67-.67 1.616.67 1.616 1.616.67 1.616-.67.67-1.616zM29.714 16q0-.946-.67-1.616t-1.616-.67-1.616.67-.67 1.616.67 1.616 1.616.67 1.616-.67.67-1.616zm4.572 2.286q0 3.786-2.679 6.464t-6.464 2.679q-3.429 0-6.036-2.286h-3.929q-2.607 2.286-6.036 2.286-3.786 0-6.464-2.679t-2.679-6.464 2.679-6.464 6.464-2.679h16q3.786 0 6.464 2.679t2.679 6.464z"/></svg>