<svg xmlns="http://www.w3.org/2000/svg" width="18" height="32" viewBox="0 0 18 32"><path d="M18.214 20.304v6.554q0 .25-.161.411t-.411.161H.571q-.25 0-.411-.161t-.161-.411v-2.679q0-.232.17-.402t.402-.17h1.732v-6.839H.607q-.25 0-.411-.17t-.161-.402v-2.339q0-.25.161-.411t.411-.161h1.696V9.303q0-3.054 2.205-5.036t5.616-1.982q3.304 0 5.982 2.232.161.143.179.366t-.125.402l-1.839 2.268q-.161.196-.393.214-.232.036-.411-.125-.089-.089-.464-.339t-1.232-.571-1.661-.321q-1.518 0-2.446.839t-.929 2.196v3.839h5.446q.232 0 .402.161t.17.411v2.339q0 .232-.17.402t-.402.17H6.785v6.768h7.393v-3.232q0-.232.161-.402t.411-.17h2.893q.25 0 .411.17t.161.402z"/></svg>