<svg xmlns="http://www.w3.org/2000/svg" width="34" height="32" viewBox="0 0 34 32"><path d="M16 16q0-1.893-1.339-3.232t-3.232-1.339-3.232 1.339T6.858 16t1.339 3.232 3.232 1.339 3.232-1.339T16 16zm13.714 9.143q0-.929-.679-1.607t-1.607-.679-1.607.679-.679 1.607q0 .946.67 1.616t1.616.67 1.616-.67.67-1.616zm0-18.286q0-.929-.679-1.607t-1.607-.679-1.607.679-.679 1.607q0 .946.67 1.616t1.616.67 1.616-.67.67-1.616zm-6.857 7.518v3.304q0 .179-.125.348t-.286.188l-2.768.429q-.196.625-.571 1.357.607.857 1.607 2.054.125.179.125.357 0 .214-.125.339-.411.536-1.473 1.598t-1.402 1.063q-.196 0-.375-.125L15.41 23.68q-.661.339-1.375.554-.196 1.929-.411 2.768-.125.429-.536.429H9.767q-.196 0-.357-.134t-.179-.313l-.411-2.732q-.607-.179-1.339-.554l-2.107 1.589q-.125.125-.357.125-.196 0-.375-.143-2.571-2.375-2.571-2.857 0-.161.125-.339.179-.25.732-.946t.839-1.089q-.411-.786-.625-1.464l-2.714-.429q-.179-.018-.304-.17t-.125-.348v-3.304q0-.179.125-.348t.286-.188l2.768-.429q.196-.625.571-1.357-.607-.857-1.607-2.054-.125-.196-.125-.357 0-.214.125-.357.393-.536 1.464-1.589T5.017 6.59q.196 0 .375.125l2.054 1.607q.607-.321 1.375-.571.196-1.929.411-2.75.125-.429.536-.429h3.321q.196 0 .357.134t.179.313l.411 2.732q.607.179 1.339.554l2.107-1.589q.143-.125.357-.125.196 0 .375.143 2.571 2.375 2.571 2.857 0 .161-.125.339-.214.286-.75.964t-.804 1.071q.411.857.607 1.464l2.714.411q.179.036.304.188t.125.348zm11.429 9.518v2.5q0 .286-2.661.554-.214.482-.536.929Q32 29.894 32 30.34q0 .071-.071.125-2.179 1.268-2.214 1.268-.143 0-.821-.839t-.929-1.214q-.357.036-.536.036t-.536-.036q-.25.375-.929 1.214t-.821.839q-.036 0-2.214-1.268-.071-.054-.071-.125 0-.446.911-2.464-.321-.446-.536-.929-2.661-.268-2.661-.554v-2.5q0-.286 2.661-.554.232-.518.536-.929-.911-2.018-.911-2.464 0-.071.071-.125.071-.036.625-.357t1.054-.607.536-.286q.143 0 .821.83t.929 1.205q.357-.036.536-.036t.536.036q.911-1.268 1.643-2l.107-.036q.071 0 2.214 1.25.071.054.071.125 0 .446-.911 2.464.304.411.536.929 2.661.268 2.661.554zm0-18.286v2.5q0 .286-2.661.554-.214.482-.536.929.911 2.018.911 2.464 0 .071-.071.125-2.179 1.268-2.214 1.268-.143 0-.821-.839t-.929-1.214q-.357.036-.536.036t-.536-.036q-.25.375-.929 1.214t-.821.839q-.036 0-2.214-1.268-.071-.054-.071-.125 0-.446.911-2.464-.321-.446-.536-.929-2.661-.268-2.661-.554v-2.5q0-.286 2.661-.554.232-.518.536-.929-.911-2.018-.911-2.464 0-.071.071-.125.071-.036.625-.357t1.054-.607.536-.286q.143 0 .821.83t.929 1.205q.357-.036.536-.036t.536.036q.911-1.268 1.643-2l.107-.036q.071 0 2.214 1.25.071.054.071.125 0 .446-.911 2.464.304.411.536.929 2.661.268 2.661.554z"/></svg>