<svg xmlns="http://www.w3.org/2000/svg" width="32" height="32" viewBox="0 0 32 32"><path d="M12.804 24.179l4.839-4.839-4.982-4.982-1.571 1.571 3.429 3.411-1.714 1.714-4.982-4.982 4.982-4.982.714.714 1.554-1.554-2.268-2.286-8.107 8.107zm6.392-.143l8.107-8.107-8.107-8.107-4.839 4.839 4.982 4.982 1.571-1.571-3.429-3.411 1.714-1.714 4.982 4.982-4.982 4.982-.714-.714-1.554 1.571zM32 16q0 3.25-1.268 6.214t-3.411 5.107-5.107 3.411T16 32t-6.214-1.268-5.107-3.411-3.411-5.107T0 16t1.268-6.214 3.411-5.107 5.107-3.411T16 0t6.214 1.268 5.107 3.411 3.411 5.107T32 16z"/></svg>