<svg xmlns="http://www.w3.org/2000/svg" width="32" height="32" viewBox="0 0 32 32"><path d="M16.571 24.214V11.428h-5.714v12.786q0 .446.321.688t.821.241h3.429q.5 0 .821-.241t.321-.688zM8.429 9.143h3.482l-2.25-2.875q-.464-.554-1.232-.554-.714 0-1.214.5t-.5 1.214.5 1.214 1.214.5zm12.285-1.714q0-.714-.5-1.214T19 5.715q-.768 0-1.232.554l-2.232 2.875H19q.714 0 1.214-.5t.5-1.214zM27.429 12v5.714q0 .25-.161.411t-.411.161h-1.714v7.429q0 .714-.5 1.214t-1.214.5H4q-.714 0-1.214-.5t-.5-1.214v-7.429H.572q-.25 0-.411-.161T0 17.714V12q0-.25.161-.411t.411-.161h7.857q-1.661 0-2.83-1.17t-1.17-2.83 1.17-2.83 2.83-1.17q1.911 0 3 1.375l2.286 2.946 2.286-2.946q1.089-1.375 3-1.375 1.661 0 2.83 1.17t1.17 2.83-1.17 2.83-2.83 1.17h7.857q.25 0 .411.161t.161.411z"/></svg>