<svg xmlns="http://www.w3.org/2000/svg" width="32" height="32" viewBox="0 0 32 32"><path d="M13.714 2.286q3.732 0 6.884 1.839t4.991 4.991T27.428 16t-1.839 6.884-4.991 4.991-6.884 1.839-6.884-1.839-4.991-4.991T0 16t1.839-6.884T6.83 4.125t6.884-1.839zm4.893 9.303q-.036.018-.17.17t-.241.17q.036 0 .08-.089t.089-.196.063-.125q.107-.125.393-.268.25-.107.929-.214.607-.143.911.196-.036-.036.17-.232t.259-.214q.054-.036.268-.08t.268-.134l.036-.393q-.214.018-.313-.125t-.116-.375q0 .036-.107.143 0-.125-.08-.143t-.205.018-.161.018q-.179-.054-.268-.134t-.143-.295-.071-.268q-.036-.089-.17-.188t-.17-.188q-.018-.036-.045-.098t-.054-.116-.071-.098-.098-.045-.125.089-.134.179-.08.089q-.054-.036-.107-.027t-.08.018-.08.054-.089.063q-.054.036-.152.054t-.152.036q.268-.089-.018-.196-.179-.071-.286-.054.161-.071.134-.214t-.152-.25h.089q-.018-.071-.152-.152t-.313-.152-.232-.107q-.143-.089-.607-.17t-.589-.009q-.089.107-.08.188t.071.25.063.223q.018.107-.098.232t-.116.214q0 .125.25.277t.179.384q-.054.143-.286.286t-.286.214q-.089.143-.027.33t.188.295q.036.036.027.071t-.063.08-.098.071-.116.063l-.054.036q-.196.089-.366-.107t-.241-.464q-.125-.446-.286-.536-.411-.143-.518.018-.089-.232-.732-.464-.446-.161-1.036-.071.107-.018 0-.268-.125-.268-.339-.214.054-.107.071-.313t.018-.241q.054-.232.214-.411.018-.018.125-.152t.17-.241.009-.107q.625.071.893-.196.089-.089.205-.304t.188-.304q.161-.107.25-.098t.259.098.259.089q.25.018.277-.196t-.134-.357q.214.018.054-.304-.089-.125-.143-.161-.214-.071-.482.089-.143.071.036.143-.018-.018-.17.188t-.295.313-.286-.089q-.018-.018-.098-.241t-.17-.241q-.143 0-.286.268.054-.143-.196-.268t-.429-.143q.339-.214-.143-.482-.125-.071-.366-.089t-.348.071q-.089.125-.098.205t.089.143.188.098.205.071.152.054q.25.179.143.25-.036.018-.152.063t-.205.08-.107.071q-.054.071 0 .25t-.036.25q-.089-.089-.161-.313t-.125-.295q.125.161-.446.107l-.179-.018q-.071 0-.286.036t-.366.018-.241-.143q-.071-.143 0-.357.018-.071.071-.036-.071-.054-.196-.17t-.179-.152q-.821.268-1.679.732.107.018.214-.018.089-.036.232-.116T9 5.678q.607-.25.75-.125l.089-.089q.25.286.357.446-.125-.071-.536-.018-.357.107-.393.214.125.214.089.321-.071-.054-.205-.179t-.259-.196-.268-.089q-.286 0-.393.018Q5.624 7.41 4.035 9.945q.125.125.214.143.071.018.089.161t.045.196.205-.054q.161.143.054.339.018-.018.786.482.339.304.375.375.054.196-.179.321-.018-.036-.161-.161t-.161-.071q-.054.089.009.33t.188.223q-.125 0-.17.286t-.045.634-.018.42l.036.018q-.054.214.098.616t.384.348q-.232.054.357.768.107.143.143.161.054.036.214.134t.268.179.179.188q.071.089.179.402t.25.42q-.036.107.17.357t.188.411q-.018 0-.045.018t-.045.018q.054.125.277.25t.277.232q.018.054.036.179t.054.196.143.036q.036-.357-.429-1.107-.268-.446-.304-.518-.054-.089-.098-.277t-.08-.259q.036 0 .107.027t.152.063.134.071.036.054q-.054.125.036.313t.214.33.304.339.214.232q.107.107.25.348t0 .241q.161 0 .357.179t.304.357q.089.143.143.464t.089.429q.036.125.152.241t.223.17l.286.143.232.125q.089.036.33.188t.384.205q.179.071.286.071t.259-.045.241-.063q.268-.036.518.268t.375.375q.643.339.982.196-.036.018.009.134t.143.277.161.259.098.152q.089.107.321.268t.321.268q.107-.071.125-.161-.054.143.125.357t.321.179q.25-.054.25-.571-.554.268-.875-.321 0-.018-.045-.098t-.071-.152-.045-.152 0-.134.089-.054q.161 0 .179-.063t-.036-.223-.071-.232q-.018-.143-.196-.357t-.214-.268q-.089.161-.286.143t-.286-.161q0 .018-.027.098t-.027.116q-.232 0-.268-.018.018-.054.045-.313t.063-.402q.018-.071.098-.214t.134-.259.071-.223-.08-.17-.313-.045q-.339.018-.464.357-.018.054-.054.188t-.089.205-.161.125q-.125.054-.429.036t-.429-.089q-.232-.143-.402-.518t-.17-.661q0-.179.045-.473t.054-.446-.098-.438q.054-.036.161-.17t.179-.188q.036-.018.08-.027t.08 0 .071-.027.054-.107q-.018-.018-.071-.054-.054-.054-.071-.054.125.054.509-.027t.491.027q.268.196.393-.036 0-.018-.045-.17t-.009-.241q.089.482.518.161.054.054.277.089t.313.089q.054.036.125.098t.098.08.089-.009.152-.116q.179.25.214.429.196.714.339.786.125.054.196.036t.08-.17 0-.25-.027-.223l-.018-.143v-.321l-.018-.143q-.268-.054-.33-.214t.027-.33.268-.33q.018-.018.143-.063t.277-.116.223-.143q.375-.339.268-.625.125 0 .196-.161-.018 0-.089-.054t-.134-.089-.08-.036q.161-.089.036-.286.089-.054.134-.196t.134-.179q.161.214.375.036.125-.143.018-.286.089-.125.366-.188t.33-.17q.125.036.143-.036t.018-.214.054-.214q.071-.089.268-.161t.232-.089l.304-.196q.054-.071 0-.071.321.036.554-.196.179-.196-.107-.357.054-.107-.054-.17t-.268-.098q.054-.018.205-.009t.188-.027q.268-.179-.125-.286-.304-.089-.768.214zM15.696 27.25q3.679-.643 6.268-3.375-.054-.054-.223-.08t-.223-.063q-.321-.125-.429-.143.018-.125-.045-.232t-.143-.161-.223-.143-.196-.125q-.036-.036-.125-.107t-.125-.098-.134-.08-.152-.036-.179.018l-.054.018q-.054.018-.098.045t-.098.054-.071.054 0 .045q-.375-.304-.643-.393-.089-.018-.196-.098t-.188-.125-.179-.027-.205.125q-.089.089-.107.268t-.036.232q-.125-.089 0-.313t.036-.33q-.054-.107-.188-.08t-.214.08-.205.152-.161.116-.152.098-.152.134q-.054.071-.107.214t-.089.196q-.036-.071-.205-.116t-.17-.098q.036.179.071.625t.089.679q.125.554-.214.857-.482.446-.518.714-.071.393.214.464 0 .125-.143.366t-.125.384q0 .107.036.286z"/></svg>