<svg xmlns="http://www.w3.org/2000/svg" width="32" height="32" viewBox="0 0 32 32"><path d="M10.75 10.482q.339 1.089.554 2.205t.304 2.527-.25 2.839-1.107 2.589q-.375-1.446-1.196-2.804T7.35 15.57t-1.768-1.616-1.402-1.027-.589-.339q-1.107-.607-1.455-1.786t.259-2.286 1.804-1.455 2.304.259q2.464 1.482 4.25 3.161zm5.804-5.125q.196.446.366.821t.652 1.795.759 2.688.455 3.205 0 3.67-.848 3.741T16.054 25q-.911 1.286-2.464 1.286-.964 0-1.75-.554-1.018-.714-1.232-1.946t.5-2.268q1.071-1.518 1.446-3.482t.232-3.563-.571-3.223-.696-2.286-.393-.929q-.554-1.125-.152-2.313t1.527-1.741q.607-.304 1.339-.304.839 0 1.58.446t1.134 1.232zm5.732 11.947q-.304 2.857-1.286 5.554-.304-2.339-1.125-4.393.446-3.107-.089-6.446-.482-3.179-1.679-6.107 2.036 1.607 3.786 3.768.161.661.268 1.429.464 3.196.125 6.196zm4.857-15.59q.161.304.42.884t.777 2.098.902 3.179.607 4.063.089 4.804-.839 5.357-2.009 5.777q-.393.857-1.179 1.348t-1.696.491q-.696 0-1.321-.286-1.196-.554-1.652-1.786t.08-2.429q1.036-2.25 1.607-4.598t.67-4.277-.063-3.813-.473-3.223-.688-2.473-.58-1.607-.277-.58q-.607-1.161-.205-2.42T22.876.357Q23.537 0 24.322 0q.875 0 1.634.455t1.188 1.259z"/></svg>