<svg xmlns="http://www.w3.org/2000/svg" width="41" height="32" viewBox="0 0 41 32"><path d="M31.679 14.929L32 20.572q.071 1.232-1.464 2.286t-4.196 1.67-5.768.616-5.768-.616-4.196-1.67-1.464-2.286l.321-5.643 10.25 3.232q.393.125.857.125t.857-.125zm9.464-5.786q0 .411-.393.554l-20 6.286q-.071.018-.179.018t-.179-.018L8.749 12.304q-.768.607-1.268 1.991t-.607 3.188q1.125.643 1.125 1.946 0 1.232-1.036 1.911l1.036 7.732q.036.25-.143.446-.161.196-.429.196H3.998q-.268 0-.429-.196-.179-.196-.143-.446l1.036-7.732q-1.036-.679-1.036-1.911 0-1.304 1.161-1.982.196-3.696 1.75-5.893L.391 9.697q-.393-.143-.393-.554t.393-.554l20-6.286q.071-.018.179-.018t.179.018l20 6.286q.393.143.393.554z"/></svg>