<svg xmlns="http://www.w3.org/2000/svg" width="34" height="32" viewBox="0 0 34 32"><path d="M10.589 16q-2.893.089-4.732 2.286H3.464Q2 18.286 1 17.563t-1-2.116q0-6.304 2.214-6.304.107 0 .777.375t1.741.759 2.125.384q1.196 0 2.375-.411-.089.661-.089 1.179 0 2.482 1.446 4.571zm19.125 11.375q0 2.143-1.304 3.384T24.946 32H9.339q-2.161 0-3.464-1.241t-1.304-3.384q0-.946.063-1.848t.25-1.946.473-1.938.768-1.741 1.107-1.446 1.527-.955 1.991-.357q.179 0 .768.384t1.304.857 1.911.857 2.411.384 2.411-.384 1.911-.857 1.304-.857.768-.384q1.089 0 1.991.357t1.527.955 1.107 1.446.768 1.741.473 1.938.25 1.946.063 1.848zM11.429 4.571q0 1.893-1.339 3.232T6.858 9.142 3.626 7.803 2.287 4.571t1.339-3.232T6.858 0t3.232 1.339 1.339 3.232zM24 11.429q0 2.839-2.009 4.848t-4.848 2.009-4.848-2.009-2.009-4.848 2.009-4.848 4.848-2.009 4.848 2.009T24 11.429zm10.286 4.017q0 1.393-1 2.116t-2.464.723h-2.393q-1.839-2.196-4.732-2.286 1.446-2.089 1.446-4.571 0-.518-.089-1.179 1.179.411 2.375.411 1.054 0 2.125-.384t1.741-.759.777-.375q2.214 0 2.214 6.304zM32 4.571q0 1.893-1.339 3.232t-3.232 1.339-3.232-1.339-1.339-3.232 1.339-3.232T27.429 0t3.232 1.339T32 4.571z"/></svg>