<svg xmlns="http://www.w3.org/2000/svg" width="32" height="32" viewBox="0 0 32 32"><path d="M22.857 24V8q0-.464-.339-.804t-.804-.339h-2.286q-.464 0-.804.339T18.285 8v5.714H9.142V8q0-.464-.339-.804t-.804-.339H5.713q-.464 0-.804.339T4.57 8v16q0 .464.339.804t.804.339h2.286q.464 0 .804-.339T9.142 24v-5.714h9.143V24q0 .464.339.804t.804.339h2.286q.464 0 .804-.339t.339-.804zm4.572-16.571v17.143q0 2.125-1.509 3.634t-3.634 1.509H5.143q-2.125 0-3.634-1.509T0 24.572V7.429q0-2.125 1.509-3.634t3.634-1.509h17.143q2.125 0 3.634 1.509t1.509 3.634z"/></svg>