<svg xmlns="http://www.w3.org/2000/svg" width="32" height="32" viewBox="0 0 32 32"><path d="M4.571 24q0-.464-.339-.804t-.804-.339-.804.339-.339.804.339.804.804.339.804-.339.339-.804zm25.143-10.286q0-.911-.696-1.598t-1.589-.688H17.143q0-.357.268-.866T18 9.58t.589-1.214.268-1.509q0-1.196-.795-1.741t-2.063-.545q-.429 0-1.607 2.482-.429.786-.661 1.161-.714 1.143-2 2.589-1.268 1.446-1.804 1.893-1.232 1.018-2.5 1.018h-.571v11.429h.571q1.286 0 2.982.571t3.455 1.143 3.205.571q3.375 0 3.375-2.982 0-.464-.089-1 .536-.286.848-.938t.313-1.313-.321-1.232q.946-.893.946-2.125 0-.446-.179-.991t-.446-.848h5.911q.929 0 1.607-.679t.679-1.607zM32 13.696q0 1.875-1.348 3.232t-3.223 1.357h-3.018q-.071 1.107-.661 2.125.054.375.054.768 0 1.804-1.071 3.179.018 2.482-1.518 3.92t-4.054 1.438q-2.375 0-5.75-1.232-2.929-1.054-3.982-1.054H2.286q-.946 0-1.616-.67T0 25.143V13.714q0-.946.67-1.616t1.616-.67h5.143q.179 0 .384-.08t.42-.25.402-.321.429-.402.366-.384.339-.384.25-.304q1.161-1.321 1.786-2.304.232-.375.589-1.107t.661-1.286.723-1.125.982-.884 1.241-.313q2.232 0 3.687 1.196t1.455 3.375q0 1.214-.393 2.286h6.679q1.857 0 3.214 1.357T32 13.694z"/></svg>