<svg xmlns="http://www.w3.org/2000/svg" width="32" height="32" viewBox="0 0 32 32"><path d="M23 11.554q1.071 0 1.911.411 2.518 1.125 2.518 4.036v3.161q0 1.679-.411 3.321L25.5 28.537q-.375 1.536-1.616 2.5t-2.813.964H9.142q-1.893 0-3.232-1.339T4.571 27.43v-7.161L.303 9.055q-.304-.804-.304-1.625 0-1.893 1.339-3.232T4.57 2.859q1.429 0 2.598.813t1.67 2.134l.304.786V4.574q0-1.893 1.339-3.232T13.713.003t3.232 1.339 1.339 3.232v4.661q.482-.089.857-.089 1.232 0 2.277.652t1.58 1.759zm-3.857-.125q-.589 0-1.08.321t-.741.857l-1.321 2.911-1.268 2.768h.982q.893 0 1.607.563t.893 1.438l2.75-6.036q.179-.357.179-.821 0-.821-.589-1.411t-1.411-.589zm3.946 2.41q-.393 0-.723.143t-.518.286-.42.527-.304.545-.304.661l-2.357 5.179q-.179.357-.179.821 0 .821.589 1.411t1.411.589q.589 0 1.08-.321t.741-.857l2.857-6.286q.161-.321.161-.679 0-.893-.571-1.455t-1.464-.563zM2.286 7.429q0 .393.143.821l4.429 11.607v1.232l1.821-1.982q.768-.821 1.893-.821h3.536l1.893-4.161V4.571q0-.946-.67-1.616t-1.616-.67-1.616.67-.67 1.616V16h-1.143L6.715 6.607q-.25-.661-.839-1.063t-1.304-.402q-.946 0-1.616.67t-.67 1.616zm18.785 22.285q.786 0 1.402-.482t.813-1.25l1.518-6.054q.339-1.304.339-2.768v-1.625l-2.518 5.536q-.304.679-.946 1.089t-1.393.411q-.946 0-1.67-.616t-.866-1.545q-.786 1.018-2.036 1.018H12v-.571h3.714q.821 0 1.446-.589t.625-1.411-.554-1.411-1.375-.589H10.57q-.875 0-1.464.643l-2.25 2.429v5.5q0 .946.67 1.616t1.616.67h11.929z"/></svg>