<svg xmlns="http://www.w3.org/2000/svg" width="32" height="32" viewBox="0 0 32 32"><path d="M11.429 2.286q-.946 0-1.616.67t-.67 1.616v16l-2.696-3.607q-.732-.964-1.911-.964-.929 0-1.589.679t-.661 1.607q0 .768.464 1.375l6.857 9.143q.679.911 1.821.911h12.821q.393 0 .705-.241t.402-.616l1.643-6.571q.429-1.714.429-3.464v-3.875q0-.732-.5-1.268t-1.214-.536-1.214.5-.5 1.214h-.571V13.77q0-.857-.571-1.455t-1.429-.598q-.821 0-1.411.589t-.589 1.411v1.143h-.571v-1.607q0-.982-.661-1.688t-1.625-.705q-.946 0-1.616.67t-.67 1.616v1.714h-.571V4.681q0-.982-.661-1.688t-1.625-.705zm0-2.286q1.911 0 3.241 1.384T16 4.679v3.929q.393-.036.571-.036 1.768 0 3.089 1.232.839-.375 1.768-.375 2.018 0 3.286 1.554.482-.125 1-.125 1.679 0 2.839 1.205t1.161 2.884v3.875q0 2.071-.5 4.018l-1.643 6.571q-.286 1.143-1.214 1.866T24.25 32H11.429q-1.071 0-2.045-.491t-1.616-1.33L.911 21.036Q0 19.822 0 18.286q0-1.875 1.33-3.223t3.205-1.348q1.268 0 2.321.625V4.572q0-1.893 1.339-3.232T11.427.001zm2.285 25.143v-6.857h-.571v6.857h.571zm4.572 0v-6.857h-.571v6.857h.571zm4.571 0v-6.857h-.571v6.857h.571z"/></svg>