<svg xmlns="http://www.w3.org/2000/svg" width="32" height="32" viewBox="0 0 32 32"><path d="M25.143 17.143q0-1.5-.571-3.268t-1.143-3.464-.571-2.982v-.571H11.429v.571q0 .625-.214 1.205t-.661 1.116-.821.893-.964.875q-.161.143-.25.214-1.446 1.286-2.589 2-.393.25-1.214.679-.054.018-.402.188t-.643.33-.634.357-.545.384-.205.33q0 1.268.545 2.062t1.741.795q.768 0 1.509-.268T7.296 18t.982-.589.866-.268v10.286q0 .893.688 1.589t1.598.696q.929 0 1.607-.679t.679-1.607v-5.911q.821.625 1.839.625 1.232 0 2.125-.946.571.321 1.232.321t1.313-.313.938-.848q.429.071 1 .071 1.518 0 2.25-.866t.732-2.42zM22.857 3.429q0-.464-.339-.804t-.804-.339-.804.339-.339.804.339.804.804.339.804-.339.339-.804zm4.572 13.642q0 2.536-1.384 4.107t-3.884 1.554l-.089-.018q-1.357 1.089-3.179 1.089-.393 0-.768-.054-.964.536-2.125.661v3.018q0 1.875-1.357 3.223t-3.232 1.348q-1.839 0-3.196-1.357t-1.357-3.214v-6.679q-.964.393-2.286.393-2.161 0-3.366-1.455T.001 15.999q0-.679.313-1.241t.884-.982 1.125-.723 1.286-.661 1.107-.589q.982-.625 2.304-1.786.054-.036.304-.25t.384-.339.384-.366.402-.429.321-.402.25-.42.08-.384V2.284q0-.946.67-1.616t1.616-.67H22.86q.946 0 1.616.67t.67 1.616v5.143q0 1.054 1.054 3.982 1.232 3.393 1.232 5.661z"/></svg>