<svg xmlns="http://www.w3.org/2000/svg" width="32" height="32" viewBox="0 0 32 32"><path d="M24.571 25.143h.571V13.714h-.571q-.625 0-1.205-.214t-1.116-.661-.893-.821-.875-.964q-.036-.054-.063-.08t-.071-.08-.08-.089q-1.286-1.446-2-2.589-.25-.393-.679-1.214-.018-.054-.188-.402t-.33-.643-.357-.634-.384-.545-.33-.205q-1.268 0-2.063.545t-.795 1.741q0 .768.268 1.509t.589 1.214.589.982.268.866H4.57q-.893 0-1.589.688t-.696 1.598q0 .929.679 1.607t1.607.679h5.911q-.268.304-.446.848t-.179.991q0 1.232.946 2.125-.321.571-.321 1.232t.313 1.313.848.938q-.071.429-.071 1 0 1.518.866 2.25t2.42.732q1.5 0 3.268-.571t3.464-1.143 2.982-.571zM29.714 24q0-.464-.339-.804t-.804-.339-.804.339-.339.804.339.804.804.339.804-.339.339-.804zM32 13.714v11.429q0 .946-.67 1.616t-1.616.67h-5.143q-1.054 0-3.982 1.054-3.393 1.232-5.661 1.232-2.536 0-4.107-1.384t-1.554-3.884l.018-.089q-1.089-1.357-1.089-3.179 0-.393.054-.768-.589-1.018-.661-2.125H4.571q-1.875 0-3.223-1.357T0 13.697q0-1.839 1.357-3.196t3.214-1.357h6.679q-.393-1.071-.393-2.286 0-2.179 1.455-3.375T16 2.287q.679 0 1.241.313t.982.884.723 1.125.661 1.286.589 1.107q.625.982 1.786 2.304.036.054.25.304t.339.384.366.384.429.402.402.321.42.25.384.08h5.143q.946 0 1.616.67t.67 1.616z"/></svg>