<svg xmlns="http://www.w3.org/2000/svg" width="32" height="32" viewBox="0 0 32 32"><path d="M13.714 6.857q-.946 0-1.616.67t-.67 1.616v2.286h-.571V9.768q0-.857-.571-1.455t-1.429-.598q-.821 0-1.411.589t-.589 1.411v7.661l-.571-.536v-3.071q0-.857-.571-1.455t-1.429-.598q-.821 0-1.411.589t-.589 1.411v4q0 .839.625 1.464l5.536 5.286q.696.696.696 1.821 0 .464.339.804t.804.339h11.429q.464 0 .804-.339t.339-.804v-.446q0-.732.179-1.375l1.929-7.786q.179-.643.179-1.375v-4.393q0-.857-.571-1.455t-1.429-.598q-.821 0-1.411.589t-.589 1.411v.571h-.571V9.198q0-.714-.446-1.295t-1.143-.723q-.25-.036-.411-.036-.821 0-1.411.589t-.589 1.411v2.286h-.571V9.251q0-.911-.58-1.598t-1.473-.777q-.089-.018-.232-.018zm0-2.286q1.5 0 2.661.893 1.018-.607 2.196-.607 1.054 0 1.982.482t1.536 1.357q.482-.125 1.054-.125 1.786 0 3.036 1.277t1.25 3.063v4.393q0 .911-.232 1.929l-1.946 7.786q-.107.429-.107 1.268 0 1.429-1 2.429t-2.429 1H10.286q-1.5 0-2.464-1.045t-.964-2.545l-5.5-5.286Q.001 19.536.001 17.715v-4q0-1.768 1.259-3.027t3.027-1.259q.196 0 .286.018.107-1.696 1.348-2.857t2.938-1.161q.929 0 1.75.375 1.286-1.232 3.107-1.232z"/></svg>