<svg xmlns="http://www.w3.org/2000/svg" width="32" height="32" viewBox="0 0 32 32"><path d="M22.857 28.571q0-.464-.339-.804t-.804-.339-.804.339-.339.804.339.804.804.339.804-.339.339-.804zm2.286-13.642q0-3.375-2.982-3.375-.464 0-1 .089-.286-.536-.938-.848t-1.313-.313-1.232.321q-.893-.946-2.125-.946-.446 0-.991.179t-.848.446V4.571q0-.929-.679-1.607t-1.607-.679q-.911 0-1.598.696T9.142 4.57v10.286q-.357 0-.866-.268t-.982-.589-1.214-.589-1.509-.268q-1.196 0-1.741.795T2.285 16q0 .429 2.482 1.607.786.429 1.161.661 1.143.714 2.589 2 1.446 1.268 1.893 1.804 1.018 1.232 1.018 2.5v.571h11.429v-.571q0-1.286.571-2.982t1.143-3.455.571-3.205zm2.286-.09q0 2.375-1.232 5.75-1.054 2.929-1.054 3.982v5.143q0 .946-.67 1.616t-1.616.67H11.428q-.946 0-1.616-.67t-.67-1.616v-5.143q0-.179-.08-.384t-.25-.42-.321-.402-.402-.429-.384-.366-.384-.339-.304-.25q-1.321-1.161-2.304-1.786-.375-.232-1.107-.589t-1.286-.661-1.125-.723-.884-.982-.313-1.241q0-2.232 1.196-3.688t3.375-1.455q1.214 0 2.286.393V4.57q0-1.857 1.357-3.214t3.196-1.357q1.875 0 3.232 1.348t1.357 3.223v3.018q1.107.071 2.125.661.375-.054.768-.054 1.804 0 3.179 1.071 2.482-.018 3.92 1.518t1.438 4.054z"/></svg>