<svg xmlns="http://www.w3.org/2000/svg" width="32" height="32" viewBox="0 0 32 32"><path d="M17.696 18.286l1.143-4.571h-4.536l-1.143 4.571h4.536zm13.715-9l-1 4q-.125.429-.554.429h-5.839l-1.143 4.571h5.554q.268 0 .446.214.179.25.107.5l-1 4q-.089.429-.554.429h-5.839l-1.446 5.857q-.125.429-.554.429h-4q-.286 0-.464-.214-.161-.214-.107-.5l1.393-5.571h-4.536l-1.446 5.857q-.125.429-.554.429H5.857q-.268 0-.446-.214-.161-.214-.107-.5l1.393-5.571H1.143q-.268 0-.446-.214-.161-.214-.107-.5l1-4q.125-.429.554-.429h5.839l1.143-4.571H3.572q-.268 0-.446-.214-.179-.25-.107-.5l1-4q.089-.429.554-.429h5.839l1.446-5.857q.125-.429.571-.429h4q.268 0 .446.214.161.214.107.5l-1.393 5.571h4.536l1.446-5.857q.125-.429.571-.429h4q.268 0 .446.214.161.214.107.5l-1.393 5.571h5.554q.268 0 .446.214.161.214.107.5z"/></svg>