<svg xmlns="http://www.w3.org/2000/svg" width="32" height="32" viewBox="0 0 32 32"><path d="M18.571 21.714q0 .589-.42 1.009t-1.009.42-1.009-.42-.42-1.009.42-1.009 1.009-.42 1.009.42.42 1.009zm4.572 0q0 .589-.42 1.009t-1.009.42-1.009-.42-.42-1.009.42-1.009 1.009-.42 1.009.42.42 1.009zm2 2.857v-5.714q0-.232-.17-.402t-.402-.17H2.857q-.232 0-.402.17t-.17.402v5.714q0 .232.17.402t.402.17h21.714q.232 0 .402-.17t.17-.402zM3.179 16H24.25l-2.804-8.607q-.071-.232-.286-.384t-.464-.152H6.732q-.25 0-.464.152t-.286.384zm24.25 2.857v5.714q0 1.179-.839 2.018t-2.018.839H2.858q-1.179 0-2.018-.839t-.839-2.018v-5.714q0-.446.286-1.339L3.805 6.697q.304-.946 1.125-1.536t1.804-.589h13.964q.982 0 1.804.589t1.125 1.536l3.518 10.821q.286.893.286 1.339z"/></svg>