<svg xmlns="http://www.w3.org/2000/svg" width="32" height="32" viewBox="0 0 32 32"><path d="M30.036 29.714q-.786 0-2.366-.063t-2.384-.063q-.786 0-2.357.063t-2.357.063q-.429 0-.661-.366t-.232-.813q0-.554.304-.821t.696-.304.911-.125.804-.268q.589-.375.589-2.5l-.018-6.982q0-.375-.018-.554-.232-.071-.893-.071H10q-.679 0-.911.071-.018.179-.018.554l-.018 6.625q0 2.536.661 2.929.286.179.857.232t1.018.063.804.268.357.813q0 .464-.223.857t-.652.393q-.839 0-2.491-.063t-2.473-.063q-.768 0-2.286.063t-2.268.063q-.411 0-.634-.375t-.223-.804q0-.536.277-.804t.643-.313.848-.134.75-.268q.589-.411.589-2.554l-.018-1.018V8.927q0-.054.009-.464t0-.652-.027-.688-.063-.75-.116-.652-.196-.563-.286-.321q-.268-.179-.804-.214t-.946-.036-.732-.25-.321-.804q0-.464.214-.857t.643-.393q.821 0 2.473.063t2.473.063q.75 0 2.259-.063t2.259-.063q.446 0 .67.393t.223.857q0 .536-.304.777t-.688.259-.884.071-.768.232q-.625.375-.625 2.857l.018 5.714q0 .375.018.571.232.054.696.054h12.482q.446 0 .679-.054.018-.196.018-.571l.018-5.714q0-2.482-.625-2.857-.321-.196-1.045-.223t-1.179-.232-.455-.884q0-.464.223-.857t.67-.393q.786 0 2.357.063t2.357.063q.768 0 2.304-.063t2.304-.063q.446 0 .67.393t.223.857q0 .536-.313.786t-.714.259-.92.054-.786.223q-.625.411-.625 2.875l.018 16.839q0 2.125.607 2.5.286.179.821.241t.955.08.741.277.321.795q0 .464-.214.857t-.643.393z"/></svg>