<svg xmlns="http://www.w3.org/2000/svg" width="30" height="32" viewBox="0 0 30 32"><path d="M29.714 15.821q0 2.964-1.071 5.607l-.357.875-3.304.589q-.393 1.482-1.616 2.438t-2.795.955v.571q0 .25-.161.411t-.411.161h-1.143q-.25 0-.411-.161t-.161-.411V16.57q0-.25.161-.411t.411-.161h1.143q.25 0 .411.161t.161.411v.571q1.268 0 2.321.634t1.661 1.705l1.214-.214q.518-1.696.518-3.446 0-2.643-1.571-4.982t-4.223-3.732-5.634-1.393-5.634 1.393T5 10.838 3.429 15.82q0 1.75.518 3.446l1.214.214q.607-1.071 1.661-1.705t2.321-.634v-.571q0-.25.161-.411t.411-.161h1.143q.25 0 .411.161t.161.411v10.286q0 .25-.161.411t-.411.161H9.715q-.25 0-.411-.161t-.161-.411v-.571q-1.571 0-2.795-.955t-1.616-2.438l-3.304-.589-.357-.875Q0 18.785 0 15.821q0-2.696 1.196-5.196t3.196-4.33 4.75-2.92 5.714-1.089 5.714 1.089 4.75 2.92 3.196 4.33 1.196 5.196z"/></svg>