<svg xmlns="http://www.w3.org/2000/svg" width="32" height="32" viewBox="0 0 32 32"><path d="M22.857 18.286h5.446q-.089.107-.179.188t-.161.134l-.054.071-11.125 10.714q-.321.321-.786.321t-.786-.321L4.069 18.643q-.089-.036-.375-.357h6.589q.393 0 .705-.241t.402-.616l1.25-5.018 3.393 11.911q.107.357.411.589t.696.232q.375 0 .679-.232t.411-.589l2.607-8.661 1 2q.321.625 1.018.625zM32 10.643q0 2.589-1.839 5.357h-6.589l-1.982-3.946q-.143-.304-.455-.482t-.652-.143q-.804.089-1 .821l-2.304 7.679-3.5-12.25q-.107-.357-.42-.589t-.705-.232-.696.241-.393.616l-2.071 8.286H1.84Q.001 13.233.001 10.644q0-3.929 2.268-6.143t6.268-2.214q1.107 0 2.259.384t2.143 1.036 1.705 1.223 1.357 1.214q.643-.643 1.357-1.214t1.705-1.223 2.143-1.036 2.259-.384q4 0 6.268 2.214t2.268 6.143z"/></svg>