<svg xmlns="http://www.w3.org/2000/svg" width="25" height="32" viewBox="0 0 25 32"><path d="M6.857 23.429v1.143q0 .232-.17.402t-.402.17H5.142q-.232 0-.402-.17t-.17-.402v-1.143q0-.232.17-.402t.402-.17h1.143q.232 0 .402.17t.17.402zm0-4.572V20q0 .232-.17.402t-.402.17H5.142q-.232 0-.402-.17T4.57 20v-1.143q0-.232.17-.402t.402-.17h1.143q.232 0 .402.17t.17.402zm4.572 0V20q0 .232-.17.402t-.402.17H9.714q-.232 0-.402-.17T9.142 20v-1.143q0-.232.17-.402t.402-.17h1.143q.232 0 .402.17t.17.402zm-4.572-4.571v1.143q0 .232-.17.402t-.402.17H5.142q-.232 0-.402-.17t-.17-.402v-1.143q0-.232.17-.402t.402-.17h1.143q.232 0 .402.17t.17.402zm13.714 9.143v1.143q0 .232-.17.402t-.402.17h-1.143q-.232 0-.402-.17t-.17-.402v-1.143q0-.232.17-.402t.402-.17h1.143q.232 0 .402.17t.17.402zM16 18.857V20q0 .232-.17.402t-.402.17h-1.143q-.232 0-.402-.17t-.17-.402v-1.143q0-.232.17-.402t.402-.17h1.143q.232 0 .402.17t.17.402zm-4.571-4.571v1.143q0 .232-.17.402t-.402.17H9.714q-.232 0-.402-.17t-.17-.402v-1.143q0-.232.17-.402t.402-.17h1.143q.232 0 .402.17t.17.402zm9.142 4.571V20q0 .232-.17.402t-.402.17h-1.143q-.232 0-.402-.17t-.17-.402v-1.143q0-.232.17-.402t.402-.17h1.143q.232 0 .402.17t.17.402zM16 14.286v1.143q0 .232-.17.402t-.402.17h-1.143q-.232 0-.402-.17t-.17-.402v-1.143q0-.232.17-.402t.402-.17h1.143q.232 0 .402.17t.17.402zm4.571 0v1.143q0 .232-.17.402t-.402.17h-1.143q-.232 0-.402-.17t-.17-.402v-1.143q0-.232.17-.402t.402-.17h1.143q.232 0 .402.17t.17.402zM16 29.714h6.857V9.143h-4.571v.571q0 .714-.5 1.214t-1.214.5h-8q-.714 0-1.214-.5t-.5-1.214v-.571H2.287v20.571h6.857v-4q0-.232.17-.402t.402-.17h5.714q.232 0 .402.17t.17.402v4zm0-21.143V2.857q0-.232-.17-.402t-.402-.17h-1.143q-.232 0-.402.17t-.17.402v1.714h-2.286V2.857q0-.232-.17-.402t-.402-.17H9.712q-.232 0-.402.17t-.17.402v5.714q0 .232.17.402t.402.17h1.143q.232 0 .402-.17t.17-.402V6.857h2.286v1.714q0 .232.17.402t.402.17h1.143q.232 0 .402-.17t.17-.402zM25.143 8v22.857q0 .464-.339.804T24 32H1.143q-.464 0-.804-.339T0 30.857V8q0-.464.339-.804t.804-.339h5.714V1.714q0-.714.5-1.214T8.571 0h8q.714 0 1.214.5t.5 1.214v5.143h5.714q.464 0 .804.339t.339.804z"/></svg>