<svg xmlns="http://www.w3.org/2000/svg" width="32" height="32" viewBox="0 0 32 32"><path d="M26.857 28.571q.25 0 .411.161t.161.411v2.286q0 .25-.161.411t-.411.161H.571q-.25 0-.411-.161t-.161-.411v-2.286q0-.25.161-.411t.411-.161h26.286zM2.321 27.429q.054-.982.286-1.911t.536-1.696.821-1.554.955-1.357 1.152-1.241 1.179-1.071 1.259-.982 1.188-.848 1.161-.768q-.768-.5-1.161-.768t-1.188-.848-1.259-.982-1.179-1.071-1.152-1.241-.955-1.357-.821-1.554-.536-1.696-.286-1.911h22.786q-.054.982-.286 1.911t-.536 1.696-.821 1.554-.955 1.357-1.152 1.241-1.179 1.071-1.259.982-1.188.848-1.161.768q.768.5 1.161.768t1.188.848 1.259.982 1.179 1.071 1.152 1.241.955 1.357.821 1.554.536 1.696.286 1.911H2.321zM26.857 0q.25 0 .411.161t.161.411v2.286q0 .25-.161.411t-.411.161H.571q-.25 0-.411-.161t-.161-.411V.572q0-.25.161-.411T.571 0h26.286z"/></svg>