<svg xmlns="http://www.w3.org/2000/svg" width="32" height="32" viewBox="0 0 32 32"><path d="M25.143 2.286q0 4.661-1.902 8.241T18.482 16q2.857 1.893 4.759 5.473t1.902 8.241h1.714q.25 0 .411.161t.161.411v1.143q0 .25-.161.411t-.411.161H.571q-.25 0-.411-.161t-.161-.411v-1.143q0-.25.161-.411t.411-.161h1.714q0-4.661 1.902-8.241T8.946 16q-2.857-1.893-4.759-5.473T2.285 2.286H.571q-.25 0-.411-.161t-.161-.411V.571q0-.25.161-.411t.411-.161h26.286q.25 0 .411.161t.161.411v1.143q0 .25-.161.411t-.411.161h-1.714zm-9.536 12.643q1.375-.518 2.661-1.652t2.313-2.723 1.652-3.75.625-4.518H4.572q0 2.357.625 4.518t1.652 3.75 2.312 2.723 2.661 1.652q.339.125.545.42t.205.652-.205.652-.545.42q-2.446.911-4.357 3.5h12.5q-1.911-2.589-4.357-3.5-.339-.125-.545-.42t-.205-.652.205-.652.545-.42z"/></svg>