<svg xmlns="http://www.w3.org/2000/svg" width="32" height="32" viewBox="0 0 32 32"><path d="M25.143 2.286q0 4.661-1.902 8.241T18.482 16q2.857 1.893 4.759 5.473t1.902 8.241h1.714q.25 0 .411.161t.161.411v1.143q0 .25-.161.411t-.411.161H.571q-.25 0-.411-.161t-.161-.411v-1.143q0-.25.161-.411t.411-.161h1.714q0-4.661 1.902-8.241T8.946 16q-2.857-1.893-4.759-5.473T2.285 2.286H.571q-.25 0-.411-.161t-.161-.411V.571q0-.25.161-.411t.411-.161h26.286q.25 0 .411.161t.161.411v1.143q0 .25-.161.411t-.411.161h-1.714zm-2.286 0H4.571q0 1.179.161 2.286h17.964q.161-1.089.161-2.286zm0 27.428q0-2.321-.607-4.455t-1.616-3.714-2.259-2.714-2.607-1.688h-4.107q-1.357.554-2.607 1.688t-2.259 2.714-1.616 3.714-.607 4.455h18.286z"/></svg>