<svg xmlns="http://www.w3.org/2000/svg" width="32" height="32" viewBox="0 0 32 32"><path d="M25.143 2.286q0 4.661-1.902 8.241T18.482 16q2.857 1.893 4.759 5.473t1.902 8.241h1.714q.25 0 .411.161t.161.411v1.143q0 .25-.161.411t-.411.161H.571q-.25 0-.411-.161t-.161-.411v-1.143q0-.25.161-.411t.411-.161h1.714q0-4.661 1.902-8.241T8.946 16q-2.857-1.893-4.759-5.473T2.285 2.286H.571q-.25 0-.411-.161t-.161-.411V.571q0-.25.161-.411t.411-.161h26.286q.25 0 .411.161t.161.411v1.143q0 .25-.161.411t-.411.161h-1.714zm-2.286 0H4.571q0 3.679 1.518 6.857h15.25q1.518-3.179 1.518-6.857zM21.839 24q-.964-2.518-2.598-4.313t-3.473-2.545h-4.107q-1.839.75-3.473 2.545T5.59 24h16.25z"/></svg>