<svg xmlns="http://www.w3.org/2000/svg" width="32" height="32" viewBox="0 0 32 32"><path d="M17.714 11.143V20q0 .25-.161.411t-.411.161h-2.857q-.25 0-.411-.161T13.713 20v-8.857q0-2-1.429-3.429T8.855 6.285H3.998v20.571q0 .25-.161.411t-.411.161H.569q-.25 0-.411-.161t-.161-.411v-24q0-.25.161-.411t.411-.161h8.286q2.411 0 4.446 1.188t3.223 3.223 1.188 4.446zm6.857-8.286v15.714q0 2.411-1.188 4.446T20.16 26.24t-4.446 1.188H7.428q-.25 0-.411-.161t-.161-.411V9.713q0-.25.161-.411t.411-.161h2.857q.25 0 .411.161t.161.411v13.714h4.857q2 0 3.429-1.429t1.429-3.429V2.855q0-.25.161-.411t.411-.161h2.857q.25 0 .411.161t.161.411z"/></svg>