<svg xmlns="http://www.w3.org/2000/svg" width="32" height="32" viewBox="0 0 32 32"><path d="M6.286 14.857q0 .25-.161.411L.982 20.411q-.161.161-.411.161-.232 0-.402-.17T-.001 20V9.714q0-.232.17-.402t.402-.17q.25 0 .411.161l5.143 5.143q.161.161.161.411zM32 23.429v3.429q0 .232-.17.402t-.402.17H.571q-.232 0-.402-.17t-.17-.402v-3.429q0-.232.17-.402t.402-.17h30.857q.232 0 .402.17t.17.402zm0-6.858V20q0 .232-.17.402t-.402.17H11.999q-.232 0-.402-.17t-.17-.402v-3.429q0-.232.17-.402t.402-.17h19.429q.232 0 .402.17t.17.402zm0-6.857v3.429q0 .232-.17.402t-.402.17H11.999q-.232 0-.402-.17t-.17-.402V9.714q0-.232.17-.402t.402-.17h19.429q.232 0 .402.17t.17.402zm0-6.857v3.429q0 .232-.17.402t-.402.17H.571q-.232 0-.402-.17t-.17-.402V2.857q0-.232.17-.402t.402-.17h30.857q.232 0 .402.17t.17.402z"/></svg>