<svg xmlns="http://www.w3.org/2000/svg" width="32" height="32" viewBox="0 0 32 32"><path d="M18.286 24.571v-2.857q0-.25-.161-.411t-.411-.161H16v-9.143q0-.25-.161-.411t-.411-.161H9.714q-.25 0-.411.161t-.161.411v2.857q0 .25.161.411t.411.161h1.714v5.714H9.714q-.25 0-.411.161t-.161.411v2.857q0 .25.161.411t.411.161h8q.25 0 .411-.161t.161-.411zM16 8.571V5.714q0-.25-.161-.411t-.411-.161h-3.429q-.25 0-.411.161t-.161.411v2.857q0 .25.161.411t.411.161h3.429q.25 0 .411-.161T16 8.571zM27.429 16q0 3.732-1.839 6.884t-4.991 4.991-6.884 1.839-6.884-1.839-4.991-4.991T.001 16 1.84 9.116t4.991-4.991 6.884-1.839 6.884 1.839 4.991 4.991T27.429 16z"/></svg>