<svg xmlns="http://www.w3.org/2000/svg" width="32" height="32" viewBox="0 0 32 32"><path d="M32 16.732q0 1-.125 1.857H11.321q0 2.607 1.955 4.366t4.598 1.759q1.768 0 3.313-.83t2.438-2.33h7.554q-1 2.839-3.045 5.018t-4.777 3.366-5.732 1.188q-3.339 0-6.357-1.482-4.071 2.071-7.036 2.071Q0 31.715 0 27.019q0-2.054.804-4.911.304-1.071 1.946-4.089 3.554-6.429 8.482-10.821-3.286 1.411-7.625 6.321Q4.732 8.626 8.67 5.492t8.955-3.134q.536 0 .804.018Q22.983.287 26.161.287q1.143 0 2.071.232t1.688.723 1.188 1.366.429 2.054q0 2.071-1.339 5.107 1.804 3.25 1.804 6.964zM30.75 5.304q0-1.482-.946-2.357t-2.446-.875q-1.929 0-4.536 1.25 2.161.839 3.973 2.348t3.045 3.491q.911-2.411.911-3.857zM2.286 27.393q0 1.536.866 2.366t2.402.83q2.054 0 4.75-1.482-2.179-1.286-3.813-3.268t-2.455-4.375q-1.75 3.661-1.75 5.929zm9-12.732h13q-.089-2.536-2.018-4.232t-4.482-1.696q-2.571 0-4.491 1.696t-2.009 4.232z"/></svg>