<svg xmlns="http://www.w3.org/2000/svg" width="18" height="32" viewBox="0 0 18 32"><path d="M0 29.679l.304-1.518q.107-.036 1.455-.384t1.991-.67q.5-.625.732-1.804.018-.125 1.107-5.161t2.036-9.705.929-5.295v-.446q-.429-.232-.973-.33T6.34 4.223t-1.036-.098l.339-1.839q.589.036 2.143.116t2.67.125 2.152.045q.857 0 1.759-.045t2.161-.125 1.759-.116q-.089.696-.339 1.589-.536.179-1.813.509t-1.938.598q-.143.339-.25.759t-.161.714-.134.813-.116.75q-.482 2.643-1.563 7.491t-1.384 6.348l-.232 1.036q-.196.875-.357 1.607t-.286 1.491-.107 1.027l.018.321q.304.071 3.304.554-.054.786-.286 1.768-.196 0-.58.027t-.58.027q-.518 0-1.554-.179t-1.536-.179q-2.464-.036-3.679-.036-.911 0-2.554.161t-2.161.196z"/></svg>