<svg xmlns="http://www.w3.org/2000/svg" width="32" height="32" viewBox="0 0 32 32"><path d="M14.857 9.143q0-1.429-1-2.429t-2.429-1-2.429 1-1 2.429q0 .75.339 1.482-.732-.339-1.482-.339-1.429 0-2.429 1t-1 2.429 1 2.429 2.429 1 2.429-1 1-2.429q0-.75-.339-1.482.732.339 1.482.339 1.429 0 2.429-1t1-2.429zm15.197 12.571q0 .304-.875 1.179T28 23.768q-.161 0-.509-.286t-.652-.589-.688-.714-.438-.464l-1.714 1.714 3.929 3.929q.5.5.5 1.214 0 .75-.696 1.446t-1.446.696q-.714 0-1.214-.5L13.09 18.232q-3.143 2.339-6.518 2.339-2.911 0-4.741-1.83T.001 14q0-2.857 1.696-5.589t4.429-4.429 5.589-1.696q2.911 0 4.741 1.83t1.83 4.741q0 3.375-2.339 6.518l6.339 6.339L24 20q-.054-.054-.464-.438t-.714-.688-.589-.652-.286-.509q0-.304.875-1.179t1.179-.875q.232 0 .411.179.107.107.821.795t1.464 1.42 1.545 1.536 1.304 1.393.509.732z"/></svg>