<svg xmlns="http://www.w3.org/2000/svg" width="34" height="32" viewBox="0 0 34 32"><path d="M6.857 20.857v1.714q0 .286-.286.286H4.857q-.286 0-.286-.286v-1.714q0-.286.286-.286h1.714q.286 0 .286.286zm2.286-4.571V18q0 .286-.286.286h-4q-.286 0-.286-.286v-1.714q0-.286.286-.286h4q.286 0 .286.286zm-2.286-4.572v1.714q0 .286-.286.286H4.857q-.286 0-.286-.286v-1.714q0-.286.286-.286h1.714q.286 0 .286.286zm18.286 9.143v1.714q0 .286-.286.286H9.428q-.286 0-.286-.286v-1.714q0-.286.286-.286h15.429q.286 0 .286.286zm-11.429-4.571V18q0 .286-.286.286h-1.714q-.286 0-.286-.286v-1.714q0-.286.286-.286h1.714q.286 0 .286.286zm-2.285-4.572v1.714q0 .286-.286.286H9.429q-.286 0-.286-.286v-1.714q0-.286.286-.286h1.714q.286 0 .286.286zm6.857 4.572V18q0 .286-.286.286h-1.714Q16 18.286 16 18v-1.714q0-.286.286-.286H18q.286 0 .286.286zM16 11.714v1.714q0 .286-.286.286H14q-.286 0-.286-.286v-1.714q0-.286.286-.286h1.714q.286 0 .286.286zm6.857 4.572V18q0 .286-.286.286h-1.714q-.286 0-.286-.286v-1.714q0-.286.286-.286h1.714q.286 0 .286.286zm6.857 4.571v1.714q0 .286-.286.286h-1.714q-.286 0-.286-.286v-1.714q0-.286.286-.286h1.714q.286 0 .286.286zm-9.143-9.143v1.714q0 .286-.286.286h-1.714q-.286 0-.286-.286v-1.714q0-.286.286-.286h1.714q.286 0 .286.286zm4.572 0v1.714q0 .286-.286.286h-1.714q-.286 0-.286-.286v-1.714q0-.286.286-.286h1.714q.286 0 .286.286zm4.571 0V18q0 .286-.286.286h-4q-.286 0-.286-.286v-1.714q0-.286.286-.286h2v-4.286q0-.286.286-.286h1.714q.286 0 .286.286zM32 25.143v-16H2.286v16H32zm2.286-16v16q0 .946-.67 1.616t-1.616.67H2.286q-.946 0-1.616-.67T0 25.143v-16q0-.946.67-1.616t1.616-.67H32q.946 0 1.616.67t.67 1.616z"/></svg>