<svg xmlns="http://www.w3.org/2000/svg" width="32" height="32" viewBox="0 0 32 32"><path d="M9.179 21.339L10.625 16H7.786l1.339 5.357q.018.018.018.054t.018.054q0-.018.009-.063t.009-.063zm2.071-7.625l.625-2.286H6.661l.571 2.286h4.018zm3.429 0h2.482l-.625-2.286h-1.25zm8.017 7.643L24.089 16h-2.893l1.446 5.339q0 .018.009.063t.027.063q0-.018.009-.054t.009-.054zm1.983-7.643l.589-2.286h-5.304l.607 2.286h4.107zm7.321.572v1.143q0 .25-.161.411t-.411.161h-3.804l-2.929 11q-.125.429-.554.429h-2.839q-.429 0-.554-.429l-2.964-11h-3.732l-2.982 11q-.125.429-.554.429H7.677q-.196 0-.348-.125t-.188-.304l-2.857-11H.57q-.25 0-.411-.161t-.161-.411v-1.143q0-.25.161-.411t.411-.161h3.125l-.589-2.286H.57q-.25 0-.411-.161t-.161-.411V9.713q0-.25.161-.411t.411-.161h1.946L.927 2.998q-.089-.268.089-.5.179-.214.464-.214h2.446q.464 0 .554.429l1.607 6.429h6.411l1.732-6.429q.125-.429.554-.429h2.25q.429 0 .554.429l1.75 6.429h6.518l1.661-6.429q.089-.429.554-.429h2.446q.286 0 .464.214.179.232.089.5l-1.625 6.143h1.982q.25 0 .411.161t.161.411v1.143q0 .25-.161.411t-.411.161h-2.589l-.607 2.286h3.196q.25 0 .411.161t.161.411z"/></svg>