<svg xmlns="http://www.w3.org/2000/svg" width="32" height="32" viewBox="0 0 32 32"><path d="M11.679 19.25q-.018.054-.223-.009t-.563-.205l-.357-.161Q9.75 18.518 8.982 18q-.125-.089-.732-.563t-.679-.509q-1.196 1.839-2.393 3.232-1.446 1.696-1.875 1.964-.071.036-.348.071t-.33 0q.107-.071 1.464-1.643.375-.429 1.527-2.054t1.402-2.107q.304-.536.911-1.759t.643-1.384q-.143-.018-1.964.589-.143.036-.491.134t-.616.17-.304.089q-.036.036-.036.188t-.018.17q-.089.179-.554.268-.411.125-.839 0-.321-.071-.5-.375-.071-.107-.089-.411.107-.036.438-.089t.527-.107q1.036-.286 1.875-.571 1.786-.625 1.821-.625.179-.036.768-.348t.786-.384q.161-.054.384-.143t.259-.098.107.009q.036.214-.018.589 0 .036-.223.482t-.473.955-.304.598q-.446.893-1.375 2.339l1.143.5q.214.107 1.33.571t1.205.5q.071.018.188.455t.08.545zm-3.661-8.679q.054.268-.071.5-.214.411-.893.679-.536.214-1.071.214-.464-.054-.875-.464-.25-.268-.321-.732l.018-.054q.054.054.348.089t.473 0 1.036-.286q.643-.214.982-.25.304 0 .375.304zm12.464 2.304l1.125 4.054-2.482-.75zM.696 27.161l12.393-4.143V4.589L.696 8.75v18.411zM22.857 21.5l1.821.554-3.232-11.732-1.786-.554-3.857 9.571 1.821.554.804-1.964 3.768 1.161zM13.875 4.321l10.232 3.286V.821zm5.554 23.625l2.821.232-.964 2.857-.714-1.179q-2.321 1.482-4.929 1.929-1.036.214-1.625.214h-1.5q-1.411 0-3.563-.696t-3.277-1.518q-.143-.125-.143-.286 0-.143.089-.241t.232-.098q.071 0 .321.134t.545.295.366.196q1.304.661 2.848 1.098t2.813.438q1.696 0 2.982-.259t2.804-.902q.268-.125.545-.277t.607-.339.509-.295zm8-19.267v19.268l-13.821-4.393q-.25.107-6.696 2.277t-6.571 2.17q-.232 0-.321-.232 0-.018-.018-.054V8.465q.054-.161.071-.179.089-.107.357-.196 1.893-.625 2.661-.893V.34l9.964 3.536q.036 0 2.866-.982T21.564.956t2.884-.955q.357 0 .357.375V7.84z"/></svg>