<svg xmlns="http://www.w3.org/2000/svg" width="34" height="32" viewBox="0 0 34 32"><path d="M7.429 22.857q-1.179 0-2.018-.839T4.572 20V7.429q0-1.179.839-2.018t2.018-.839h19.429q1.179 0 2.018.839t.839 2.018V20q0 1.179-.839 2.018t-2.018.839H7.429zM6.857 7.429V20q0 .232.17.402t.402.17h19.429q.232 0 .402-.17t.17-.402V7.429q0-.232-.17-.402t-.402-.17H7.429q-.232 0-.402.17t-.17.402zM31.429 24h2.857v1.714q0 .714-.839 1.214t-2.018.5H2.858q-1.179 0-2.018-.5t-.839-1.214V24H31.43zm-12.858 1.714q.286 0 .286-.286t-.286-.286h-2.857q-.286 0-.286.286t.286.286h2.857z"/></svg>