<svg xmlns="http://www.w3.org/2000/svg" width="32" height="32" viewBox="0 0 32 32"><path d="M25.125 14.75q0-.786-.125-2.027T24.679 11q-.214-.536-.304-.786t-.161-.652-.071-.866q0-.411.089-1.223t.089-1.205q0-.661-.179-.982-.071-.018-.232-.018-.339 0-1.036.08t-1.054.08q-1.071 0-3.143-.429t-3.125-.429q-.768 0-1.688.205t-1.518.42-1.598.607q-2.446.964-3.607 1.839-1.714 1.304-2.848 3.384t-1.571 4.214-.438 4.438q0 .714.223 2.143t.223 2.161q0 .411-.196 1.188t-.196 1.17.214.652.607.259q.429 0 1.295-.196t1.313-.196q1.018 0 3.027.277t3.027.277q3.232 0 5.071-.643 2.304-.804 4.205-2.723t2.964-4.384 1.063-4.911zm2.286-.036q0 2.946-1.25 5.848t-3.5 5.143-5.018 3.223q-2.214.786-5.821.786-1.018 0-3.036-.259t-3.018-.259q-.429 0-1.295.259t-1.313.259q-1.304 0-2.205-.991t-.902-2.295q0-.429.196-1.214t.196-1.196q0-.714-.223-2.152t-.223-2.17q0-1.982.321-3.884t.973-3.741 1.795-3.464 2.679-2.786Q7.16 4.767 9.91 3.678q3.464-1.393 5.643-1.393 1.071 0 3.134.429t3.098.429q.339 0 1.018-.089t1.036-.089q1.446 0 2.107.902t.661 2.402q0 .411-.089 1.214t-.089 1.214q0 .179.018.33t.054.304.071.241.116.286.116.304q.286.714.446 2.116t.161 2.438z"/></svg>