<svg xmlns="http://www.w3.org/2000/svg" width="32" height="32" viewBox="0 0 32 32"><path d="M16 0q3.25 0 6.214 1.268t5.107 3.411 3.411 5.107T32 16t-1.268 6.214-3.411 5.107-5.107 3.411T16 32t-6.214-1.268-5.107-3.411-3.411-5.107T0 16t1.268-6.214 3.411-5.107 5.107-3.411T16 0zm0 2.286q-3.393 0-6.446 1.607l3.464 3.464q1.464-.5 2.982-.5t2.982.5l3.464-3.464Q19.392 2.286 16 2.286zM3.893 22.446l3.464-3.464q-.5-1.464-.5-2.982t.5-2.982L3.893 9.554Q2.286 12.608 2.286 16t1.607 6.446zM16 29.714q3.393 0 6.446-1.607l-3.464-3.464q-1.464.5-2.982.5t-2.982-.5l-3.464 3.464q3.054 1.607 6.446 1.607zm0-6.857q2.839 0 4.848-2.009T22.857 16t-2.009-4.848T16 9.143t-4.848 2.009T9.143 16t2.009 4.848T16 22.857zm8.643-3.875l3.464 3.464q1.607-3.054 1.607-6.446t-1.607-6.446l-3.464 3.464q.5 1.464.5 2.982t-.5 2.982z"/></svg>