<svg xmlns="http://www.w3.org/2000/svg" width="32" height="32" viewBox="0 0 32 32"><path d="M11.839 7.339q-.196.018-.277.188t-.152.17q-.089.018-.089-.089 0-.214.339-.268h.179zm1.554.25q-.071.018-.205-.116t-.313-.08q.429-.196.571.036.054.107-.054.161zm-6.268 7.625q-.071-.018-.107.054t-.08.223-.098.241-.179.232q-.125.179-.018.214.071.018.223-.125t.223-.321q.018-.054.036-.125t.036-.107.027-.08.009-.071v-.054l-.018-.045-.054-.036zm15.268 6.411q0-.321-.982-.75.071-.268.134-.491t.089-.464.054-.384.009-.402-.018-.348-.063-.393-.071-.366-.089-.446-.098-.473q-.179-.857-.839-1.839t-1.286-1.339q.429.357 1.018 1.482 1.554 2.893.964 4.964-.196.714-.893.75-.554.071-.688-.33t-.143-1.491-.205-1.911q-.161-.696-.348-1.232t-.348-.813-.277-.438-.232-.268-.134-.125q-.25-1.107-.554-1.839t-.527-1-.42-.589-.268-.714q-.071-.375.107-.955t.08-.884-.795-.446q-.268-.054-.795-.321t-.634-.286q-.143-.018-.196-.464t.143-.911.643-.482q.661-.054.911.536t.071 1.036q-.196.339-.036.473t.536.009q.232-.071.232-.643v-.661q-.089-.536-.241-.893t-.375-.545-.42-.268-.482-.134q-1.911.143-1.589 2.393 0 .268-.018.268-.161-.161-.527-.188t-.589.009-.277-.089q.018-1.018-.286-1.607t-.804-.607q-.482-.018-.741.491T9.801 6.27q-.018.268.063.661t.232.67.277.241q.179-.054.286-.25.071-.161-.125-.143-.125 0-.277-.259t-.17-.598q-.018-.393.161-.661t.607-.25q.304 0 .482.375t.17.696-.027.393q-.393.268-.554.518-.143.214-.491.42t-.366.223q-.232.25-.277.482t.134.321q.25.143.446.348t.286.339.33.232.634.116q.839.036 1.821-.268.036-.018.411-.125t.616-.188.527-.232.375-.313q.161-.25.357-.143.089.054.116.152t-.054.214-.295.17q-.357.107-1.009.384t-.813.348q-.786.339-1.25.411-.446.089-1.411-.036-.179-.036-.161.036t.304.339q.446.411 1.196.393.304-.018.643-.125t.643-.25.598-.313.536-.304.438-.214.313-.045.152.196q0 .036-.018.08t-.071.089-.107.08-.152.089-.161.08-.179.089-.17.08q-.5.25-1.205.786t-1.188.768-.875.018q-.375-.196-1.125-1.304-.393-.554-.446-.393-.018.054-.018.179 0 .446-.268 1.009t-.527.991-.375 1.036.205 1.125q-.411.107-1.116 1.607t-.848 2.518q-.036.321-.027 1.232t-.098 1.054q-.143.429-.518.054-.571-.554-.643-1.679-.036-.5.071-1 .071-.339-.018-.321l-.071.089q-.643 1.161.179 2.964.089.214.446.5t.429.357q.357.411 1.857 1.616t1.661 1.366q.286.268.313.679t-.25.768-.813.411q.143.268.518.795t.5.964.125 1.259q.821-.429.125-1.643-.071-.143-.188-.286t-.17-.214-.036-.107q.054-.089.232-.17t.357.045q.821.929 2.964.643 2.375-.268 3.161-1.554.411-.679.607-.536.214.107.179.929-.018.446-.411 1.643-.161.411-.107.67t.429.277q.054-.339.259-1.375t.241-1.607q.036-.375-.116-1.313t-.134-1.732.411-1.259q.268-.321.911-.321.018-.661.616-.946t1.295-.188 1.071.402zM11.179 6.857q.054-.304-.045-.536t-.205-.268q-.161-.036-.161.125.036.089.089.107.179 0 .125.268-.054.357.143.357.054 0 .054-.054zm7.482 3.518q-.036-.143-.116-.205t-.232-.089-.259-.098q-.089-.054-.17-.143t-.125-.143-.098-.116-.071-.071-.071.027q-.25.286.125.777t.696.563q.161.018.259-.143t.063-.357zm-3.179-3.804q0-.196-.089-.348T15.197 6t-.161-.054q-.25.018-.125.125l.071.036q.25.071.321.554 0 .054.143-.036zm.964-4.16q0-.036-.045-.089t-.161-.125-.17-.107q-.268-.268-.429-.268-.161.018-.205.134t-.018.232-.009.223q-.018.071-.107.188t-.107.161.054.152q.071.054.143 0t.196-.161.268-.161q.018-.018.161-.018t.268-.036.161-.125zm10.09 23.946q.357.214.554.438t.214.429-.045.402-.277.393-.42.348-.536.33-.563.295-.571.277-.482.232q-.679.339-1.527 1t-1.348 1.143q-.304.286-1.214.348t-1.589-.259q-.321-.161-.527-.42t-.295-.455-.393-.348-.839-.17q-.786-.018-2.321-.018-.339 0-1.018.027t-1.036.045q-.786.018-1.42.268t-.955.536-.777.509-.955.205q-.518-.018-1.982-.554t-2.607-.768q-.339-.071-.911-.17t-.893-.161-.705-.17T.5 29.83t-.304-.348q-.179-.411.125-1.188t.321-.973q.018-.286-.071-.714t-.179-.759-.08-.652.188-.482q.25-.214 1.018-.25t1.071-.214q.536-.321.75-.625t.214-.911q.375 1.304-.571 1.893-.571.357-1.482.268-.607-.054-.768.179-.232.268.089 1.018.036.107.143.321t.152.321.08.304.018.393q0 .268-.304.875t-.25.857q.054.304.661.464.357.107 1.509.33t1.777.366q.429.107 1.321.393t1.473.411.991.071q.768-.107 1.152-.5t.411-.857-.134-1.045-.339-.929-.357-.652q-2.161-3.393-3.018-4.321-1.214-1.321-2.018-.714-.196.161-.268-.268-.054-.286-.036-.679.018-.518.179-.929t.429-.839.393-.75q.143-.375.473-1.286t.527-1.393.536-1.089.696-.964q1.964-2.554 2.214-3.482-.214-2-.286-5.536-.036-1.607.429-2.705T11.268.374q.696-.375 1.857-.375.946-.018 1.893.241t1.589.741q1.018.75 1.634 2.17t.527 2.634q-.089 1.696.536 3.821.607 2.018 2.375 3.893.982 1.054 1.777 2.911t1.063 3.411q.143.875.089 1.509t-.214.991-.357.393q-.179.036-.42.339t-.482.634-.723.598-1.089.25q-.321-.018-.563-.089t-.402-.241-.241-.277-.205-.366-.161-.348q-.393-.661-.732-.536t-.5.875.125 1.732q.357 1.25.018 3.482-.179 1.161.321 1.795t1.304.589 1.518-.634q1.054-.875 1.598-1.188t1.848-.759q.946-.321 1.375-.652t.33-.616-.446-.509-.92-.42q-.589-.196-.884-.857t-.268-1.295.277-.848q.018.554.143 1.009t.259.723.366.509.375.339.384.232.295.17z"/></svg>