<svg xmlns="http://www.w3.org/2000/svg" width="32" height="32" viewBox="0 0 32 32"><path d="M4.571 23.429v3.429q0 .232-.17.402t-.402.17H.57q-.232 0-.402-.17t-.17-.402v-3.429q0-.232.17-.402t.402-.17h3.429q.232 0 .402.17t.17.402zm0-6.858V20q0 .232-.17.402t-.402.17H.57q-.232 0-.402-.17T-.002 20v-3.429q0-.232.17-.402t.402-.17h3.429q.232 0 .402.17t.17.402zm0-6.857v3.429q0 .232-.17.402t-.402.17H.57q-.232 0-.402-.17t-.17-.402V9.714q0-.232.17-.402t.402-.17h3.429q.232 0 .402.17t.17.402zM32 23.429v3.429q0 .232-.17.402t-.402.17h-24q-.232 0-.402-.17t-.17-.402v-3.429q0-.232.17-.402t.402-.17h24q.232 0 .402.17t.17.402zM4.571 2.857v3.429q0 .232-.17.402t-.402.17H.57q-.232 0-.402-.17t-.17-.402V2.857q0-.232.17-.402t.402-.17h3.429q.232 0 .402.17t.17.402zM32 16.571V20q0 .232-.17.402t-.402.17h-24q-.232 0-.402-.17T6.856 20v-3.429q0-.232.17-.402t.402-.17h24q.232 0 .402.17t.17.402zm0-6.857v3.429q0 .232-.17.402t-.402.17h-24q-.232 0-.402-.17t-.17-.402V9.714q0-.232.17-.402t.402-.17h24q.232 0 .402.17t.17.402zm0-6.857v3.429q0 .232-.17.402t-.402.17h-24q-.232 0-.402-.17t-.17-.402V2.857q0-.232.17-.402t.402-.17h24q.232 0 .402.17t.17.402z"/></svg>