<svg xmlns="http://www.w3.org/2000/svg" width="32" height="32" viewBox="0 0 32 32"><path d="M6.857 21.143v1.143q0 .232-.17.402t-.402.17H5.142q-.232 0-.402-.17t-.17-.402v-1.143q0-.232.17-.402t.402-.17h1.143q.232 0 .402.17t.17.402zm0-4.572v1.143q0 .232-.17.402t-.402.17H5.142q-.232 0-.402-.17t-.17-.402v-1.143q0-.232.17-.402t.402-.17h1.143q.232 0 .402.17t.17.402zm0-4.571v1.143q0 .232-.17.402t-.402.17H5.142q-.232 0-.402-.17t-.17-.402V12q0-.232.17-.402t.402-.17h1.143q.232 0 .402.17t.17.402zm20.572 9.143v1.143q0 .232-.17.402t-.402.17H9.714q-.232 0-.402-.17t-.17-.402v-1.143q0-.232.17-.402t.402-.17h17.143q.232 0 .402.17t.17.402zm0-4.572v1.143q0 .232-.17.402t-.402.17H9.714q-.232 0-.402-.17t-.17-.402v-1.143q0-.232.17-.402t.402-.17h17.143q.232 0 .402.17t.17.402zm0-4.571v1.143q0 .232-.17.402t-.402.17H9.714q-.232 0-.402-.17t-.17-.402V12q0-.232.17-.402t.402-.17h17.143q.232 0 .402.17t.17.402zm2.285 12.571V9.714q0-.232-.17-.402t-.402-.17H2.856q-.232 0-.402.17t-.17.402v14.857q0 .232.17.402t.402.17h26.286q.232 0 .402-.17t.17-.402zM32 5.143v19.429q0 1.179-.839 2.018t-2.018.839H2.857q-1.179 0-2.018-.839T0 24.572V5.143q0-1.179.839-2.018t2.018-.839h26.286q1.179 0 2.018.839T32 5.143z"/></svg>