<svg xmlns="http://www.w3.org/2000/svg" width="32" height="32" viewBox="0 0 32 32"><path d="M6.804 28.929q0 1.429-.973 2.25T3.411 32Q1.518 32 .34 30.821l1.018-1.571q.875.804 1.893.804.518 0 .902-.259t.384-.759q0-1.143-1.875-1l-.464-1q.143-.179.58-.777t.759-.964.661-.688v-.018q-.286 0-.866.018t-.866.018v.946H.573v-2.714h5.946v1.571l-1.696 2.054q.911.214 1.446.875t.536 1.571zm.035-11.197v2.839H.375q-.107-.643-.107-.964 0-.911.42-1.661t1.009-1.214 1.179-.848 1.009-.777.42-.804q0-.446-.259-.688t-.705-.241q-.821 0-1.446 1.036L.377 13.356q.429-.911 1.277-1.42t1.884-.509q1.304 0 2.196.741t.893 2.009q0 .893-.607 1.634t-1.339 1.152-1.348.902-.634.938h2.268v-1.071h1.875zM32 23.429v3.429q0 .232-.17.402t-.402.17H9.714q-.232 0-.402-.17t-.17-.402v-3.429q0-.25.161-.411t.411-.161h21.714q.232 0 .402.17t.17.402zM6.857 7.375v1.768H.875V7.375h1.911q0-.732.009-2.179t.009-2.161v-.214h-.036q-.143.304-.893.964L.607 2.428 3.036.16h1.893v7.214h1.929zM32 14.286v3.429q0 .232-.17.402t-.402.17H9.714q-.232 0-.402-.17t-.17-.402v-3.429q0-.25.161-.411t.411-.161h21.714q.232 0 .402.17t.17.402zm0-9.143v3.429q0 .232-.17.402t-.402.17H9.714q-.232 0-.402-.17t-.17-.402V5.143q0-.232.17-.402t.402-.17h21.714q.232 0 .402.17t.17.402z"/></svg>