<svg xmlns="http://www.w3.org/2000/svg" width="32" height="32" viewBox="0 0 32 32"><path d="M6.857 25.143q0 1.429-1 2.429t-2.429 1-2.429-1-1-2.429 1-2.429 2.429-1 2.429 1 1 2.429zm0-9.143q0 1.429-1 2.429t-2.429 1-2.429-1-1-2.429 1-2.429 2.429-1 2.429 1 1 2.429zM32 23.429v3.429q0 .232-.17.402t-.402.17H9.714q-.232 0-.402-.17t-.17-.402v-3.429q0-.232.17-.402t.402-.17h21.714q.232 0 .402.17t.17.402zM6.857 6.857q0 1.429-1 2.429t-2.429 1-2.429-1-1-2.429 1-2.429 2.429-1 2.429 1 1 2.429zM32 14.286v3.429q0 .232-.17.402t-.402.17H9.714q-.232 0-.402-.17t-.17-.402v-3.429q0-.232.17-.402t.402-.17h21.714q.232 0 .402.17t.17.402zm0-9.143v3.429q0 .232-.17.402t-.402.17H9.714q-.232 0-.402-.17t-.17-.402V5.143q0-.232.17-.402t.402-.17h21.714q.232 0 .402.17t.17.402z"/></svg>