<svg xmlns="http://www.w3.org/2000/svg" width="30" height="32" viewBox="0 0 30 32"><path d="M21.25 10.375l5.232-5.232-1.911-1.911-5.232 5.232zm7.982-5.232q0 .482-.321.804L5.947 28.911q-.321.321-.804.321t-.804-.321L.803 25.375q-.321-.321-.321-.804t.321-.804L23.767.803q.321-.321.804-.321t.804.321l3.536 3.536q.321.321.321.804zM5.107 1.75l1.75.536-1.75.536-.536 1.75-.536-1.75-1.75-.536 1.75-.536L4.571 0zm6.25 2.893l3.5 1.071-3.5 1.071-1.071 3.5-1.071-3.5-3.5-1.071 3.5-1.071 1.071-3.5zm16.607 8.536l1.75.536-1.75.536-.536 1.75-.536-1.75-1.75-.536 1.75-.536.536-1.75zM16.536 1.75l1.75.536-1.75.536L16 4.572l-.536-1.75-1.75-.536 1.75-.536L16 0z"/></svg>