<svg xmlns="http://www.w3.org/2000/svg" width="32" height="32" viewBox="0 0 32 32"><path d="M27.429 14.857v2.286q0 3.589-1.759 6.464t-4.893 4.491-7.063 1.616-7.063-1.616-4.893-4.491-1.759-6.464v-2.286q0-.464.339-.804t.804-.339h6.857q.464 0 .804.339t.339.804v2.286q0 .929.42 1.607t.955 1.018 1.268.536 1.143.232.786.036.786-.036 1.143-.232 1.268-.536.955-1.018.42-1.607v-2.286q0-.464.339-.804t.804-.339h6.857q.464 0 .804.339t.339.804zM9.143 3.429v6.857q0 .464-.339.804T8 11.429H1.143q-.464 0-.804-.339T0 10.286V3.429q0-.464.339-.804t.804-.339H8q.464 0 .804.339t.339.804zm18.286 0v6.857q0 .464-.339.804t-.804.339h-6.857q-.464 0-.804-.339t-.339-.804V3.429q0-.464.339-.804t.804-.339h6.857q.464 0 .804.339t.339.804z"/></svg>