<svg xmlns="http://www.w3.org/2000/svg" width="32" height="32" viewBox="0 0 32 32"><path d="M11.429 19.321v1.25q0 .75-.696 1.054-.232.089-.446.089-.482 0-.804-.339L.34 12.232q-.339-.339-.339-.804t.339-.804l9.143-9.143q.518-.554 1.25-.25.696.304.696 1.054v1.232L4.34 10.624q-.339.339-.339.804t.339.804zM32 20q0 1.036-.304 2.384t-.688 2.464-.857 2.232-.723 1.616l-.357.714q-.143.304-.5.304-.107 0-.161-.018-.446-.143-.411-.607.768-7.143-1.893-10.089-1.143-1.268-3.045-1.973t-4.777-.938v4.482q0 .75-.696 1.054-.232.089-.446.089-.482 0-.804-.339l-9.143-9.143q-.339-.339-.339-.804t.339-.804l9.143-9.143q.518-.554 1.25-.25.696.304.696 1.054v4.679q7.339.5 10.696 3.946 3.018 3.089 3.018 9.089z"/></svg>