<svg xmlns="http://www.w3.org/2000/svg" width="32" height="32" viewBox="0 0 32 32"><path d="M32 11.429q0 .464-.339.804l-9.143 9.143q-.339.339-.804.339t-.804-.339-.339-.804v-4.571h-4q-1.75 0-3.134.107t-2.75.384-2.375.759-1.884 1.241-1.429 1.804-.866 2.473-.313 3.232q0 .982.089 2.196 0 .107.045.42t.045.473q0 .268-.152.446t-.42.179q-.286 0-.5-.304-.125-.161-.232-.393t-.241-.536-.188-.429q-2.268-5.089-2.268-8.054 0-3.554.946-5.946 2.893-7.196 15.625-7.196h4V2.286q0-.464.339-.804t.804-.339.804.339l9.143 9.143q.339.339.339.804z"/></svg>