<svg xmlns="http://www.w3.org/2000/svg" width="32" height="32" viewBox="0 0 32 32"><path d="M31.161 5.304q.179.179.179.411t-.179.411l-2.518 2.518q-.5.5-1.214.5h-24q-.464 0-.804-.339t-.339-.804V3.43q0-.464.339-.804t.804-.339h10.286V1.144q0-.464.339-.804t.804-.339h2.286q.464 0 .804.339t.339.804v1.143h9.143q.714 0 1.214.5zm-17.447 16.41h4.571v9.143q0 .464-.339.804t-.804.339h-2.286q-.464 0-.804-.339t-.339-.804v-9.143zm14.857-8q.464 0 .804.339t.339.804v4.571q0 .464-.339.804t-.804.339h-24q-.714 0-1.214-.5L.839 17.553q-.179-.179-.179-.411t.179-.411l2.518-2.518q.5-.5 1.214-.5h9.143v-3.429h4.571v3.429h10.286z"/></svg>