<svg xmlns="http://www.w3.org/2000/svg" width="32" height="32" viewBox="0 0 32 32"><path d="M9.143 0q.232 0 .402.17t.17.402v26.286q0 .357-.304.5L.84 31.929Q.715 32 .572 32q-.232 0-.402-.17T0 31.428V5.142q0-.357.304-.5L8.875.071Q9 0 9.143 0zm22.286 0q.232 0 .402.17t.17.402v26.286q0 .357-.304.5l-8.571 4.571q-.125.071-.268.071-.232 0-.402-.17t-.17-.402V5.142q0-.357.304-.5L31.161.071Q31.286 0 31.429 0zm-20 0q.143 0 .25.054l9.143 4.571q.321.179.321.518v26.286q0 .232-.17.402t-.402.17q-.143 0-.25-.054l-9.143-4.571q-.321-.179-.321-.518V.572q0-.232.17-.402t.402-.17z"/></svg>