<svg xmlns="http://www.w3.org/2000/svg" width="32" height="32" viewBox="0 0 32 32"><path d="M26.286 2.286q.464 0 .804.339t.339.804v7.429q0 .25-.161.411t-.411.161h-1.143q-.25 0-.411-.161t-.161-.411V6.179l-6.821 6.839q2.25 2.786 2.25 6.411 0 2.089-.813 3.991t-2.196 3.286-3.286 2.196-3.991.813-3.991-.813-3.286-2.196T.812 23.42t-.813-3.991.813-3.991 2.196-3.286 3.286-2.196 3.991-.813q3.625 0 6.411 2.25l6.821-6.821h-4.661q-.25 0-.411-.161T18.284 4V2.857q0-.25.161-.411t.411-.161h7.429zm-16 25.143q3.304 0 5.652-2.348t2.348-5.652-2.348-5.652-5.652-2.348-5.652 2.348-2.348 5.652 2.348 5.652 5.652 2.348z"/></svg>