<svg xmlns="http://www.w3.org/2000/svg" width="32" height="32" viewBox="0 0 32 32"><path d="M22.857 20v-3.429q0-.25-.161-.411t-.411-.161h-4v-4q0-.25-.161-.411t-.411-.161h-3.429q-.25 0-.411.161t-.161.411v4h-4q-.25 0-.411.161t-.161.411V20q0 .25.161.411t.411.161h4v4q0 .25.161.411t.411.161h3.429q.25 0 .411-.161t.161-.411v-4h4q.25 0 .411-.161t.161-.411zM11.429 6.857h9.143V4.571h-9.143v2.286zm-6.858 0v22.857H4q-1.643 0-2.821-1.179T0 25.714V10.857q0-1.643 1.179-2.821T4 6.857h.571zm21.143 0v22.857H6.285V6.857h2.857V4q0-.714.5-1.214t1.214-.5h10.286q.714 0 1.214.5t.5 1.214v2.857h2.857zm6.286 4v14.857q0 1.643-1.179 2.821T28 29.714h-.571V6.857H28q1.643 0 2.821 1.179T32 10.857z"/></svg>