<svg xmlns="http://www.w3.org/2000/svg" width="25" height="32" viewBox="0 0 25 32"><path d="M4.839 16.875l-1.804 1.804q-.75-1.839-.75-3.821v-2.286q0-.464.339-.804t.804-.339.804.339.339.804v2.286q0 .946.268 2.018zm19.893-10.75l-6.446 6.446v2.286q0 2.357-1.679 4.036t-4.036 1.679q-.982 0-1.946-.339l-1.714 1.714q1.732.911 3.661.911 3.304 0 5.652-2.348t2.348-5.652v-2.286q0-.464.339-.804t.804-.339.804.339.339.804v2.286q0 3.946-2.634 6.866t-6.509 3.348v2.357h4.571q.464 0 .804.339t.339.804-.339.804-.804.339H6.857q-.464 0-.804-.339t-.339-.804.339-.804.804-.339h4.571v-2.357q-2.232-.232-4.196-1.446l-4.536 4.536q-.179.179-.411.179t-.411-.179L.41 26.698q-.179-.179-.179-.411t.179-.411L22.446 3.84q.179-.179.411-.179t.411.179l1.464 1.464q.179.179.179.411t-.179.411zm-6.786-2.357L6.857 14.857V5.714q0-2.357 1.679-4.036t4.036-1.679q1.821 0 3.295 1.054t2.08 2.714z"/></svg>