<svg xmlns="http://www.w3.org/2000/svg" width="25" height="32" viewBox="0 0 25 32"><path d="M20.571 14.286v1.143q0 .25-.161.411t-.411.161H5.142q-.25 0-.411-.161t-.161-.411v-1.143q0-.25.161-.411t.411-.161h14.857q.25 0 .411.161t.161.411zm2.286 8V7.429q0-1.179-.839-2.018T20 4.572H5.143q-1.179 0-2.018.839t-.839 2.018v14.857q0 1.179.839 2.018t2.018.839H20q1.179 0 2.018-.839t.839-2.018zm2.286-14.857v14.857q0 2.125-1.509 3.634T20 27.429H5.143q-2.125 0-3.634-1.509T0 22.286V7.429q0-2.125 1.509-3.634t3.634-1.509H20q2.125 0 3.634 1.509t1.509 3.634z"/></svg>