<svg xmlns="http://www.w3.org/2000/svg" width="14" height="32" viewBox="0 0 14 32"><path d="M8.286 25.143q0-.589-.42-1.009t-1.009-.42-1.009.42-.42 1.009.42 1.009 1.009.42 1.009-.42.42-1.009zM12 22.286V9.715q0-.232-.17-.402t-.402-.17H2.285q-.232 0-.402.17t-.17.402v12.571q0 .232.17.402t.402.17h9.143q.232 0 .402-.17t.17-.402zM8.571 7.143q0-.286-.286-.286H5.428q-.286 0-.286.286t.286.286h2.857q.286 0 .286-.286zm5.143-.286v18.286q0 .929-.679 1.607t-1.607.679H2.285q-.929 0-1.607-.679t-.679-1.607V6.857q0-.929.679-1.607t1.607-.679h9.143q.929 0 1.607.679t.679 1.607z"/></svg>