<svg xmlns="http://www.w3.org/2000/svg" width="34" height="32" viewBox="0 0 34 32"><path d="M13.714 20.571h6.857v-1.714h-2.286v-8h-2.036l-2.643 2.446 1.375 1.429q.75-.661.982-1.018h.036v5.143h-2.286v1.714zM22.857 16q0 1.25-.375 2.536t-1.063 2.393-1.813 1.804-2.464.696-2.464-.696-1.813-1.804-1.063-2.393T11.427 16t.375-2.536 1.063-2.393 1.813-1.804 2.464-.696 2.464.696 1.813 1.804 1.063 2.393.375 2.536zM32 20.571v-9.143q-1.893 0-3.232-1.339t-1.339-3.232H6.858q0 1.893-1.339 3.232t-3.232 1.339v9.143q1.893 0 3.232 1.339t1.339 3.232h20.571q0-1.893 1.339-3.232T32 20.571zm2.286-14.857v20.571q0 .464-.339.804t-.804.339h-32q-.464 0-.804-.339T0 26.285V5.714q0-.464.339-.804t.804-.339h32q.464 0 .804.339t.339.804z"/></svg>