<svg xmlns="http://www.w3.org/2000/svg" width="32" height="32" viewBox="0 0 32 32"><path d="M22.536 23.268q-.964.161-1.964.161-3.25 0-6.018-1.607t-4.375-4.375-1.607-6.018q0-3.429 1.857-6.375Q6.84 6.125 4.563 9.143T2.286 16q0 2.321.911 4.438t2.438 3.643 3.643 2.438 4.438.911q2.571 0 4.884-1.098t3.938-3.063zm3.625-1.518q-1.679 3.625-5.063 5.795t-7.384 2.17q-2.786 0-5.321-1.089t-4.375-2.929-2.929-4.375T0 16.001q0-2.732 1.027-5.223t2.786-4.313 4.205-2.938 5.179-1.223q.786-.036 1.089.696.321.732-.268 1.286-1.536 1.393-2.348 3.241t-.813 3.902q0 2.643 1.304 4.875t3.536 3.536 4.875 1.304q2.107 0 4.071-.911.732-.321 1.286.232.25.25.313.607t-.08.679z"/></svg>