<svg xmlns="http://www.w3.org/2000/svg" width="41" height="32" viewBox="0 0 41 32"><path d="M41.089 18.5q.214 1.839-.393 3.545t-1.768 2.92-2.83 1.893-3.509.554q-2.875-.196-4.991-2.232t-2.402-4.893q-.214-1.982.491-3.759t2.116-3.045l-1.268-1.911q-1.714 1.429-2.696 3.464t-.982 4.357q0 .482-.33.83t-.813.348H15.91q-.411 2.929-2.661 4.893t-5.25 1.964q-3.304 0-5.652-2.348t-2.348-5.652 2.348-5.652 5.652-2.348q1.357 0 2.714.482l.429-.804Q8.946 9.142 5.713 9.142H4.57q-.464 0-.804-.339t-.339-.804.339-.804.804-.339h2.286q1.393 0 2.589.241t2.08.688 1.277.705.911.652h11.196l-1.518-2.286h-3.964q-.536 0-.875-.402t-.25-.938q.071-.411.411-.679t.768-.268h4.518q.589 0 .946.5l1.25 1.875 2.036-2.036q.339-.339.821-.339h1.804q.464 0 .804.339t.339.804v2.286q0 .464-.339.804t-.804.339H27.66l2.054 3.071q2.339-1.125 4.911-.643 2.554.464 4.357 2.402t2.107 4.527zM8 25.143q2.054 0 3.625-1.295t1.982-3.277H8q-.625 0-.982-.554-.321-.571-.018-1.125l2.625-4.946q-.839-.232-1.625-.232-2.357 0-4.036 1.679t-1.679 4.036 1.679 4.036T8 25.144zm25.143 0q2.357 0 4.036-1.679t1.679-4.036-1.679-4.036-4.036-1.679q-1.071 0-2.161.429l3.107 4.643q.268.411.179.875t-.482.714q-.268.196-.643.196-.625 0-.946-.518l-3.107-4.643q-1.661 1.696-1.661 4.018 0 2.357 1.679 4.036t4.036 1.679z"/></svg>