<svg xmlns="http://www.w3.org/2000/svg" width="32" height="32" viewBox="0 0 32 32"><path d="M27.429 4v20q0 .893-.607 1.589t-1.536 1.08-1.848.571-1.723.188-1.723-.188-1.848-.571-1.536-1.08T16.001 24t.607-1.589 1.536-1.08 1.848-.571 1.723-.188q1.875 0 3.429.696v-9.589L11.43 15.911v12.661q0 .893-.607 1.589t-1.536 1.08-1.848.571T5.716 32t-1.723-.188-1.848-.571-1.536-1.08-.607-1.589.607-1.589 1.536-1.08 1.848-.571 1.723-.188q1.875 0 3.429.696V8.572q0-.554.339-1.009t.875-.634l14.857-4.571q.214-.071.5-.071.714 0 1.214.5t.5 1.214z"/></svg>