<svg xmlns="http://www.w3.org/2000/svg" width="37" height="32" viewBox="0 0 37 32"><path d="M18.286 9.143h-6.857V16h6.857V9.143zm2.285 11.428v2.286H9.142v-2.286h11.429zm0-13.714v11.429H9.142V6.857h11.429zM32 20.571v2.286h-9.143v-2.286H32zM32 16v2.286h-9.143V16H32zm0-4.571v2.286h-9.143v-2.286H32zm0-4.572v2.286h-9.143V6.857H32zM4.571 24V6.857H2.285V24q0 .464.339.804t.804.339.804-.339.339-.804zm29.715 0V4.571H6.857V24q0 .589-.196 1.143h26.482q.464 0 .804-.339t.339-.804zm2.285-21.714V24q0 1.429-1 2.429t-2.429 1H3.428q-1.429 0-2.429-1t-1-2.429V4.571H4.57V2.285h32z"/></svg>