<svg xmlns="http://www.w3.org/2000/svg" width="25" height="32" viewBox="0 0 25 32"><path d="M25.071 24.732q0 2.089-1.411 3.5t-3.5 1.411q-2.411 0-4.196-1.786L2.089 14Q.071 11.946.071 9.161q0-2.839 1.964-4.821t4.804-1.982q2.821 0 4.875 2.018l10.804 10.821q.179.179.179.393 0 .286-.545.83t-.83.545q-.232 0-.411-.179L10.09 5.947Q8.679 4.572 6.858 4.572q-1.893 0-3.196 1.339T2.358 9.143q0 1.875 1.357 3.232L17.572 26.25q1.125 1.125 2.589 1.125 1.143 0 1.893-.75t.75-1.893q0-1.464-1.125-2.589L11.304 11.768q-.464-.429-1.071-.429-.518 0-.857.339t-.339.857q0 .571.446 1.054l7.321 7.321q.179.179.179.393 0 .286-.554.839t-.839.554q-.214 0-.393-.179l-7.321-7.321q-1.125-1.089-1.125-2.661 0-1.464 1.018-2.482t2.482-1.018q1.571 0 2.661 1.125l10.375 10.375q1.786 1.75 1.786 4.196z"/></svg>