<svg xmlns="http://www.w3.org/2000/svg" width="23" height="32" viewBox="0 0 23 32"><path d="M22.821 3.375v1.304q0 .518-.33 1.089t-.759.571q-.893 0-.964.018-.464.107-.571.554-.054.196-.054 1.143v20.571q0 .446-.321.768t-.768.321h-1.929q-.446 0-.768-.321t-.321-.768V6.875h-2.554v21.75q0 .446-.313.768t-.777.321h-1.929q-.464 0-.777-.321t-.313-.768v-8.857q-2.625-.214-4.375-1.054-2.25-1.036-3.429-3.196Q.426 13.429.426 10.893q0-2.964 1.571-5.107 1.571-2.107 3.732-2.839 1.982-.661 7.446-.661h8.554q.446 0 .768.321t.321.768z"/></svg>