<svg xmlns="http://www.w3.org/2000/svg" width="32" height="32" viewBox="0 0 32 32"><path d="M12.571 21.143V10.857q0-.25-.161-.411t-.411-.161H7.428q-.25 0-.411.161t-.161.411v10.286q0 .25.161.411t.411.161h4.571q.25 0 .411-.161t.161-.411zm8 0V10.857q0-.25-.161-.411t-.411-.161h-4.571q-.25 0-.411.161t-.161.411v10.286q0 .25.161.411t.411.161h4.571q.25 0 .411-.161t.161-.411zM27.429 16q0 3.732-1.839 6.884t-4.991 4.991-6.884 1.839-6.884-1.839-4.991-4.991T.001 16 1.84 9.116t4.991-4.991 6.884-1.839 6.884 1.839 4.991 4.991T27.429 16z"/></svg>