<svg xmlns="http://www.w3.org/2000/svg" width="30" height="32" viewBox="0 0 30 32"><path d="M13.929 8.429q0 1.071-.339 2.027t-1.125 1.652-1.875.696q-1.357 0-2.464-1.027t-1.643-2.42-.536-2.696q0-1.071.339-2.027t1.125-1.652 1.875-.696q1.375 0 2.473 1.027t1.634 2.411.536 2.705zm-6.108 8.625q0 1.429-.75 2.482T4.946 20.59q-1.357 0-2.527-.991T.624 17.215t-.625-2.714q0-1.429.75-2.491t2.125-1.063q1.357 0 2.527.991t1.795 2.393.625 2.723zm7.036-.483q2.107 0 4.554 1.741t4.089 4.232 1.643 4.545q0 .821-.304 1.366t-.866.804-1.152.357-1.357.098q-1.214 0-3.348-.804t-3.259-.804q-1.179 0-3.438.795t-3.58.795q-3.268 0-3.268-2.607 0-1.536 1-3.42t2.491-3.438 3.348-2.607 3.446-1.054zm4.268-3.767q-1.089 0-1.875-.696t-1.125-1.652-.339-2.027q0-1.321.536-2.705t1.634-2.411 2.473-1.027q1.089 0 1.875.696t1.125 1.652.339 2.027q0 1.304-.536 2.696t-1.643 2.42-2.464 1.027zm7.714-1.858q1.375 0 2.125 1.063t.75 2.491q0 1.321-.625 2.714t-1.795 2.384-2.527.991q-1.375 0-2.125-1.054t-.75-2.482q0-1.321.625-2.723t1.795-2.393 2.527-.991z"/></svg>