<svg xmlns="http://www.w3.org/2000/svg" width="32" height="32" viewBox="0 0 32 32"><path d="M27.125 11.536q.321 1.5-.071 3.643-1.554 7.929-10.089 7.929h-.786q-.446 0-.786.295t-.429.759l-.071.339-.982 6.179-.036.268q-.089.464-.438.759t-.795.295H8.16q-.375 0-.589-.268t-.161-.643q.161-1 .473-3t.473-3 .482-2.991.482-2.991q.089-.661.768-.661h2.339q2.375.036 4.214-.375 3.125-.696 5.125-2.571 1.821-1.696 2.768-4.393.429-1.25.625-2.375.018-.107.045-.134t.063-.018.107.063q1.411 1.054 1.75 2.893zM24.054 6.5q0 1.911-.821 4.214-1.429 4.161-5.393 5.625-2.018.714-4.5.75 0 .018-1.607.018l-1.607-.018q-1.786 0-2.107 1.714-.036.143-1.518 9.464-.018.179-.214.179H1.019q-.393 0-.652-.295t-.205-.688L4.305 1.195q.089-.518.491-.857t.92-.339h10.679q.607 0 1.741.232t1.991.571q1.911.732 2.92 2.196t1.009 3.5z"/></svg>