<svg xmlns="http://www.w3.org/2000/svg" width="32" height="32" viewBox="0 0 32 32"><path d="M7.214 19.786L9.928 22.5l-.929.929h-1v-1.714H6.285v-1zm7.393-6.965q.25.232-.054.536l-5.196 5.196q-.304.304-.536.054-.25-.232.054-.536l5.196-5.196q.304-.304.536-.054zM9.714 25.143l9.714-9.714-5.143-5.143L4.571 20v5.143h5.143zm10.857-10.857l1.643-1.643q.5-.5.5-1.214t-.5-1.214L19.5 7.501q-.5-.5-1.214-.5t-1.214.5l-1.643 1.643zm6.858-6.857v17.143q0 2.125-1.509 3.634t-3.634 1.509H5.143q-2.125 0-3.634-1.509T0 24.572V7.429q0-2.125 1.509-3.634t3.634-1.509h17.143q2.125 0 3.634 1.509t1.509 3.634z"/></svg>