<svg xmlns="http://www.w3.org/2000/svg" width="32" height="32" viewBox="0 0 32 32"><path d="M22.857 22.857q0-.929-.679-1.607t-1.607-.679-1.607.679-.679 1.607.679 1.607 1.607.679 1.607-.679.679-1.607zM9.143 9.143q0-.929-.679-1.607t-1.607-.679-1.607.679-.679 1.607.679 1.607 1.607.679 1.607-.679.679-1.607zm18.286 13.714q0 2.839-2.009 4.848t-4.848 2.009-4.848-2.009-2.009-4.848 2.009-4.848T20.572 16t4.848 2.009 2.009 4.848zM25.714 3.429q0 .357-.232.679L6.625 29.251q-.339.464-.911.464H2.857q-.464 0-.804-.339t-.339-.804q0-.357.232-.679L20.803 2.75q.339-.464.911-.464h2.857q.464 0 .804.339t.339.804zm-12 5.714q0 2.839-2.009 4.848T6.857 16t-4.848-2.009T0 9.143t2.009-4.848 4.848-2.009 4.848 2.009 2.009 4.848z"/></svg>