<svg xmlns="http://www.w3.org/2000/svg" width="32" height="32" viewBox="0 0 32 32"><path d="M21.143 16q0 .661-.571.982l-9.714 5.714q-.268.161-.571.161-.286 0-.571-.143-.571-.339-.571-1V10.285q0-.661.571-1 .589-.321 1.143.018l9.714 5.714q.571.321.571.982zm2.286 0q0-2.643-1.304-4.875t-3.536-3.536-4.875-1.304-4.875 1.304-3.536 3.536T3.999 16t1.304 4.875 3.536 3.536 4.875 1.304 4.875-1.304 3.536-3.536T23.429 16zm4 0q0 3.732-1.839 6.884t-4.991 4.991-6.884 1.839-6.884-1.839-4.991-4.991T.001 16 1.84 9.116t4.991-4.991 6.884-1.839 6.884 1.839 4.991 4.991T27.429 16z"/></svg>