<svg xmlns="http://www.w3.org/2000/svg" width="32" height="32" viewBox="0 0 32 32"><path d="M21.714 17.143v-2.286q0-.464-.339-.804t-.804-.339H16V9.143q0-.464-.339-.804T14.857 8h-2.286q-.464 0-.804.339t-.339.804v4.571H6.857q-.464 0-.804.339t-.339.804v2.286q0 .464.339.804t.804.339h4.571v4.571q0 .464.339.804t.804.339h2.286q.464 0 .804-.339t.339-.804v-4.571h4.571q.464 0 .804-.339t.339-.804zM27.429 16q0 3.732-1.839 6.884t-4.991 4.991-6.884 1.839-6.884-1.839-4.991-4.991T.001 16 1.84 9.116t4.991-4.991 6.884-1.839 6.884 1.839 4.991 4.991T27.429 16z"/></svg>