<svg xmlns="http://www.w3.org/2000/svg" width="32" height="32" viewBox="0 0 32 32"><path d="M22.857 17.143v-2.286q0-.464-.339-.804t-.804-.339H16V8q0-.464-.339-.804t-.804-.339h-2.286q-.464 0-.804.339T11.428 8v5.714H5.714q-.464 0-.804.339t-.339.804v2.286q0 .464.339.804t.804.339h5.714V24q0 .464.339.804t.804.339h2.286q.464 0 .804-.339T16 24v-5.714h5.714q.464 0 .804-.339t.339-.804zm4.572-9.714v17.143q0 2.125-1.509 3.634t-3.634 1.509H5.143q-2.125 0-3.634-1.509T0 24.572V7.429q0-2.125 1.509-3.634t3.634-1.509h17.143q2.125 0 3.634 1.509t1.509 3.634z"/></svg>