<svg xmlns="http://www.w3.org/2000/svg" width="30" height="32" viewBox="0 0 30 32"><path d="M6.857 27.429h16v-4.571h-16v4.571zm0-11.429h16V9.143H20q-.714 0-1.214-.5t-.5-1.214V4.572H6.857v11.429zm20.572 1.143q0-.464-.339-.804T26.286 16t-.804.339-.339.804.339.804.804.339.804-.339.339-.804zm2.285 0v7.429q0 .232-.17.402t-.402.17h-4v2.857q0 .714-.5 1.214t-1.214.5H6.285q-.714 0-1.214-.5t-.5-1.214v-2.857h-4q-.232 0-.402-.17t-.17-.402v-7.429q0-1.411 1.009-2.42t2.42-1.009h1.143V4q0-.714.5-1.214t1.214-.5h12q.714 0 1.571.357t1.357.857l2.714 2.714q.5.5.857 1.357t.357 1.571v4.571h1.143q1.411 0 2.42 1.009t1.009 2.42z"/></svg>