<svg xmlns="http://www.w3.org/2000/svg" width="30" height="32" viewBox="0 0 30 32"><path d="M29.714 19.607q0 1.446-.795 2.411t-2.205.964q-.732 0-1.384-.313t-1.054-.679-1.009-.679-1.268-.313q-1.964 0-1.964 2.214 0 .696.286 2.054t.268 2.054v.089q-.393 0-.589.018-.607.054-1.741.205t-2.063.241-1.75.089q-1.089 0-1.839-.473t-.75-1.491q0-.661.313-1.268t.679-1.009.679-1.054.313-1.384q0-1.411-.964-2.205t-2.411-.795q-1.5 0-2.554.813t-1.054 2.277q0 .768.268 1.482t.598 1.152.598.946.268.902q0 .804-.821 1.589-.661.625-2.089.625-1.696 0-4.375-.429-.161-.036-.491-.071t-.491-.071l-.232-.036q-.018 0-.054-.018-.036 0-.036-.018V9.14q.036.018.313.063t.607.089.384.063q2.679.429 4.375.429 1.429 0 2.089-.625.821-.786.821-1.589 0-.393-.268-.902t-.598-.946-.598-1.152-.268-1.482q0-1.464 1.054-2.277t2.571-.813q1.429 0 2.393.795t.964 2.205q0 .732-.313 1.384t-.679 1.054-.679 1.009-.313 1.268q0 1.018.75 1.491t1.839.473q1.143 0 3.214-.268t2.911-.304v.036q-.018.036-.063.313t-.089.607-.063.384q-.429 2.679-.429 4.375 0 1.429.625 2.089.786.821 1.589.821.393 0 .902-.268t.946-.598 1.152-.598 1.482-.268q1.464 0 2.277 1.054t.813 2.554z"/></svg>