<svg xmlns="http://www.w3.org/2000/svg" width="32" height="32" viewBox="0 0 32 32"><path d="M16 24.571v-3.429q0-.25-.161-.411t-.411-.161h-3.429q-.25 0-.411.161t-.161.411v3.429q0 .25.161.411t.411.161h3.429q.25 0 .411-.161t.161-.411zm4.571-12q0-1.571-.991-2.911t-2.473-2.071-3.036-.732q-4.339 0-6.625 3.804-.268.429.143.75l2.357 1.786q.125.107.339.107.286 0 .446-.214.946-1.214 1.536-1.643.607-.429 1.536-.429.857 0 1.527.464t.67 1.054q0 .679-.357 1.089t-1.214.804q-1.125.5-2.063 1.545t-.938 2.241v.643q0 .25.161.411t.411.161h3.429q.25 0 .411-.161t.161-.411q0-.339.384-.884t.973-.884q.571-.321.875-.509t.821-.625.795-.857.5-1.08.223-1.446zM27.429 16q0 3.732-1.839 6.884t-4.991 4.991-6.884 1.839-6.884-1.839-4.991-4.991T.001 16 1.84 9.116t4.991-4.991 6.884-1.839 6.884 1.839 4.991 4.991T27.429 16z"/></svg>