<svg xmlns="http://www.w3.org/2000/svg" width="18" height="32" viewBox="0 0 18 32"><path d="M12.571 22.429v4.286q0 .286-.214.5t-.5.214H7.571q-.286 0-.5-.214t-.214-.5v-4.286q0-.286.214-.5t.5-.214h4.286q.286 0 .5.214t.214.5zm5.643-10.715q0 .964-.277 1.804t-.625 1.366-.982 1.063-1.027.777-1.089.634q-.732.411-1.223 1.161t-.491 1.196q0 .304-.214.58t-.5.277H7.5q-.268 0-.455-.33t-.188-.67v-.804q0-1.482 1.161-2.795t2.554-1.938q1.054-.482 1.5-1t.446-1.357q0-.75-.83-1.321t-1.92-.571q-1.161 0-1.929.518-.625.446-1.911 2.054-.232.286-.554.286-.214 0-.446-.143l-2.929-2.232q-.232-.179-.277-.446t.098-.5q2.857-4.75 8.286-4.75 1.429 0 2.875.554t2.607 1.482 1.893 2.277.732 2.83z"/></svg>