<svg xmlns="http://www.w3.org/2000/svg" width="30" height="32" viewBox="0 0 30 32"><path d="M13.714 17.143V24q0 1.429-1 2.429t-2.429 1H3.428q-1.429 0-2.429-1t-1-2.429V11.429q0-1.857.723-3.545t1.955-2.92 2.92-1.955 3.545-.723h1.143q.464 0 .804.339t.339.804v2.286q0 .464-.339.804t-.804.339H9.142q-1.893 0-3.232 1.339t-1.339 3.232V12q0 .714.5 1.214t1.214.5h4q1.429 0 2.429 1t1 2.429zm16 0V24q0 1.429-1 2.429t-2.429 1h-6.857q-1.429 0-2.429-1t-1-2.429V11.429q0-1.857.723-3.545t1.955-2.92 2.92-1.955 3.545-.723h1.143q.464 0 .804.339t.339.804v2.286q0 .464-.339.804t-.804.339h-1.143q-1.893 0-3.232 1.339t-1.339 3.232V12q0 .714.5 1.214t1.214.5h4q1.429 0 2.429 1t1 2.429z"/></svg>