<svg xmlns="http://www.w3.org/2000/svg" width="32" height="32" viewBox="0 0 32 32"><path d="M11.893 8.589q-1.071 1.643-2.446 4.875-.393-.804-.661-1.295t-.723-1.134-.911-1.009-1.125-.625-1.455-.259h-4q-.25 0-.411-.161T0 8.57V5.141q0-.25.161-.411t.411-.161h4q4.464 0 7.321 4.018zM32 22.857q0 .25-.161.411l-5.714 5.714q-.161.161-.411.161-.232 0-.402-.17t-.17-.402v-3.429q-.571 0-1.518.009t-1.446.018-1.304-.018-1.268-.089-1.143-.188-1.125-.33-1.036-.509-1.054-.714-.982-.955-1-1.241q1.054-1.661 2.429-4.875.393.804.661 1.295t.723 1.134.911 1.009 1.125.625 1.455.259h4.571v-3.429q0-.25.161-.411t.411-.161q.214 0 .429.179l5.696 5.696q.161.161.161.411zm0-16q0 .25-.161.411l-5.714 5.714q-.161.161-.411.161-.232 0-.402-.17t-.17-.402V9.142h-4.571q-.857 0-1.554.268t-1.232.804-.911 1.098-.804 1.384q-.571 1.107-1.393 3.054-.518 1.179-.884 1.982t-.964 1.875-1.143 1.786-1.321 1.482-1.607 1.223-1.902.75-2.286.295h-4q-.25 0-.411-.161t-.161-.411v-3.429q0-.25.161-.411t.411-.161h4q.857 0 1.554-.268t1.232-.804.911-1.098.804-1.384q.571-1.107 1.393-3.054.518-1.179.884-1.982t.964-1.875 1.143-1.786 1.321-1.482 1.607-1.223 1.902-.75 2.286-.295h4.571V1.14q0-.25.161-.411t.411-.161q.214 0 .429.179l5.696 5.696q.161.161.161.411z"/></svg>