<svg xmlns="http://www.w3.org/2000/svg" width="32" height="32" viewBox="0 0 32 32"><path d="M14.929 20.875l-.268 6.571-.036.393-7.5-.518q-.643-.054-1.196-.563t-.839-1.17q-.196-.482-.259-.982t.071-1.161.214-.982.384-1.143.339-.946q1.393.214 9.089.5zM8.018 10.411l3.214 6.768-2.625-1.643q-1.125 1.286-1.991 2.58t-1.295 2.232-.705 1.688-.33 1.125l-.071.375-3.393-6.375q-.304-.464-.321-1t.107-.839l.143-.321q.625-1.125 2.036-3.357l-2.5-1.536zM30 19.643l-3.357 6.411q-.214.518-.652.83t-.777.366l-.321.071q-1.268.125-3.911.214l.143 2.929-4.107-6.554 3.768-6.464.125 3.089q3.036.286 5.054.089t3.036-.589zm-14.018-16.5q-.839 1.125-4.732 7.768L5.589 7.572l-.339-.214 4.018-6.357q.357-.554 1.071-.804t1.429-.179q.429.036.866.214t.75.375.741.589.643.616.643.705.571.625zm11.697 5.482l3.786 6.482q.321.661.223 1.357t-.491 1.321q-.232.357-.589.661t-.679.5-.866.393-.839.286-.92.25-.821.214q-.607-1.286-4.732-7.786l5.589-3.482zm-2.554-4.036l2.536-1.482-3.929 6.661-7.482-.357 2.696-1.536q-.607-1.589-1.339-2.964t-1.348-2.205-1.152-1.429-.839-.83l-.304-.232 7.232.018q.554-.054 1.036.188t.696.509l.196.268q.696 1.089 2 3.393z"/></svg>