<svg xmlns="http://www.w3.org/2000/svg" width="32" height="32" viewBox="0 0 32 32"><path d="M26.982 18.857q0 .089-.018.125-1.143 4.786-4.786 7.759t-8.536 2.973q-2.607 0-5.045-.982t-4.348-2.804l-2.304 2.304q-.339.339-.804.339t-.804-.339-.339-.804v-8q0-.464.339-.804t.804-.339h8q.464 0 .804.339t.339.804-.339.804l-2.446 2.446q1.268 1.179 2.875 1.821t3.339.643q2.393 0 4.464-1.161t3.321-3.196q.196-.304.946-2.089.143-.411.536-.411h3.429q.232 0 .402.17t.17.402zm.447-14.286v8q0 .464-.339.804t-.804.339h-8q-.464 0-.804-.339t-.339-.804.339-.804l2.464-2.464q-2.643-2.446-6.232-2.446-2.393 0-4.464 1.161t-3.321 3.196q-.196.304-.946 2.089-.143.411-.536.411H.893q-.232 0-.402-.17t-.17-.402v-.125q1.161-4.786 4.821-7.759t8.571-2.973q2.607 0 5.071.991t4.375 2.795l2.321-2.304q.339-.339.804-.339t.804.339.339.804z"/></svg>