<svg xmlns="http://www.w3.org/2000/svg" width="32" height="32" viewBox="0 0 32 32"><path d="M18.607 12.554q0-1.571-1.071-2.161-.589-.321-2.089-.321h-2.196v5.018h2.893q1.179 0 1.821-.661t.643-1.875zm.929 5.089l3.661 6.661q.143.304-.018.554-.143.286-.482.286h-2.714q-.357 0-.5-.304l-3.464-6.518h-2.768v6.25q0 .25-.161.411t-.411.161h-2.393q-.25 0-.411-.161t-.161-.411V7.429q0-.25.161-.411t.411-.161h5.25q2.286 0 3.393.429 1.518.554 2.393 1.946t.875 3.214q0 1.643-.759 2.955t-2.063 1.955q.107.179.161.286zM16 2.857q-2.679 0-5.107 1.045T6.705 6.706t-2.804 4.188-1.045 5.107 1.045 5.107 2.804 4.188 4.188 2.804T16 29.145t5.107-1.045 4.188-2.804 2.804-4.188 1.045-5.107-1.045-5.107-2.804-4.188-4.188-2.804T16 2.857zM32 16q0 3.25-1.268 6.214t-3.411 5.107-5.107 3.411T16 32t-6.214-1.268-5.107-3.411-3.411-5.107T0 16t1.268-6.214 3.411-5.107 5.107-3.411T16 0t6.214 1.268 5.107 3.411 3.411 5.107T32 16z"/></svg>