<svg xmlns="http://www.w3.org/2000/svg" width="32" height="32" viewBox="0 0 32 32"><path d="M27.429 4.571v8q0 .464-.339.804t-.804.339h-8q-.75 0-1.054-.714-.304-.696.25-1.232l2.464-2.464q-2.643-2.446-6.232-2.446-1.857 0-3.545.723t-2.92 1.955-1.955 2.92-.723 3.545.723 3.545 1.955 2.92 2.92 1.955 3.545.723q2.125 0 4.018-.929t3.196-2.625q.125-.179.411-.214.25 0 .446.161l2.446 2.464q.161.143.17.366t-.134.402q-1.946 2.357-4.714 3.652t-5.839 1.295q-2.786 0-5.321-1.089t-4.375-2.929-2.929-4.375T0 16.002t1.089-5.321 2.929-4.375 4.375-2.929 5.321-1.089q2.625 0 5.08.991t4.366 2.795l2.321-2.304q.518-.554 1.25-.25.696.304.696 1.054z"/></svg>