<svg xmlns="http://www.w3.org/2000/svg" width="32" height="32" viewBox="0 0 32 32"><path d="M9.143 22.857q0-.946-.67-1.616t-1.616-.67-1.616.67-.67 1.616.67 1.616 1.616.67 1.616-.67.67-1.616zm6.268 1.679q-.232-4.143-3.161-7.071t-7.071-3.161q-.25-.018-.429.161t-.179.411v2.286q0 .232.152.393t.384.179q2.75.196 4.714 2.161t2.161 4.714q.018.232.179.384t.393.152h2.286q.232 0 .411-.179t.161-.429zm6.857.018q-.089-2.75-1-5.313t-2.491-4.643-3.661-3.661-4.643-2.491-5.313-1q-.25-.018-.411.161-.179.179-.179.411v2.286q0 .232.161.393t.393.179q3.643.125 6.75 1.991t4.973 4.973 1.991 6.75q.018.232.179.393t.393.161h2.286q.232 0 .411-.179.196-.161.161-.411zm5.161-17.125v17.143q0 2.125-1.509 3.634t-3.634 1.509H5.143q-2.125 0-3.634-1.509T0 24.572V7.429q0-2.125 1.509-3.634t3.634-1.509h17.143q2.125 0 3.634 1.509t1.509 3.634z"/></svg>