<svg xmlns="http://www.w3.org/2000/svg" width="23" height="32" viewBox="0 0 23 32"><path d="M18.625 10.089q0-1.786-1.161-2.893T14.41 6.089H8.696v8h5.714q1.893 0 3.054-1.107t1.161-2.893zm4.232 0q0 3.446-2.259 5.625t-5.83 2.179H8.697V20h9.018q.25 0 .411.161t.161.411v2.286q0 .25-.161.411t-.411.161H8.697v3.429q0 .25-.17.411t-.402.161H5.143q-.25 0-.411-.161t-.161-.411V23.43h-4q-.25 0-.411-.161t-.161-.411v-2.286q0-.25.161-.411T.571 20h4v-2.107h-4q-.25 0-.411-.161t-.161-.411V14.66q0-.232.161-.402t.411-.17h4V2.856q0-.25.161-.411t.411-.161h9.625q3.571 0 5.83 2.179t2.259 5.625z"/></svg>