<svg xmlns="http://www.w3.org/2000/svg" width="32" height="32" viewBox="0 0 32 32"><path d="M16.946 15.946q0 .464-.295.804t-.741.339q-.464 0-.804-.295t-.339-.741q0-.464.304-.804t.75-.339.786.295.339.741zm.268 1.036l6.25-10.375q-.161.143-1.205 1.116t-2.241 2.08-2.438 2.268-2.089 1.973-.902.92L8.357 25.321q.125-.125 1.196-1.107t2.25-2.08 2.429-2.268 2.089-1.982.893-.902zM28.768 16q0 3.589-1.857 6.625l-.304-.196q-.25-.16-.473-.295T25.839 22q-.232 0-.232.232 0 .179 1.054.786-1.321 2-3.295 3.402t-4.313 1.973l-.286-1.196q-.018-.179-.268-.179-.089 0-.143.098t-.036.17l.286 1.214q-1.286.268-2.607.268-3.554 0-6.643-1.875.018-.036.232-.366t.384-.598.17-.339q0-.232-.232-.232-.107 0-.304.259t-.402.616-.241.411q-2.018-1.339-3.429-3.348T3.57 18.93l1.232-.268q.179-.054.179-.268 0-.089-.098-.143t-.188-.036l-1.214.268q-.25-1.286-.25-2.482 0-3.679 1.946-6.768.036.018.33.214t.536.339.313.143q.232 0 .232-.214 0-.107-.223-.277t-.58-.384l-.357-.214q1.375-2 3.375-3.375t4.357-1.911l.268 1.196q.036.179.268.179.089 0 .143-.098t.036-.188l-.268-1.179q1.268-.232 2.393-.232 3.643 0 6.768 1.946-.696 1-.696 1.161 0 .232.214.232.196 0 .857-1.143 1.982 1.339 3.348 3.321t1.92 4.304l-1 .214q-.179.036-.179.286 0 .089.098.143t.17.036l1.018-.232q.25 1.286.25 2.5zm1.518 0q0-2.911-1.134-5.554t-3.045-4.554-4.554-3.045-5.554-1.134-5.554 1.134-4.554 3.045-3.045 4.554T1.712 16t1.134 5.554 3.045 4.554 4.554 3.045 5.554 1.134 5.554-1.134 4.554-3.045 3.045-4.554T30.286 16zM32 16q0 3.25-1.268 6.214t-3.411 5.107-5.107 3.411T16 32t-6.214-1.268-5.107-3.411-3.411-5.107T0 16t1.268-6.214 3.411-5.107 5.107-3.411T16 0t6.214 1.268 5.107 3.411 3.411 5.107T32 16z"/></svg>