<svg xmlns="http://www.w3.org/2000/svg" width="32" height="32" viewBox="0 0 32 32"><path d="M6.857 27.429h13.714v-6.857H6.857v6.857zm16 0h2.286v-16q0-.25-.179-.688t-.357-.616l-5.018-5.018q-.179-.179-.607-.357t-.696-.179V12q0 .714-.5 1.214t-1.214.5H6.286q-.714 0-1.214-.5T4.572 12V4.571H2.286v22.857h2.286v-7.429q0-.714.5-1.214t1.214-.5h14.857q.714 0 1.214.5t.5 1.214v7.429zM16 10.857V5.143q0-.232-.17-.402t-.402-.17h-3.429q-.232 0-.402.17t-.17.402v5.714q0 .232.17.402t.402.17h3.429q.232 0 .402-.17t.17-.402zm11.429.572V28q0 .714-.5 1.214t-1.214.5h-24q-.714 0-1.214-.5T.001 28V4q0-.714.5-1.214t1.214-.5h16.571q.714 0 1.571.357t1.357.857l5 5q.5.5.857 1.357t.357 1.571z"/></svg>