<svg xmlns="http://www.w3.org/2000/svg" width="32" height="32" viewBox="0 0 32 32"><path d="M17.143 16q.464 0 .804.339t.339.804-.339.804-.804.339-.804-.339-.339-.804.339-.804.804-.339zm5.357 1.143l9.054 7.107q.5.357.446 1-.089.625-.625.911l-2.286 1.143q-.232.125-.518.125-.304 0-.554-.143l-12.321-6.911-1.964 1.179q-.143.071-.214.089.25.875.179 1.732-.125 1.375-1 2.634t-2.357 2.205q-2.357 1.5-4.946 1.5-2.429 0-3.964-1.393-1.607-1.5-1.411-3.696.125-1.357 1-2.625t2.339-2.214q2.357-1.5 4.964-1.5 1.482 0 2.696.554.161-.232.393-.393l2.179-1.304-2.179-1.304q-.232-.161-.393-.393Q9.804 16 8.322 16q-2.607 0-4.964-1.5-1.464-.946-2.339-2.214t-1-2.625Q-.07 8.607.296 7.643T1.43 5.982q1.518-1.411 3.964-1.411 2.589 0 4.946 1.5 1.482.929 2.357 2.196t1 2.643q.071.857-.179 1.732.071.018.214.089l1.964 1.179 12.321-6.911q.25-.143.554-.143.286 0 .518.125l2.286 1.143q.536.286.625.911.054.643-.446 1zM10.339 12.5q.821-.75.375-1.929T8.821 8.482Q7.178 7.428 5.392 7.428q-1.321 0-2.018.643-.821.75-.375 1.929t1.893 2.089q1.643 1.054 3.429 1.054 1.321 0 2.018-.643zM8.821 25.804q1.446-.911 1.893-2.089t-.375-1.929q-.696-.643-2.018-.643-1.786 0-3.429 1.054-1.446.911-1.893 2.089t.375 1.929q.696.643 2.018.643 1.786 0 3.429-1.054zM12 14.857l1.714 1.036v-.196q0-.643.589-1l.25-.143-1.411-.839-.464.464q-.054.054-.179.196t-.214.214q-.036.036-.071.063t-.054.045zm4 4l1.714.571L30.857 9.142l-2.286-1.143-13.714 7.696v2.018L12 19.427l.161.143q.036.036.125.107.071.071.196.214t.196.214l.464.464zm12.571 7.429l2.286-1.143-9.286-7.286-3.161 2.464q-.036.054-.232.125z"/></svg>