<svg xmlns="http://www.w3.org/2000/svg" width="32" height="32" viewBox="0 0 32 32"><path d="M2.286 25.143h18.286v-2.286H2.286v2.286zm0-9.143h18.286v-2.286H2.286V16zm28 8q0-.714-.5-1.214t-1.214-.5-1.214.5-.5 1.214.5 1.214 1.214.5 1.214-.5.5-1.214zm-28-17.143h18.286V4.571H2.286v2.286zm28 8q0-.714-.5-1.214t-1.214-.5-1.214.5-.5 1.214.5 1.214 1.214.5 1.214-.5.5-1.214zm0-9.143q0-.714-.5-1.214T28.572 4t-1.214.5-.5 1.214.5 1.214 1.214.5 1.214-.5.5-1.214zM32 20.571v6.857H0v-6.857h32zm0-9.142v6.857H0v-6.857h32zm0-9.143v6.857H0V2.286h32z"/></svg>