<svg xmlns="http://www.w3.org/2000/svg" width="32" height="32" viewBox="0 0 32 32"><path d="M17.946 19.661l6.286-6.286q.339-.339.339-.804t-.339-.804l-6.286-6.286q-.536-.554-1.232-.25Q16 5.535 16 6.285v2.857q-2.125 0-3.857.348t-2.902.911-2.036 1.411-1.366 1.705-.795 1.946-.384 1.991-.089 1.973q0 3.232 2.982 7.214.179.214.446.214.125 0 .232-.054.393-.161.339-.589-.786-6.321 1.107-8.446.821-.929 2.321-1.348t4-.42v2.857q0 .75.714 1.054.214.089.429.089.464 0 .804-.339zm9.483-12.232v17.143q0 2.125-1.509 3.634t-3.634 1.509H5.143q-2.125 0-3.634-1.509T0 24.572V7.429q0-2.125 1.509-3.634t3.634-1.509h17.143q2.125 0 3.634 1.509t1.509 3.634z"/></svg>