<svg xmlns="http://www.w3.org/2000/svg" width="30" height="32" viewBox="0 0 30 32"><path d="M25.143 17.661v4.625q0 2.125-1.509 3.634T20 27.429H5.143q-2.125 0-3.634-1.509T0 22.286V7.429q0-2.125 1.509-3.634t3.634-1.509h4.554q.232 0 .402.17t.17.402q0 .482-.464.571Q8.43 3.893 7.43 4.5q-.179.071-.286.071h-2q-1.179 0-2.018.839t-.839 2.018v14.857q0 1.179.839 2.018t2.018.839h14.857q1.179 0 2.018-.839t.839-2.018v-3.821q0-.339.321-.518.5-.232.964-.661.286-.286.625-.143.375.161.375.518zm4.232-8.857l-6.857 6.857q-.321.339-.804.339-.214 0-.446-.089-.696-.304-.696-1.054v-3.429h-2.857q-5.768 0-7.821 2.339-2.125 2.446-1.321 8.446.054.411-.357.607-.143.036-.214.036-.286 0-.464-.232-.179-.25-.375-.554t-.705-1.223-.884-1.777-.688-2.036-.313-2.179q0-.875.063-1.625t.25-1.607.5-1.571.839-1.455 1.223-1.321 1.687-1.098 2.223-.866 2.848-.545 3.509-.196h2.857V1.142q0-.75.696-1.054.232-.089.446-.089.464 0 .804.339l6.857 6.857q.339.339.339.804t-.339.804z"/></svg>