<svg xmlns="http://www.w3.org/2000/svg" width="37" height="32" viewBox="0 0 37 32"><path d="M32.339 27.768q.339-.339.804-.339t.804.339l2.286 2.286-1.607 1.607-1.482-1.482-1.482 1.482q-.321.339-.804.339t-.804-.339l-1.482-1.482-1.482 1.482q-.339.339-.804.339t-.804-.339L24 30.179l-1.482 1.482q-.339.339-.804.339t-.804-.339l-1.482-1.482-1.482 1.482q-.339.339-.804.339t-.804-.339l-1.482-1.482-1.482 1.482q-.339.339-.804.339t-.804-.339l-1.482-1.482-1.482 1.482Q8.463 32 7.998 32t-.804-.339l-1.482-1.482-1.482 1.482Q3.891 32 3.426 32t-.804-.339L.336 29.375l1.607-1.607 1.482 1.482 1.482-1.482q.339-.339.804-.339t.804.339l1.482 1.482 1.482-1.482q.339-.339.804-.339t.804.339l1.482 1.482 1.482-1.482q.339-.339.804-.339t.804.339l1.482 1.482 1.482-1.482q.339-.339.804-.339t.804.339l1.482 1.482 1.482-1.482q.339-.339.804-.339t.804.339l1.482 1.482 1.482-1.482q.339-.339.804-.339t.804.339l1.482 1.482zm-28.107-.679q-.339.339-.804.339t-.804-.339L.338 24.803l1.607-1.607 1.482 1.464 1.482-1.464q.339-.339.804-.339t.804.339l1.482 1.464 1.143-1.143v-5.232l-3.75-5.607q-.304-.464-.125-1.009t.714-.723L9.142 9.91V4.571h2.286V2.285h4.571V-.001h4.571v2.286h4.571v2.286h2.286V9.91l3.161 1.036q.536.179.714.723t-.125 1.009l-3.75 5.607v5.232l.339-.321q.339-.339.804-.339t.804.339l1.482 1.464 1.482-1.464q.339-.339.804-.339t.804.339l2.286 2.286-1.607 1.607-1.482-1.482-1.482 1.482q-.321.339-.804.339t-.804-.339l-1.482-1.482-1.482 1.482q-.339.339-.804.339t-.804-.339l-1.482-1.482-1.482 1.482q-.339.339-.804.339t-.804-.339l-1.482-1.482-1.482 1.482q-.339.339-.804.339t-.804-.339l-1.482-1.482-1.482 1.482q-.339.339-.804.339t-.804-.339l-1.482-1.482-1.482 1.482q-.339.339-.804.339t-.804-.339l-1.482-1.482zm7.197-20.232v2.286l6.857-2.286 6.857 2.286V6.857h-2.286V4.571h-9.143v2.286h-2.286z"/></svg>