<svg xmlns="http://www.w3.org/2000/svg" width="37" height="32" viewBox="0 0 37 32"><path d="M34.286 13.714q.946 0 1.616.67t.67 1.616-.67 1.616-1.616.67h-.268l-2.054 11.821q-.143.821-.786 1.357T29.714 32H6.857q-.821 0-1.464-.536t-.786-1.357L2.553 18.286h-.268q-.946 0-1.616-.67T-.001 16t.67-1.616 1.616-.67h32zM8.661 28q.464-.036.777-.402t.277-.83l-.571-7.429q-.036-.464-.402-.777t-.83-.277-.777.402-.277.83l.571 7.429q.036.446.366.75t.777.304h.089zM16 26.857v-7.429q0-.464-.339-.804t-.804-.339-.804.339-.339.804v7.429q0 .464.339.804t.804.339.804-.339.339-.804zm6.857 0v-7.429q0-.464-.339-.804t-.804-.339-.804.339-.339.804v7.429q0 .464.339.804t.804.339.804-.339.339-.804zm6.286.089l.571-7.429q.036-.464-.277-.83t-.777-.402-.83.277-.402.777l-.571 7.429q-.036.464.277.83t.777.402H28q.446 0 .777-.304t.366-.75zM8.5 5.214l-1.661 7.357H4.482l1.804-7.875q.339-1.571 1.589-2.563t2.857-.991h2.982q0-.464.339-.804t.804-.339h6.857q.464 0 .804.339t.339.804h2.982q1.607 0 2.857.991t1.589 2.563l1.804 7.875h-2.357l-1.661-7.357q-.196-.786-.813-1.286t-1.42-.5h-2.982q0 .464-.339.804t-.804.339h-6.857q-.464 0-.804-.339t-.339-.804h-2.982q-.804 0-1.42.5t-.813 1.286z"/></svg>