<svg xmlns="http://www.w3.org/2000/svg" width="32" height="32" viewBox="0 0 32 32"><path d="M31.375 25.143L32 30.732q.054.5-.286.893-.339.375-.857.375H1.143q-.518 0-.857-.375-.339-.393-.286-.893l.625-5.589h30.75zm-1.661-14.982L31.25 24H.75l1.536-13.839q.054-.429.375-.723t.768-.295H8v2.286q0 .946.67 1.616t1.616.67 1.616-.67.67-1.616V9.143h6.857v2.286q0 .946.67 1.616t1.616.67 1.616-.67.67-1.616V9.143h4.571q.446 0 .768.295t.375.723zm-6.857-3.304v4.571q0 .464-.339.804t-.804.339-.804-.339-.339-.804V6.857q0-1.893-1.339-3.232T16 2.286t-3.232 1.339-1.339 3.232v4.571q0 .464-.339.804t-.804.339-.804-.339-.339-.804V6.857q0-2.839 2.009-4.848T16 0t4.848 2.009 2.009 4.848z"/></svg>