<svg xmlns="http://www.w3.org/2000/svg" width="32" height="32" viewBox="0 0 32 32"><path d="M21.143 16q0 .464-.339.804l-9.714 9.714q-.339.339-.804.339t-.804-.339-.339-.804v-5.143h-8q-.464 0-.804-.339T0 19.428v-6.857q0-.464.339-.804t.804-.339h8V6.285q0-.464.339-.804t.804-.339.804.339l9.714 9.714q.339.339.339.804zm6.286-6.286v12.571q0 2.125-1.509 3.634t-3.634 1.509h-5.714q-.232 0-.402-.17t-.17-.402q0-.071-.018-.357t-.009-.473.054-.42.179-.348.366-.116h5.714q1.179 0 2.018-.839t.839-2.018V9.714q0-1.179-.839-2.018t-2.018-.839h-5.571l-.205-.018-.205-.054-.143-.098-.125-.161-.036-.241q0-.071-.018-.357t-.009-.473.054-.42.179-.348.366-.116h5.714q2.125 0 3.634 1.509t1.509 3.634z"/></svg>