<svg xmlns="http://www.w3.org/2000/svg" width="30" height="32" viewBox="0 0 30 32"><path d="M11.429 25.714q0 .071.018.357t.009.473-.054.42-.179.348-.366.116H5.143q-2.125 0-3.634-1.509T0 22.285V9.714Q0 7.589 1.509 6.08t3.634-1.509h5.714q.232 0 .402.17t.17.402q0 .071.018.357t.009.473-.054.42-.179.348-.366.116H5.143q-1.179 0-2.018.839t-.839 2.018v12.571q0 1.179.839 2.018t2.018.839h5.571l.205.018.205.054.143.098.125.161.036.241zM28 16q0 .464-.339.804l-9.714 9.714q-.339.339-.804.339t-.804-.339-.339-.804v-5.143H8q-.464 0-.804-.339t-.339-.804v-6.857q0-.464.339-.804T8 11.428h8V6.285q0-.464.339-.804t.804-.339.804.339l9.714 9.714q.339.339.339.804z"/></svg>