<svg xmlns="http://www.w3.org/2000/svg" width="32" height="32" viewBox="0 0 32 32"><path d="M21.714 28v3.429q0 .25-.161.411t-.411.161h-4.571q-.25 0-.411-.161t-.161-.411V28q0-.25.161-.411t.411-.161h4.571q.25 0 .411.161t.161.411zm-8.571-2.286q0 .214-.179.429l-5.696 5.696Q7.089 32 6.857 32q-.214 0-.411-.161L.732 26.125q-.268-.286-.125-.625.143-.357.536-.357h3.429V.572q0-.25.161-.411T5.144 0h3.429q.25 0 .411.161t.161.411v24.571h3.429q.25 0 .411.161t.161.411zm12-6.857v3.429q0 .25-.161.411t-.411.161h-8q-.25 0-.411-.161t-.161-.411v-3.429q0-.25.161-.411t.411-.161h8q.25 0 .411.161t.161.411zm3.428-9.143v3.429q0 .25-.161.411t-.411.161H16.57q-.25 0-.411-.161t-.161-.411V9.714q0-.25.161-.411t.411-.161h11.429q.25 0 .411.161t.161.411zM32 .571V4q0 .25-.161.411t-.411.161H16.571q-.25 0-.411-.161T15.999 4V.571q0-.25.161-.411t.411-.161h14.857q.25 0 .411.161T32 .571z"/></svg>