<svg xmlns="http://www.w3.org/2000/svg" width="30" height="32" viewBox="0 0 30 32"><path d="M21.268 25.571h3.161l-1.286-3.893-.214-.839q-.036-.286-.036-.357h-.071l-.054.357q0 .018-.063.321t-.134.518zm-8.125.143q0 .214-.179.429l-5.696 5.696Q7.089 32 6.857 32q-.214 0-.411-.161L.732 26.125q-.268-.286-.125-.625.143-.357.536-.357h3.429V.572q0-.25.161-.411T5.144 0h3.429q.25 0 .411.161t.161.411v24.571h3.429q.25 0 .411.161t.161.411zm16.518 4.393V32h-5.143v-1.893h1.339l-.839-2.571h-4.339l-.839 2.571h1.339V32h-5.125v-1.893h1.25l4.107-11.821h2.893l4.107 11.821h1.25zm-1.59-20.553v4.161H17.642v-1.607l6.589-9.446q.214-.321.375-.482l.196-.161v-.054q-.036 0-.116.009t-.134.009q-.214.054-.536.054h-4.143v2.054H17.73V.002h10.125v1.589l-6.589 9.464q-.107.143-.375.464l-.196.179v.054l.25-.054q.161-.018.536-.018h4.429V9.555h2.161z"/></svg>