<svg xmlns="http://www.w3.org/2000/svg" width="32" height="32" viewBox="0 0 32 32"><path d="M24.036 5.161q0-1.125-.786-2.071t-1.839-.946q-.929 0-1.482.661t-.554 1.679.652 1.696 1.866.679q.893 0 1.518-.482t.625-1.214zM13.143 25.714q0 .214-.179.429l-5.696 5.696Q7.089 32 6.857 32q-.214 0-.411-.161L.732 26.125q-.268-.286-.125-.625.143-.357.536-.357h3.429V.572q0-.25.161-.411T5.144 0h3.429q.25 0 .411.161t.161.411v24.571h3.429q.25 0 .411.161t.161.411zM26 29.964V32h-8.375v-2.036h2.982V22.25q0-.125.009-.339t.009-.304v-.286h-.036l-.125.214q-.143.232-.464.554l-1.107 1.036-1.464-1.536 3.429-3.304h2.196v11.679H26zm.536-23.768q0 1.107-.232 2.17t-.732 2.036-1.214 1.705-1.759 1.17-2.277.438q-1.107 0-1.929-.286-.429-.143-.75-.268l.696-2.018q.268.125.554.196.661.232 1.339.232 1.5 0 2.402-1.045t1.188-2.598h-.036q-.375.411-1.098.661t-1.509.25q-1.893 0-3.089-1.277t-1.196-3.08q0-1.875 1.286-3.179t3.232-1.304q2.196 0 3.661 1.688t1.464 4.509z"/></svg>