<svg xmlns="http://www.w3.org/2000/svg" width="32" height="32" viewBox="0 0 32 32"><path d="M9.393 24.893q0 .946-.67 1.616t-1.616.67q-.929 0-1.607-.679t-.679-1.607q0-.946.67-1.616t1.616-.67 1.616.67.67 1.616zm8.893 3.678q0 .946-.67 1.616t-1.616.67-1.616-.67-.67-1.616.67-1.616 1.616-.67 1.616.67.67 1.616zM5.714 16q0 .946-.67 1.616t-1.616.67-1.616-.67T1.142 16t.67-1.616 1.616-.67 1.616.67.67 1.616zm21.465 8.893q0 .929-.679 1.607t-1.607.679q-.946 0-1.616-.67t-.67-1.616.67-1.616 1.616-.67 1.616.67.67 1.616zM9.964 7.107q0 1.179-.839 2.018t-2.018.839-2.018-.839-.839-2.018.839-2.018 2.018-.839 2.018.839.839 2.018zM30.857 16q0 .946-.67 1.616t-1.616.67-1.616-.67-.67-1.616.67-1.616 1.616-.67 1.616.67.67 1.616zM19.429 3.429q0 1.429-1 2.429t-2.429 1-2.429-1-1-2.429 1-2.429T16 0t2.429 1 1 2.429zm9.464 3.678q0 1.661-1.179 2.83t-2.821 1.17q-1.661 0-2.83-1.17t-1.17-2.83q0-1.643 1.17-2.821t2.83-1.179q1.643 0 2.821 1.179t1.179 2.821z"/></svg>