<svg xmlns="http://www.w3.org/2000/svg" width="30" height="32" viewBox="0 0 30 32"><path d="M21.179 17.089l4.589-4.464-7.536-1.107-.536-1.071-2.839-5.75v17.196l1.054.554 5.679 3-1.071-6.339-.214-1.179zm8.071-4.678l-6.482 6.321 1.536 8.929q.089.589-.107.92t-.607.33q-.304 0-.714-.214l-8.018-4.214-8.018 4.214q-.411.214-.714.214-.411 0-.607-.33t-.107-.92l1.536-8.929-6.5-6.321q-.571-.571-.411-1.063t.964-.616l8.964-1.304 4.018-8.125q.357-.732.875-.732.5 0 .875.732l4.018 8.125 8.964 1.304q.804.125.964.616t-.429 1.063z"/></svg>