<svg xmlns="http://www.w3.org/2000/svg" width="25" height="32" viewBox="0 0 25 32"><path d="M22.857 12.571q0-.464-.339-.804t-.804-.339-.804.339-.339.804.339.804.804.339.804-.339.339-.804zm2.286 0q0 1.107-.634 1.982t-1.652 1.25v7.054q0 2.839-2.348 4.848t-5.652 2.009-5.652-2.009-2.348-4.848V20.5q-2.929-.357-4.893-2.286T0 13.714V4.571q0-.464.339-.804t.804-.339q.107 0 .286.036.304-.536.839-.857t1.161-.321q.946 0 1.616.67t.67 1.616-.67 1.616-1.616.67q-.589 0-1.143-.321v7.179q0 1.893 1.679 3.232t4.036 1.339 4.036-1.339 1.679-3.232V6.537q-.554.321-1.143.321-.946 0-1.616-.67t-.67-1.616.67-1.616 1.616-.67q.625 0 1.161.321t.839.857q.179-.036.286-.036.464 0 .804.339t.339.804v9.143q0 2.571-1.964 4.5T9.145 20.5v2.357q0 1.893 1.679 3.232t4.036 1.339 4.036-1.339 1.679-3.232v-7.054q-1.018-.375-1.652-1.25t-.634-1.982q0-1.429 1-2.429t2.429-1 2.429 1 1 2.429z"/></svg>