<svg xmlns="http://www.w3.org/2000/svg" width="32" height="32" viewBox="0 0 32 32"><path d="M13.714 2.286q3.732 0 6.884 1.839t4.991 4.991T27.428 16t-1.839 6.884-4.991 4.991-6.884 1.839-6.884-1.839-4.991-4.991T0 16t1.839-6.884T6.83 4.125t6.884-1.839zm0 23.428q2.643 0 4.875-1.304t3.536-3.536 1.304-4.875-1.304-4.875-3.536-3.536-4.875-1.304-4.875 1.304-3.536 3.536-1.304 4.875 1.304 4.875 3.536 3.536 4.875 1.304zm-5.143-4q-.25 0-.411-.161t-.161-.411V10.856q0-.25.161-.411t.411-.161h10.286q.25 0 .411.161t.161.411v10.286q0 .25-.161.411t-.411.161H8.571z"/></svg>