<svg xmlns="http://www.w3.org/2000/svg" width="32" height="32" viewBox="0 0 32 32"><path d="M25.143 27.429q0 1.125-1.098 2.027t-2.929 1.446-4.018.821-4.527.277-4.527-.277-4.018-.821-2.929-1.446-1.098-2.027q0-.875.589-1.58t1.625-1.188 2.107-.795 2.339-.527q.464-.089.857.188t.464.741q.089.464-.188.857t-.741.464q-1.036.179-1.893.42t-1.366.455-.866.42-.491.348-.152.214q.054.196.482.473t1.304.589 2.036.58 2.866.446 3.598.179 3.598-.179 2.866-.446 2.036-.589 1.304-.598.482-.491q-.018-.071-.152-.196t-.491-.339-.866-.42-1.366-.446-1.893-.42q-.464-.071-.741-.464t-.188-.857q.071-.464.464-.741t.857-.188q1.268.214 2.339.527t2.107.795 1.625 1.188.589 1.58zm-6.857-16v6.857q0 .464-.339.804t-.804.339H16v6.857q0 .464-.339.804t-.804.339h-4.571q-.464 0-.804-.339t-.339-.804v-6.857H8q-.464 0-.804-.339t-.339-.804v-6.857q0-.946.67-1.616t1.616-.67H16q.946 0 1.616.67t.67 1.616zm-1.715-6.858q0 1.661-1.17 2.83t-2.83 1.17-2.83-1.17-1.17-2.83 1.17-2.83 2.83-1.17 2.83 1.17 1.17 2.83z"/></svg>