<svg xmlns="http://www.w3.org/2000/svg" width="32" height="32" viewBox="0 0 32 32"><path d="M31.429 16q.25 0 .411.161t.161.411v1.143q0 .25-.161.411t-.411.161H.572q-.25 0-.411-.161T0 17.715v-1.143q0-.25.161-.411T.572 16h30.857zM8.625 14.857q-.5-.625-.911-1.429-.857-1.732-.857-3.357 0-3.232 2.393-5.518 2.375-2.268 7.018-2.268.893 0 2.982.339 1.179.214 3.161.857.179.679.375 2.107.25 2.196.25 3.268 0 .321-.089.804l-.214.054-1.5-.107-.25-.036Q20.09 6.91 19.144 5.91q-1.571-1.625-3.75-1.625-2.036 0-3.25 1.054-1.196 1.036-1.196 2.607 0 1.304 1.179 2.5t4.982 2.304q1.232.357 3.089 1.179 1.036.5 1.696.929H8.626zm9.054 4.572h7.339q.125.696.125 1.643 0 1.982-.732 3.786-.411.982-1.268 1.857-.661.625-1.946 1.446-1.429.857-2.732 1.179-1.429.375-3.625.375-2.036 0-3.482-.411l-2.5-.714q-1.018-.286-1.286-.5-.143-.143-.143-.393v-.232q0-1.929-.036-2.786-.018-.536 0-1.214l.036-.661v-.786l1.821-.036q.268.607.536 1.268t.402 1 .223.482q.625 1.018 1.429 1.679.768.643 1.875 1.018 1.054.393 2.357.393 1.143 0 2.482-.482 1.375-.464 2.179-1.536.839-1.089.839-2.304 0-1.5-1.446-2.804-.607-.518-2.446-1.268z"/></svg>