<svg xmlns="http://www.w3.org/2000/svg" width="32" height="32" viewBox="0 0 32 32"><path d="M19.429 0q3.304 0 5.652 1.67t2.348 4.045v16q0 2.321-2.241 3.964t-5.455 1.732l3.804 3.607q.286.268.143.625t-.536.357H4.287q-.393 0-.536-.357t.143-.625l3.804-3.607q-3.214-.089-5.455-1.732T.002 21.715v-16q0-2.375 2.348-4.045T8.002 0h11.429zM5.143 23.429q1.179 0 2.018-.839T8 20.572t-.839-2.018-2.018-.839-2.018.839-.839 2.018.839 2.018 2.018.839zm7.428-9.715V4.571H2.857v9.143h9.714zm9.715 9.715q1.179 0 2.018-.839t.839-2.018-.839-2.018-2.018-.839-2.018.839-.839 2.018.839 2.018 2.018.839zm2.857-9.715V4.571H14.857v9.143h10.286z"/></svg>