<svg xmlns="http://www.w3.org/2000/svg" width="32" height="32" viewBox="0 0 32 32"><path d="M26.286 16q0-2.089-.813-3.991t-2.196-3.286-3.286-2.196T16 5.714t-3.991.813-3.286 2.196-2.196 3.286T5.714 16t.813 3.991 2.196 3.286 3.286 2.196 3.991.813 3.991-.813 3.286-2.196 2.196-3.286.813-3.991zm4.928 4.946q-.071.268-.357.357l-5.214 1.714v5.464q0 .286-.232.464-.268.179-.518.071l-5.214-1.679-3.214 4.429q-.179.232-.464.232t-.464-.232l-3.214-4.429-5.214 1.679q-.25.107-.518-.071-.232-.179-.232-.464v-5.464l-5.214-1.714q-.286-.089-.357-.357-.089-.304.071-.518l3.214-4.429L.859 11.57q-.161-.232-.071-.518.071-.268.357-.357l5.214-1.714V3.517q0-.286.232-.464.268-.179.518-.071l5.214 1.679L15.537.232q.161-.214.464-.214t.464.214l3.214 4.429 5.214-1.679q.25-.107.518.071.232.179.232.464v5.464l5.214 1.714q.286.089.357.357.089.286-.071.518l-3.214 4.429 3.214 4.429q.161.214.071.518z"/></svg>