<svg xmlns="http://www.w3.org/2000/svg" width="30" height="32" viewBox="0 0 30 32"><path d="M9.143 24.571v-3.429q0-.25-.161-.411t-.411-.161H2.857q-.25 0-.411.161t-.161.411v3.429q0 .25.161.411t.411.161h5.714q.25 0 .411-.161t.161-.411zm0-6.857v-3.429q0-.25-.161-.411t-.411-.161H2.857q-.25 0-.411.161t-.161.411v3.429q0 .25.161.411t.411.161h5.714q.25 0 .411-.161t.161-.411zm9.143 6.857v-3.429q0-.25-.161-.411t-.411-.161H12q-.25 0-.411.161t-.161.411v3.429q0 .25.161.411t.411.161h5.714q.25 0 .411-.161t.161-.411zM9.143 10.857V7.428q0-.25-.161-.411t-.411-.161H2.857q-.25 0-.411.161t-.161.411v3.429q0 .25.161.411t.411.161h5.714q.25 0 .411-.161t.161-.411zm9.143 6.857v-3.429q0-.25-.161-.411t-.411-.161H12q-.25 0-.411.161t-.161.411v3.429q0 .25.161.411t.411.161h5.714q.25 0 .411-.161t.161-.411zm9.143 6.857v-3.429q0-.25-.161-.411t-.411-.161h-5.714q-.25 0-.411.161t-.161.411v3.429q0 .25.161.411t.411.161h5.714q.25 0 .411-.161t.161-.411zm-9.143-13.714V7.428q0-.25-.161-.411t-.411-.161H12q-.25 0-.411.161t-.161.411v3.429q0 .25.161.411t.411.161h5.714q.25 0 .411-.161t.161-.411zm9.143 6.857v-3.429q0-.25-.161-.411t-.411-.161h-5.714q-.25 0-.411.161t-.161.411v3.429q0 .25.161.411t.411.161h5.714q.25 0 .411-.161t.161-.411zm0-6.857V7.428q0-.25-.161-.411t-.411-.161h-5.714q-.25 0-.411.161t-.161.411v3.429q0 .25.161.411t.411.161h5.714q.25 0 .411-.161t.161-.411zm2.285-5.714v19.429q0 1.179-.839 2.018t-2.018.839h-24q-1.179 0-2.018-.839T0 24.572V5.143q0-1.179.839-2.018t2.018-.839h24q1.179 0 2.018.839t.839 2.018z"/></svg>