<svg xmlns="http://www.w3.org/2000/svg" width="34" height="32" viewBox="0 0 34 32"><path d="M8 8q0-.946-.67-1.616t-1.616-.67-1.616.67T3.428 8t.67 1.616 1.616.67 1.616-.67T8 8zm19.054 10.286q0 .946-.661 1.607l-8.768 8.786q-.696.661-1.625.661-.946 0-1.607-.661L1.625 15.893q-.679-.661-1.152-1.804T0 12V4.571q0-.929.679-1.607t1.607-.679h7.429q.946 0 2.089.473t1.821 1.152l12.768 12.75q.661.696.661 1.625zm6.857 0q0 .946-.661 1.607l-8.768 8.786q-.696.661-1.625.661-.643 0-1.054-.25t-.946-.804l8.393-8.393q.661-.661.661-1.607 0-.929-.661-1.625L16.482 3.911q-.679-.679-1.821-1.152t-2.089-.473h4q.946 0 2.089.473t1.821 1.152l12.768 12.75q.661.696.661 1.625z"/></svg>