<svg xmlns="http://www.w3.org/2000/svg" width="32" height="32" viewBox="0 0 32 32"><path d="M18.286 25.143h11.429v-2.286H18.286v2.286zM11.429 16h18.286v-2.286H11.429V16zm11.428-9.143h6.857V4.571h-6.857v2.286zM32 21.714v4.571q0 .464-.339.804t-.804.339H1.143q-.464 0-.804-.339T0 26.285v-4.571q0-.464.339-.804t.804-.339h29.714q.464 0 .804.339t.339.804zm0-9.143v4.571q0 .464-.339.804t-.804.339H1.143q-.464 0-.804-.339T0 17.142v-4.571q0-.464.339-.804t.804-.339h29.714q.464 0 .804.339t.339.804zm0-9.142V8q0 .464-.339.804t-.804.339H1.143q-.464 0-.804-.339T0 8V3.429q0-.464.339-.804t.804-.339h29.714q.464 0 .804.339t.339.804z"/></svg>