<svg xmlns="http://www.w3.org/2000/svg" width="37" height="32" viewBox="0 0 37 32"><path d="M32.571 16q1.661 0 2.83 1.17t1.17 2.83v6.857q0 .25-.161.411t-.411.161h-1.714v1.143q0 1.429-1 2.429t-2.429 1-2.429-1-1-2.429v-1.143H9.141v1.143q0 1.429-1 2.429t-2.429 1-2.429-1-1-2.429v-1.143H.569q-.25 0-.411-.161t-.161-.411V20q0-1.661 1.17-2.83T3.997 16h.5l1.875-7.482q.411-1.679 1.857-2.813t3.196-1.134h2.286v-4q0-.25.161-.411t.411-.161h8q.25 0 .411.161t.161.411v4h2.286q1.75 0 3.196 1.134t1.857 2.813L32.069 16h.5zM5.714 24.571q1.179 0 2.018-.839t.839-2.018-.839-2.018-2.018-.839-2.018.839-.839 2.018.839 2.018 2.018.839zM9.214 16h18.143l-1.589-6.375q-.036-.143-.25-.313t-.375-.17H11.429q-.161 0-.375.17t-.25.313zm21.643 8.571q1.179 0 2.018-.839t.839-2.018-.839-2.018-2.018-.839-2.018.839T28 21.714t.839 2.018 2.018.839z"/></svg>