<svg xmlns="http://www.w3.org/2000/svg" width="32" height="32" viewBox="0 0 32 32"><path d="M31.143 25.143q.589 0 .75.33t-.196.795l-2.25 2.893q-.357.464-.875.464t-.875-.464l-2.25-2.893q-.357-.464-.196-.795t.75-.33h1.429V6.857h-1.429q-.589 0-.75-.33t.196-.795l2.25-2.893q.357-.464.875-.464t.875.464l2.25 2.893q.357.464.196.795t-.75.33h-1.429v18.286h1.429zM1.446 2.304l.964.482q.214.089 3.768.089.786 0 2.357-.036t2.357-.036q.643 0 1.92.009t1.92.009h5.232q.107 0 .375.009t.366 0 .286-.054.313-.161.268-.313l.75-.018q.071 0 .25.009t.25.009q.036 2 .036 6 0 1.429-.089 1.946-.696.25-1.214.321-.446-.786-.964-2.286-.054-.161-.196-.857t-.259-1.313-.134-.634q-.107-.143-.214-.223t-.277-.107-.232-.045-.321-.009-.295.009q-.304 0-1.188-.009t-1.33-.009-1.143.036-1.268.107q-.161 1.446-.143 2.429 0 1.679.036 6.929t.036 8.125q0 .286-.045 1.277t0 1.634.223 1.232q.714.375 2.214.759t2.143.67q.089.714.089.893 0 .25-.054.518l-.607.018q-1.357.036-3.893-.143t-3.696-.179q-.893 0-2.696.161t-2.714.161q-.054-.911-.054-.929v-.161q.304-.482 1.098-.768t1.759-.518 1.393-.482q.339-.75.339-6.839 0-1.804-.054-5.411t-.054-5.411V7.105q0-.036.009-.277t.009-.446-.018-.455T9 5.498t-.089-.25q-.196-.214-2.893-.214-.589 0-1.661.214t-1.429.464q-.339.232-.607 1.295t-.563 1.982-.759.955q-.75-.464-1-.786V2.319z"/></svg>