<svg xmlns="http://www.w3.org/2000/svg" width="32" height="32" viewBox="0 0 32 32"><path d="M1.446 2.304l.964.482q.214.089 3.768.089.786 0 2.357-.036t2.357-.036q1.25 0 4.402-.018t5.438-.009 4.411.08q.589.018 1-.554l.75-.018q.071 0 .25.009t.25.009q.036 2 .036 6 0 1.429-.089 1.946-.696.25-1.214.321-.446-.786-.964-2.286-.054-.161-.196-.848t-.268-1.313-.125-.643q-.179-.232-.482-.339-.089-.036-1.179-.036-.536 0-1.661-.018t-1.839-.018-1.679.036-1.714.125q-.161 1.446-.143 2.429l.018 2.714v-.929q0 .982.018 2.75t.027 3.214.009 2.732q0 .286-.045 1.277t0 1.634.223 1.232q.714.375 2.214.759t2.143.67q.089.714.089.893 0 .25-.054.518l-.607.018q-1.357.036-3.893-.143t-3.696-.179q-.893 0-2.696.161t-2.714.161q-.054-.911-.054-.929v-.161q.304-.482 1.098-.768t1.759-.518 1.393-.482q.125-.286.205-1.321t.107-2.598.027-2.768-.009-2.741-.009-1.589q0-.125-.045-.384t-.045-.402q0-.125.009-.786t.018-1.304 0-1.366-.054-1.205-.116-.571Q11 5.033 8.303 5.033q-.732 0-2.911.241t-2.464.438q-.339.214-.607 1.277T1.758 8.98t-.759.964q-.75-.464-1-.786V2.319zm21.947 22.892q.214 0 .75.348t1.027.741 1.063.875.643.536q.464.375.464.875t-.464.875q-.071.054-.643.536t-1.063.875-1.027.741-.75.348q-.232 0-.366-.188t-.179-.509-.045-.598.027-.589.027-.348H4.571q0 .036.027.348t.027.589-.045.598-.179.509-.366.188q-.214 0-.75-.348t-1.027-.741-1.063-.875-.643-.536q-.464-.375-.464-.875t.464-.875q.071-.054.643-.536t1.063-.875 1.027-.741.75-.348q.232 0 .366.188t.179.509.045.598-.027.589-.027.348h18.286q0-.036-.027-.348t-.027-.589.045-.598.179-.509.366-.188z"/></svg>