<svg xmlns="http://www.w3.org/2000/svg" width="30" height="32" viewBox="0 0 30 32"><path d="M13.714 18.286v6.857q0 .929-.679 1.607t-1.607.679H2.285q-.929 0-1.607-.679t-.679-1.607v-6.857q0-.929.679-1.607T2.285 16h9.143q.929 0 1.607.679t.679 1.607zm0-13.715v6.857q0 .929-.679 1.607t-1.607.679H2.285q-.929 0-1.607-.679t-.679-1.607V4.571q0-.929.679-1.607t1.607-.679h9.143q.929 0 1.607.679t.679 1.607zm16 13.715v6.857q0 .929-.679 1.607t-1.607.679h-9.143q-.929 0-1.607-.679t-.679-1.607v-6.857q0-.929.679-1.607T18.285 16h9.143q.929 0 1.607.679t.679 1.607zm0-13.715v6.857q0 .929-.679 1.607t-1.607.679h-9.143q-.929 0-1.607-.679t-.679-1.607V4.571q0-.929.679-1.607t1.607-.679h9.143q.929 0 1.607.679t.679 1.607z"/></svg>