<svg xmlns="http://www.w3.org/2000/svg" width="32" height="32" viewBox="0 0 32 32"><path d="M9.143 22.286v3.429q0 .714-.5 1.214t-1.214.5H1.715q-.714 0-1.214-.5t-.5-1.214v-3.429q0-.714.5-1.214t1.214-.5h5.714q.714 0 1.214.5t.5 1.214zm0-9.143v3.429q0 .714-.5 1.214t-1.214.5H1.715q-.714 0-1.214-.5t-.5-1.214v-3.429q0-.714.5-1.214t1.214-.5h5.714q.714 0 1.214.5t.5 1.214zm11.428 9.143v3.429q0 .714-.5 1.214t-1.214.5h-5.714q-.714 0-1.214-.5t-.5-1.214v-3.429q0-.714.5-1.214t1.214-.5h5.714q.714 0 1.214.5t.5 1.214zM9.143 4v3.429q0 .714-.5 1.214t-1.214.5H1.715q-.714 0-1.214-.5t-.5-1.214V4q0-.714.5-1.214t1.214-.5h5.714q.714 0 1.214.5T9.143 4zm11.428 9.143v3.429q0 .714-.5 1.214t-1.214.5h-5.714q-.714 0-1.214-.5t-.5-1.214v-3.429q0-.714.5-1.214t1.214-.5h5.714q.714 0 1.214.5t.5 1.214zM32 22.286v3.429q0 .714-.5 1.214t-1.214.5h-5.714q-.714 0-1.214-.5t-.5-1.214v-3.429q0-.714.5-1.214t1.214-.5h5.714q.714 0 1.214.5t.5 1.214zM20.571 4v3.429q0 .714-.5 1.214t-1.214.5h-5.714q-.714 0-1.214-.5t-.5-1.214V4q0-.714.5-1.214t1.214-.5h5.714q.714 0 1.214.5t.5 1.214zM32 13.143v3.429q0 .714-.5 1.214t-1.214.5h-5.714q-.714 0-1.214-.5t-.5-1.214v-3.429q0-.714.5-1.214t1.214-.5h5.714q.714 0 1.214.5t.5 1.214zM32 4v3.429q0 .714-.5 1.214t-1.214.5h-5.714q-.714 0-1.214-.5t-.5-1.214V4q0-.714.5-1.214t1.214-.5h5.714q.714 0 1.214.5T32 4z"/></svg>