<svg xmlns="http://www.w3.org/2000/svg" width="21" height="32" viewBox="0 0 21 32"><path d="M8.571 15.429v-8q0-.25-.161-.411t-.411-.161-.411.161-.161.411v8q0 .25.161.411t.411.161.411-.161.161-.411zm12 6.285q0 .464-.339.804t-.804.339h-7.661l-.911 8.625q-.036.214-.188.366t-.366.152h-.018q-.482 0-.571-.482l-1.357-8.661H1.142q-.464 0-.804-.339t-.339-.804q0-2.196 1.402-3.955T4.571 16V6.857q-.929 0-1.607-.679t-.679-1.607.679-1.607 1.607-.679H16q.929 0 1.607.679t.679 1.607-.679 1.607T16 6.857V16q1.768 0 3.17 1.759t1.402 3.955z"/></svg>