<svg xmlns="http://www.w3.org/2000/svg" width="32" height="32" viewBox="0 0 32 32"><path d="M18.286 8.071l5.643 5.643-10.214 10.214-5.643-5.643zm-3.768 17.483l11.036-11.036q.339-.339.339-.804t-.339-.804L19.09 6.446q-.321-.321-.804-.321t-.804.321L6.446 17.482q-.339.339-.339.804t.339.804l6.464 6.464q.321.321.804.321t.804-.321zm15.875-11.375L14.197 30.393q-.661.661-1.616.661t-1.616-.661l-2.25-2.25q1-1 1-2.429t-1-2.429-2.429-1-2.429 1l-2.232-2.25q-.661-.661-.661-1.616t.661-1.616L17.821 1.624q.661-.661 1.616-.661t1.616.661l2.232 2.232q-1 1-1 2.429t1 2.429 2.429 1 2.429-1l2.25 2.232q.661.661.661 1.616t-.661 1.616z"/></svg>