<svg xmlns="http://www.w3.org/2000/svg" width="32" height="32" viewBox="0 0 32 32"><path d="M20.518 20.036q0-.464-.339-.804L16.947 16l3.232-3.232q.339-.339.339-.804 0-.482-.339-.821l-1.607-1.607q-.339-.339-.821-.339-.464 0-.804.339l-3.232 3.232-3.232-3.232q-.339-.339-.804-.339-.482 0-.821.339l-1.607 1.607q-.339.339-.339.821 0 .464.339.804L10.483 16l-3.232 3.232q-.339.339-.339.804 0 .482.339.821l1.607 1.607q.339.339.821.339.464 0 .804-.339l3.232-3.232 3.232 3.232q.339.339.804.339.482 0 .821-.339l1.607-1.607q.339-.339.339-.821zM27.429 16q0 3.732-1.839 6.884t-4.991 4.991-6.884 1.839-6.884-1.839-4.991-4.991T.001 16 1.84 9.116t4.991-4.991 6.884-1.839 6.884 1.839 4.991 4.991T27.429 16z"/></svg>