<svg xmlns="http://www.w3.org/2000/svg" width="32" height="32" viewBox="0 0 32 32"><path d="M19.589 19.268l-2.607 2.607q-.179.179-.411.179t-.411-.179l-2.446-2.446-2.446 2.446q-.179.179-.411.179t-.411-.179l-2.607-2.607q-.179-.179-.179-.411t.179-.411L10.285 16l-2.446-2.446q-.179-.179-.179-.411t.179-.411l2.607-2.607q.179-.179.411-.179t.411.179l2.446 2.446 2.446-2.446q.179-.179.411-.179t.411.179l2.607 2.607q.179.179.179.411t-.179.411L17.143 16l2.446 2.446q.179.179.179.411t-.179.411zM23.429 16q0-2.643-1.304-4.875t-3.536-3.536-4.875-1.304-4.875 1.304-3.536 3.536T3.999 16t1.304 4.875 3.536 3.536 4.875 1.304 4.875-1.304 3.536-3.536T23.429 16zm4 0q0 3.732-1.839 6.884t-4.991 4.991-6.884 1.839-6.884-1.839-4.991-4.991T.001 16 1.84 9.116t4.991-4.991 6.884-1.839 6.884 1.839 4.991 4.991T27.429 16z"/></svg>