<svg xmlns="http://www.w3.org/2000/svg" width="18" height="32" viewBox="0 0 18 32"><path d="M9.143 20.571q0-.643-.357-1.232-.018-.018-.277-.402t-.455-.679-.446-.786-.375-.902q-.071-.286-.375-.286t-.375.286q-.125.411-.375.902t-.446.786-.455.679-.277.402q-.357.589-.357 1.232 0 .946.67 1.616t1.616.67 1.616-.67.67-1.616zm9.143-2.285q0 3.786-2.679 6.464t-6.464 2.679-6.464-2.679T0 18.286q0-2.589 1.446-4.911.107-.161 1.116-1.616t1.804-2.696 1.777-3.179 1.482-3.598q.161-.536.607-.839t.911-.304.92.304.598.839q.5 1.661 1.482 3.598t1.777 3.179 1.804 2.696 1.116 1.616q1.446 2.268 1.446 4.911z"/></svg>