<svg xmlns="http://www.w3.org/2000/svg" width="37" height="32" viewBox="0 0 37 32"><path d="M20.571 16q0-1.857-.723-3.545t-1.955-2.92-2.92-1.955-3.545-.723-3.545.723-2.92 1.955-1.955 2.92T2.285 16t.723 3.545 1.955 2.92 2.92 1.955 3.545.723 3.545-.723 2.92-1.955 1.955-2.92.723-3.545zm13.715 0q0-1.857-.723-3.545t-1.955-2.92-2.92-1.955-3.545-.723H18.25q2.125 1.607 3.366 4T22.857 16t-1.241 5.143-3.366 4h6.893q1.857 0 3.545-.723t2.92-1.955 1.955-2.92.723-3.545zm2.285 0q0 2.321-.911 4.438t-2.438 3.643-3.643 2.438-4.438.911H11.427q-2.321 0-4.438-.911t-3.643-2.438-2.438-3.643T-.003 16t.911-4.438 2.438-3.643 3.643-2.438 4.438-.911h13.714q2.321 0 4.438.911t3.643 2.438 2.438 3.643.911 4.438z"/></svg>