<svg xmlns="http://www.w3.org/2000/svg" width="37" height="32" viewBox="0 0 37 32"><path d="M0 16q0-2.321.911-4.438t2.438-3.643 3.643-2.438 4.438-.911h13.714q2.321 0 4.438.911t3.643 2.438 2.438 3.643.911 4.438-.911 4.438-2.438 3.643-3.643 2.438-4.438.911H11.43q-2.321 0-4.438-.911t-3.643-2.438-2.438-3.643T0 16zm25.143 9.143q1.857 0 3.545-.723t2.92-1.955 1.955-2.92.723-3.545-.723-3.545-1.955-2.92-2.92-1.955-3.545-.723-3.545.723-2.92 1.955-1.955 2.92T16 16t.723 3.545 1.955 2.92 2.92 1.955 3.545.723z"/></svg>