<svg xmlns="http://www.w3.org/2000/svg" width="32" height="32" viewBox="0 0 32 32"><path d="M18.286 10.286v11.429q0 .464-.339.804t-.804.339q-.357 0-.661-.214l-8-5.714Q8 16.591 8 16.001t.482-.929l8-5.714q.304-.214.661-.214.464 0 .804.339t.339.804zm4.571 14.285V7.428q0-.232-.17-.402t-.402-.17H5.142q-.232 0-.402.17t-.17.402v17.143q0 .232.17.402t.402.17h17.143q.232 0 .402-.17t.17-.402zm4.572-17.142v17.143q0 2.125-1.509 3.634t-3.634 1.509H5.143q-2.125 0-3.634-1.509T0 24.572V7.429q0-2.125 1.509-3.634t3.634-1.509h17.143q2.125 0 3.634 1.509t1.509 3.634z"/></svg>