<svg xmlns="http://www.w3.org/2000/svg" width="32" height="32" viewBox="0 0 32 32"><path d="M19.429 16q0 .589-.482.929l-8 5.714q-.554.411-1.179.089-.625-.304-.625-1.018V10.285q0-.714.625-1.018.625-.321 1.179.089l8 5.714q.482.339.482.929zm3.428 8.571V7.428q0-.25-.161-.411t-.411-.161H5.142q-.25 0-.411.161t-.161.411v17.143q0 .25.161.411t.411.161h17.143q.25 0 .411-.161t.161-.411zm4.572-17.142v17.143q0 2.125-1.509 3.634t-3.634 1.509H5.143q-2.125 0-3.634-1.509T0 24.572V7.429q0-2.125 1.509-3.634t3.634-1.509h17.143q2.125 0 3.634 1.509t1.509 3.634z"/></svg>