<svg xmlns="http://www.w3.org/2000/svg" width="32" height="32" viewBox="0 0 32 32"><path d="M20.446 19.946q-.304.625-1.018.625H7.999q-.714 0-1.018-.625-.321-.625.089-1.179l5.714-8q.339-.482.929-.482t.929.482l5.714 8q.411.554.089 1.179zm2.411 4.625V7.428q0-.232-.17-.402t-.402-.17H5.142q-.232 0-.402.17t-.17.402v17.143q0 .232.17.402t.402.17h17.143q.232 0 .402-.17t.17-.402zm4.572-17.142v17.143q0 2.125-1.509 3.634t-3.634 1.509H5.143q-2.125 0-3.634-1.509T0 24.572V7.429q0-2.125 1.509-3.634t3.634-1.509h17.143q2.125 0 3.634 1.509t1.509 3.634z"/></svg>