<svg xmlns="http://www.w3.org/2000/svg" width="35" height="32" viewBox="0 0 35 32"><path d="M15.304 9.714v2.089q0 .232-.17.393t-.402.161H9.411v14.5q0 .232-.161.402t-.393.17H6.446q-.232 0-.402-.161t-.17-.411v-14.5H.57q-.232 0-.402-.161t-.17-.393V9.714q0-.25.161-.411t.411-.161h14.161q.232 0 .402.17t.17.402zm18.535-.053l1.375 17.161q.018.232-.143.429-.179.179-.411.179h-2.393q-.214 0-.375-.152t-.179-.366l-.821-10.5-3.375 7.589q-.143.339-.518.339h-2.143q-.357 0-.518-.339l-3.357-7.625-.804 10.536q-.018.214-.179.366t-.375.152h-2.411q-.232 0-.411-.179-.161-.179-.161-.429l1.393-17.161q.018-.214.179-.366t.375-.152h2.536q.357 0 .518.339l3.929 9.286q.179.429.357.911.054-.125.17-.438t.188-.473l3.946-9.286q.161-.339.518-.339h2.518q.232 0 .393.152t.179.366z"/></svg>