<svg xmlns="http://www.w3.org/2000/svg" width="32" height="32" viewBox="0 0 32 32"><path d="M18.286.571q0-.25.161-.411t.411-.161h5.143q.464 0 .804.339t.339.804v5.143q0 .25-.161.411t-.411.161h-1.143q-.25 0-.411-.161t-.161-.411V3.892l-4.536 4.554q2.25 2.821 2.25 6.411 0 3.946-2.634 6.866t-6.509 3.348v2.357h1.714q.25 0 .411.161t.161.411v1.143q0 .25-.161.411t-.411.161h-1.714v1.714q0 .25-.161.411t-.411.161H9.713q-.25 0-.411-.161t-.161-.411v-1.714H7.427q-.25 0-.411-.161t-.161-.411V28q0-.25.161-.411t.411-.161h1.714v-2.357q-2.661-.286-4.83-1.839t-3.33-3.991-.946-5.205q.286-3.643 2.857-6.313t6.196-3.08q2.107-.25 4.071.339t3.536 1.839l4.554-4.536h-2.393q-.25 0-.411-.161t-.161-.411V.57zm-8 22.286q3.304 0 5.652-2.348t2.348-5.652-2.348-5.652-5.652-2.348-5.652 2.348-2.348 5.652 2.348 5.652 5.652 2.348z"/></svg>