<svg xmlns="http://www.w3.org/2000/svg" width="25" height="32" viewBox="0 0 25 32"><path d="M9.143 24.571V12q0-.25-.161-.411t-.411-.161H7.428q-.25 0-.411.161T6.856 12v12.571q0 .25.161.411t.411.161h1.143q.25 0 .411-.161t.161-.411zm4.571 0V12q0-.25-.161-.411t-.411-.161h-1.143q-.25 0-.411.161t-.161.411v12.571q0 .25.161.411t.411.161h1.143q.25 0 .411-.161t.161-.411zm4.572 0V12q0-.25-.161-.411t-.411-.161h-1.143q-.25 0-.411.161t-.161.411v12.571q0 .25.161.411t.411.161h1.143q.25 0 .411-.161t.161-.411zM8.571 6.857h8l-.857-2.089q-.125-.161-.304-.196H9.749q-.179.036-.304.196zm16.572.572v1.143q0 .25-.161.411t-.411.161h-1.714v16.929q0 1.482-.839 2.563T20 29.716H5.143q-1.179 0-2.018-1.045t-.839-2.527v-17H.572q-.25 0-.411-.161T0 8.572V7.429q0-.25.161-.411t.411-.161H6.09l1.25-2.982q.268-.661.964-1.125t1.411-.464h5.714q.714 0 1.411.464t.964 1.125l1.25 2.982h5.518q.25 0 .411.161t.161.411z"/></svg>