<svg xmlns="http://www.w3.org/2000/svg" width="32" height="32" viewBox="0 0 32 32"><path d="M26.857 26.286q0 .464-.339.804t-.804.339h-8.25q.018.304.107 1.563t.089 1.938q0 .446-.321.759t-.768.313h-5.714q-.446 0-.768-.313t-.321-.759q0-.679.089-1.938t.107-1.563h-8.25q-.464 0-.804-.339t-.339-.804.339-.804l7.179-7.196H4q-.464 0-.804-.339t-.339-.804.339-.804l7.179-7.196H6.857q-.464 0-.804-.339T5.714 8t.339-.804L12.91.339Q13.249 0 13.714 0t.804.339l6.857 6.857q.339.339.339.804t-.339.804-.804.339h-3.518l7.179 7.196q.339.339.339.804t-.339.804-.804.339h-4.089l7.179 7.196q.339.339.339.804z"/></svg>