<svg xmlns="http://www.w3.org/2000/svg" width="41" height="32" viewBox="0 0 41 32"><path d="M11.625 17.804q0 .696-.491 1.188t-1.17.491q-.696 0-1.188-.491t-.491-1.188q0-.679.491-1.17t1.188-.491q.679 0 1.17.491t.491 1.17zm20.607-.018q0 .696-.491 1.188t-1.188.491-1.188-.491-.491-1.188.491-1.179 1.188-.482 1.188.482.491 1.179zm-18.571.018q0-1.411-1.009-2.429t-2.438-1.018-2.438 1.009-1.009 2.438 1.009 2.438 2.438 1.009 2.438-1.009 1.009-2.438zm20.589-.018q0-1.429-1.009-2.438t-2.438-1.009q-1.411 0-2.429 1.009t-1.018 2.438 1.009 2.438 2.438 1.009 2.438-1.009 1.009-2.438zm-19.071.018q0 2.071-1.455 3.527t-3.509 1.455q-2.071 0-3.527-1.464t-1.455-3.518 1.464-3.509 3.518-1.455 3.509 1.455 1.455 3.509zm20.607-.018q0 2.054-1.455 3.509t-3.527 1.455q-2.054 0-3.509-1.455t-1.455-3.509 1.455-3.509 3.509-1.455q2.071 0 3.527 1.455t1.455 3.509zm-17.215.053q0-3.411-2.42-5.83t-5.83-2.42q-2.232 0-4.125 1.107t-3 3.009-1.107 4.134 1.107 4.134 3 3.009 4.125 1.107q3.411 0 5.83-2.42t2.42-5.83zM30.5 7.607q-4.536-1.982-9.929-1.982-5.696 0-10.232 1.964 2.089 0 3.982.812t3.259 2.188 2.179 3.268.813 3.982q0-2.054.777-3.92t2.107-3.223 3.17-2.196 3.875-.893zm8.554 10.232q0-3.411-2.411-5.83t-5.821-2.42-5.83 2.42-2.42 5.83 2.42 5.83 5.83 2.42 5.821-2.42 2.411-5.83zm-4.75-10.107h6.839q-.786.911-1.339 2.045t-.714 2.045q1.964 2.696 1.964 6.018 0 2.786-1.375 5.143t-3.732 3.723-5.125 1.366q-2.375 0-4.446-1t-3.5-2.768q-.839 1-2.304 3.196-.196-.393-.955-1.473t-1.33-1.741q-1.429 1.768-3.509 2.777t-4.455 1.009q-2.768 0-5.125-1.366t-3.732-3.723T.091 17.84q0-3.321 1.964-6.018-.161-.911-.714-2.045T.002 7.732H6.52q2.661-1.786 6.339-2.795t7.714-1.009q4 0 7.518 1t6.214 2.804z"/></svg>