<svg xmlns="http://www.w3.org/2000/svg" width="32" height="32" viewBox="0 0 32 32"><path d="M11.429 25.143q0-.929-.679-1.607t-1.607-.679-1.607.679-.679 1.607.679 1.607 1.607.679 1.607-.679.679-1.607zM4.571 16h6.857v-4.571H8.607q-.232 0-.393.161l-3.482 3.482q-.161.161-.161.393v.536zm22.858 9.143q0-.929-.679-1.607t-1.607-.679-1.607.679-.679 1.607.679 1.607 1.607.679 1.607-.679.679-1.607zM32 5.714V24q0 .268-.071.473t-.241.33-.295.205-.42.107-.402.036-.455 0-.402-.009q0 1.893-1.339 3.232t-3.232 1.339-3.232-1.339-1.339-3.232h-6.857q0 1.893-1.339 3.232t-3.232 1.339-3.232-1.339-1.339-3.232H3.43q-.054 0-.402.009t-.455 0-.402-.036-.42-.107-.295-.205-.241-.33T1.144 24q0-.464.339-.804t.804-.339v-5.714q0-.143-.009-.625t0-.679.045-.616.116-.661.25-.545.402-.536l3.536-3.536q.339-.339.902-.571t1.045-.232h2.857V5.713q0-.464.339-.804t.804-.339H30.86q.464 0 .804.339t.339.804z"/></svg>