<svg xmlns="http://www.w3.org/2000/svg" width="16" height="32" viewBox="0 0 16 32"><path d="M16.036 8.393v1.821q0 .25-.161.411t-.411.161h-3q-.411 2.571-2.304 4.179t-4.929 1.964q2.982 3.179 8.196 9.571.25.286.071.607-.143.321-.518.321H9.498q-.286 0-.446-.214Q3.588 20.66.159 17.018q-.161-.161-.161-.393v-2.268q0-.232.17-.402t.402-.17h2q2.357 0 3.795-.768t1.83-2.232H.57q-.25 0-.411-.161t-.161-.411V8.392q0-.25.161-.411T.57 7.82h7.375Q6.927 5.802 3.159 5.802H.57q-.232 0-.402-.17t-.17-.402V2.855q0-.25.161-.411t.411-.161h14.857q.25 0 .411.161t.161.411v1.821q0 .25-.161.411t-.411.161h-4.161q.839 1.089 1.143 2.571h3.054q.25 0 .411.161t.161.411z"/></svg>