<svg xmlns="http://www.w3.org/2000/svg" width="32" height="32" viewBox="0 0 32 32"><path d="M8 23.429v3.429q0 .25-.161.411t-.411.161H3.999q-.25 0-.411-.161t-.161-.411v-3.429q0-.25.161-.411t.411-.161h3.429q.25 0 .411.161t.161.411zm-3.429-6.858V20q0 .25-.161.411t-.411.161H.57q-.25 0-.411-.161T-.002 20v-3.429q0-.25.161-.411t.411-.161h3.429q.25 0 .411.161t.161.411zm10.286 6.858v3.429q0 .25-.161.411t-.411.161h-3.429q-.25 0-.411-.161t-.161-.411v-3.429q0-.25.161-.411t.411-.161h3.429q.25 0 .411.161t.161.411zm-3.428-6.858V20q0 .25-.161.411t-.411.161H7.428q-.25 0-.411-.161T6.856 20v-3.429q0-.25.161-.411t.411-.161h3.429q.25 0 .411.161t.161.411zm-10.25-2.857q-.5 0-.839-.339t-.339-.821V10.25H9.18v2.304q0 .482-.339.821t-.821.339H1.181zm20.535 9.715v3.429q0 .25-.161.411t-.411.161h-3.429q-.25 0-.411-.161t-.161-.411v-3.429q0-.25.161-.411t.411-.161h3.429q.25 0 .411.161t.161.411zm-3.428-6.858V20q0 .25-.161.411t-.411.161h-3.429q-.25 0-.411-.161T13.713 20v-3.429q0-.25.161-.411t.411-.161h3.429q.25 0 .411.161t.161.411zm10.285 6.858v3.429q0 .25-.161.411t-.411.161H24.57q-.25 0-.411-.161t-.161-.411v-3.429q0-.25.161-.411t.411-.161h3.429q.25 0 .411.161t.161.411zm-3.428-6.858V20q0 .25-.161.411t-.411.161h-3.429q-.25 0-.411-.161T20.57 20v-3.429q0-.25.161-.411t.411-.161h3.429q.25 0 .411.161t.161.411zM32 9.286v.232h-9.179v-.179q0-1.857-6.821-1.821-6.821.018-6.821 1.821v.179H0v-.232q0-.304.152-.768t.607-1.143 1.17-1.348T3.902 4.67t2.857-1.205 4-.848T16 2.287t5.232.33 4 .848 2.866 1.205 1.973 1.357 1.17 1.348.607 1.143.152.768zm0 7.285V20q0 .25-.161.411t-.411.161h-3.429q-.25 0-.411-.161T27.427 20v-3.429q0-.25.161-.411t.411-.161h3.429q.25 0 .411.161t.161.411zm0-6.321v2.304q0 .482-.339.821t-.821.339h-6.857q-.482 0-.821-.339t-.339-.821V10.25h9.179z"/></svg>