<svg xmlns="http://www.w3.org/2000/svg" width="37" height="32" viewBox="0 0 37 32"><path d="M32 22.286V5.143q0-.232-.17-.402t-.402-.17H2.857q-.232 0-.402.17t-.17.402v17.143q0 .232.17.402t.402.17h28.571q.232 0 .402-.17t.17-.402zm2.286-17.143v17.143q0 1.179-.839 2.018t-2.018.839H18.286v2.286h6.286q.25 0 .411.161t.161.411v1.143q0 .25-.161.411t-.411.161H9.715q-.25 0-.411-.161t-.161-.411v-1.143q0-.25.161-.411t.411-.161h6.286v-2.286H2.858q-1.179 0-2.018-.839t-.839-2.018V5.143q0-1.179.839-2.018t2.018-.839h28.571q1.179 0 2.018.839t.839 2.018z"/></svg>