<svg xmlns="http://www.w3.org/2000/svg" width="32" height="32" viewBox="0 0 32 32"><path d="M.857 3.982q-.661-.036-.804-.071L-.001 2.34q.232-.018.714-.018 1.071 0 2 .071 2.357.125 2.964.125 1.536 0 3-.054l2.607-.089q1 0 1.536-.036l-.018.25.036 1.143v.161q-1.071.161-2.214.161-1.071 0-1.411.446-.232.25-.232 2.357 0 .232.009.58t.009.455l.018 4.089.25 5q.107 2.214.911 3.607.625 1.054 1.714 1.643 1.571.839 3.161.839 1.857 0 3.411-.5 1-.321 1.768-.911.857-.643 1.161-1.143.643-1 .946-2.036.375-1.304.375-4.089 0-1.411-.063-2.286t-.196-2.188-.241-2.848l-.071-1.054q-.089-1.196-.429-1.571-.607-.625-1.375-.607l-1.786.036-.25-.054.036-1.536h1.5l3.661.179q1.357.054 3.5-.179l.321.036q.107.679.107.911 0 .125-.071.554-.804.214-1.5.232-1.304.196-1.411.304-.268.268-.268.732 0 .125.027.482t.027.554q.143.339.393 7.071.107 3.482-.268 5.429-.268 1.357-.732 2.179-.679 1.161-2 2.196-1.339 1.018-3.25 1.589-1.946.589-4.554.589-2.982 0-5.071-.821-2.125-.839-3.196-2.179-1.089-1.357-1.482-3.482-.286-1.429-.286-4.232V8.481q0-3.357-.304-3.804-.446-.643-2.625-.696zm26.572 25.161V28q0-.25-.161-.411t-.411-.161H.571q-.25 0-.411.161T-.001 28v1.143q0 .25.161.411t.411.161h26.286q.25 0 .411-.161t.161-.411z"/></svg>