<svg xmlns="http://www.w3.org/2000/svg" width="30" height="32" viewBox="0 0 30 32"><path d="M7.839 22.696l-4.571 4.571q-.179.161-.411.161-.214 0-.411-.161-.161-.179-.161-.411t.161-.411l4.571-4.571q.179-.161.411-.161t.411.161q.161.179.161.411t-.161.411zm3.018.733v5.714q0 .25-.161.411t-.411.161-.411-.161-.161-.411v-5.714q0-.25.161-.411t.411-.161.411.161.161.411zm-4-4q0 .25-.161.411t-.411.161H.571q-.25 0-.411-.161t-.161-.411.161-.411.411-.161h5.714q.25 0 .411.161t.161.411zm22.572 2.285q0 2.143-1.518 3.625l-2.625 2.607q-1.482 1.482-3.625 1.482-2.161 0-3.643-1.518l-5.964-5.982q-.375-.375-.75-1l4.268-.321 4.875 4.893q.482.482 1.214.491t1.214-.473l2.625-2.607q.5-.5.5-1.196 0-.714-.5-1.214l-4.893-4.911.321-4.268q.625.375 1 .75l6 6q1.5 1.536 1.5 3.643zM18.411 8.786l-4.268.321-4.875-4.893q-.5-.5-1.214-.5-.696 0-1.214.482L4.215 6.803q-.5.5-.5 1.196 0 .714.5 1.214l4.893 4.893-.321 4.286q-.625-.375-1-.75l-6-6q-1.5-1.536-1.5-3.643 0-2.143 1.518-3.625L4.43 1.767Q5.912.285 8.055.285q2.161 0 3.643 1.518l5.964 5.982q.375.375.75 1zm11.303 1.5q0 .25-.161.411t-.411.161h-5.714q-.25 0-.411-.161t-.161-.411.161-.411.411-.161h5.714q.25 0 .411.161t.161.411zM20 .571v5.714q0 .25-.161.411t-.411.161-.411-.161-.161-.411V.571q0-.25.161-.411t.411-.161.411.161.161.411zm7.268 2.697l-4.571 4.571Q22.501 8 22.286 8t-.411-.161q-.161-.179-.161-.411t.161-.411l4.571-4.571q.179-.161.411-.161t.411.161q.161.179.161.411t-.161.411z"/></svg>