<svg xmlns="http://www.w3.org/2000/svg" width="41" height="32" viewBox="0 0 41 32"><path d="M40.857 14.375q.286.143.286.482t-.286.482l-5.714 3.429q-.143.089-.286.089-.161 0-.286-.071-.286-.179-.286-.5V16H18.964q.661 1.036 1.482 2.946.286.661.438.982t.429.875.482.839.482.607.563.464.589.143h1.714v-1.714q0-.25.161-.411t.411-.161h5.714q.25 0 .411.161t.161.411v5.714q0 .25-.161.411t-.411.161h-5.714q-.25 0-.411-.161t-.161-.411v-1.714h-1.714q-.571 0-1.089-.179t-.911-.42-.804-.723-.661-.821-.598-1.018-.509-1.027-.5-1.08q-.411-.946-.661-1.455t-.643-1.161-.795-.955-.83-.304H8.999q-.393 1.5-1.625 2.464t-2.804.964q-1.893 0-3.232-1.339t-1.339-3.232 1.339-3.232 3.232-1.339q1.571 0 2.804.964t1.625 2.464h1.857q.429 0 .83-.304t.795-.955.643-1.161.661-1.455l.5-1.08q.161-.348.509-1.027t.598-1.018.661-.821.804-.723.911-.42 1.089-.179h1.911q.375-1.018 1.25-1.652T24 2.284q1.429 0 2.429 1t1 2.429-1 2.429-2.429 1q-1.107 0-1.982-.634t-1.25-1.652h-1.911q-.304 0-.589.143t-.563.464-.482.607-.482.839-.429.875-.438.982q-.821 1.911-1.482 2.946h19.893v-2.286q0-.321.286-.5t.571.018z"/></svg>