<svg xmlns="http://www.w3.org/2000/svg" width="18" height="32" viewBox="0 0 18 32"><path d="M17.464 21.161q0 2.732-1.777 4.705t-4.616 2.438v3.125q0 .25-.161.411t-.411.161H8.088q-.232 0-.402-.17t-.17-.402v-3.125q-1.179-.161-2.277-.554t-1.813-.795-1.321-.857-.83-.67-.313-.321q-.304-.375-.036-.732l1.839-2.411q.125-.179.411-.214.268-.036.429.161l.036.036q2.018 1.768 4.339 2.232.661.143 1.321.143 1.446 0 2.545-.768t1.098-2.179q0-.5-.268-.946t-.598-.75-1.045-.67-1.179-.571-1.429-.58q-.696-.286-1.098-.446t-1.098-.473-1.116-.554-1.009-.634-.955-.759-.777-.875-.634-1.036-.375-1.188-.152-1.393q0-2.464 1.75-4.321t4.554-2.393V.572q0-.232.17-.402T8.087 0h2.411q.25 0 .411.161t.161.411v3.143q1.018.107 1.973.411t1.554.598 1.134.67.696.518.268.25q.304.321.089.679l-1.446 2.607q-.143.268-.411.286-.25.054-.482-.125-.054-.054-.259-.214t-.696-.473-1.045-.571-1.33-.464-1.527-.205q-1.696 0-2.768.768t-1.071 1.982q0 .464.152.857t.527.741.705.589 1 .554 1.08.482 1.25.491q.946.357 1.446.563t1.357.625 1.348.759 1.107.893.946 1.134.563 1.366.232 1.679z"/></svg>