<svg xmlns="http://www.w3.org/2000/svg" width="37" height="32" viewBox="0 0 37 32"><path d="M12.571 16q-2.839 0-4.848-2.009T5.714 9.143t2.009-4.848 4.848-2.009 4.848 2.009 2.009 4.848-2.009 4.848T12.571 16zm19.233 5.714l4.446 4.446q.161.161.161.411 0 .232-.161.393l-2.429 2.429q-.161.161-.393.161-.25 0-.411-.161l-4.446-4.446-4.446 4.446q-.161.161-.411.161-.232 0-.393-.161l-2.429-2.429q-.161-.161-.161-.393 0-.25.161-.411l4.446-4.446-4.446-4.446q-.161-.161-.161-.411 0-.232.161-.393l2.429-2.429q.161-.161.393-.161.25 0 .411.161l4.446 4.446 4.446-4.446q.161-.161.411-.161.232 0 .393.161l2.429 2.429q.161.161.161.393 0 .25-.161.411zm-8.893 0l-3.232 3.232q-.661.661-.661 1.625 0 .946.661 1.607l1.482 1.482q-.375.054-.786.054H4.768q-2.161 0-3.464-1.232T0 25.089q0-.946.063-1.848t.25-1.946.473-1.938.768-1.741 1.107-1.446 1.527-.955 1.991-.357q.339 0 .696.304 2.75 2.179 5.696 2.179t5.696-2.179q.357-.304.696-.304.5 0 1.018.107-.5.482-.732.893t-.232 1q0 .964.661 1.625z"/></svg>