<svg xmlns="http://www.w3.org/2000/svg" width="37" height="32" viewBox="0 0 37 32"><path d="M12.571 16q-2.839 0-4.848-2.009T5.714 9.143t2.009-4.848 4.848-2.009 4.848 2.009 2.009 4.848-2.009 4.848T12.571 16zm17.143 2.286H36q.232 0 .402.17t.17.402v3.429q0 .232-.17.402t-.402.17h-6.286v6.286q0 .232-.17.402t-.402.17h-3.429q-.232 0-.402-.17t-.17-.402v-6.286h-6.286q-.232 0-.402-.17t-.17-.402v-3.429q0-.232.17-.402t.402-.17h6.286V12q0-.232.17-.402t.402-.17h3.429q.232 0 .402.17t.17.402v6.286zm-13.143 4q0 .929.679 1.607t1.607.679h4.571v4.25q-1.214.893-3.054.893H4.767q-2.161 0-3.464-1.232T-.001 25.09q0-.946.063-1.848t.25-1.946.473-1.938.768-1.741 1.107-1.446 1.527-.955 1.991-.357q.339 0 .696.304 1.411 1.089 2.759 1.634t2.938.545 2.938-.545 2.759-1.634q.357-.304.696-.304 2.357 0 3.875 1.714h-3.982q-.929 0-1.607.679t-.679 1.607v3.429z"/></svg>