<svg xmlns="http://www.w3.org/2000/svg" width="32" height="32" viewBox="0 0 32 32"><path d="M10.286 27.429l1.714-8-1.714-2.286L8 16zm4.571 0L17.143 16l-2.286 1.143-1.714 2.286zm2.857-18.036q-.036-.071-.071-.107-.179-.143-1.714-.143-1.25 0-2.982.339-.125.036-.375.036t-.375-.036q-1.732-.339-2.982-.339-1.536 0-1.714.143-.036.036-.071.107.036.321.071.482.036.054.134.116t.134.188q.036.071.134.366t.125.366.134.304.152.304.161.25.214.241.25.17.313.143.366.071.438.036q.643 0 1.054-.223t.58-.536.259-.616.205-.527.313-.223h.214q.196 0 .313.223t.205.527.259.616.58.536 1.054.223q.232 0 .438-.036t.366-.071.312-.143.25-.17.214-.241.161-.25.152-.304.134-.304.125-.366.134-.366q.036-.125.134-.188t.134-.116q.036-.161.071-.482zm7.429 15.696q0 2.161-1.304 3.393t-3.464 1.232H4.768q-2.161 0-3.464-1.232T0 25.089Q0 24 .08 22.982t.339-2.241.67-2.205 1.134-1.848 1.67-1.33l-1.607-3.929h3.821q-.393-1.143-.393-2.286 0-.214.036-.571-3.464-.714-3.464-1.714 0-1.018 3.75-1.768.304-1.107.92-2.393T8.215.661Q8.786 0 9.572 0q.536 0 1.5.554t1.5.554 1.5-.554 1.5-.554q.786 0 1.357.661.643.75 1.259 2.036t.92 2.393q3.75.75 3.75 1.768 0 1-3.464 1.714.125 1.446-.357 2.857h3.821l-1.464 4.018q1.125.589 1.92 1.723t1.17 2.563.518 2.705.143 2.652z"/></svg>