<svg xmlns="http://www.w3.org/2000/svg" width="25" height="32" viewBox="0 0 25 32"><path d="M6.857 24q0 .464-.339.804t-.804.339-.804-.339T4.571 24t.339-.804.804-.339.804.339.339.804zm18.286 1.089q0 2.161-1.304 3.393t-3.464 1.232H4.768q-2.161 0-3.464-1.232T0 25.089q0-1.214.098-2.339t.429-2.464.848-2.366 1.446-1.839 2.143-1.08q-.393.929-.393 2.143v3.625q-1.036.357-1.661 1.25t-.625 1.982q0 1.429 1 2.429t2.429 1 2.429-1 1-2.429q0-1.089-.634-1.982t-1.652-1.25v-3.625q0-1.107.446-1.661 2.357 1.857 5.268 1.857t5.268-1.857q.446.554.446 1.661v1.143q-1.893 0-3.232 1.339t-1.339 3.232v1.589q-.571.518-.571 1.268 0 .714.5 1.214t1.214.5 1.214-.5.5-1.214q0-.75-.571-1.268v-1.589q0-.929.679-1.607t1.607-.679 1.607.679.679 1.607v1.589q-.571.518-.571 1.268 0 .714.5 1.214t1.214.5 1.214-.5.5-1.214q0-.75-.571-1.268v-1.589q0-1.214-.616-2.277t-1.67-1.67q0-.179.009-.759t0-.857-.045-.741-.125-.839-.232-.714q1.214.268 2.143 1.08t1.446 1.839.848 2.366.429 2.464.098 2.339zM19.429 9.143q0 2.839-2.009 4.848T12.572 16t-4.848-2.009-2.009-4.848 2.009-4.848 4.848-2.009 4.848 2.009 2.009 4.848z"/></svg>