<svg xmlns="http://www.w3.org/2000/svg" width="23" height="32" viewBox="0 0 23 32"><path d="M20.571 10.286q0 3.946-2.634 6.866T11.428 20.5v4.643h4q.25 0 .411.161t.161.411v1.143q0 .25-.161.411t-.411.161h-4v4q0 .25-.161.411t-.411.161H9.713q-.25 0-.411-.161t-.161-.411v-4h-4q-.25 0-.411-.161t-.161-.411v-1.143q0-.25.161-.411t.411-.161h4V20.5q-2.679-.286-4.848-1.839t-3.321-4-.938-5.214Q.23 7.054 1.472 5.001t3.25-3.357T9.106.073q3.036-.339 5.696.964t4.214 3.786 1.554 5.464zm-18.285 0q0 3.304 2.348 5.652t5.652 2.348 5.652-2.348 2.348-5.652-2.348-5.652-5.652-2.348-5.652 2.348-2.348 5.652z"/></svg>