<svg xmlns="http://www.w3.org/2000/svg" width="32" height="32" viewBox="0 0 32 32"><path d="M23.071 11.393q.179-3.857-2.875-3.964-4.125-.143-5.571 4.661.786-.339 1.464-.339 1.518 0 1.321 1.714-.071 1.018-1.321 2.982t-1.875 1.964q-.768 0-1.464-3.018-.232-.964-.804-4.554-.536-3.375-2.857-3.161-1.054.125-2.929 1.786l-2.893 2.571.929 1.196q1.357-.929 1.554-.929 1.018 0 1.911 3.196l.804 2.938.804 2.938q1.214 3.196 2.929 3.196 2.804 0 6.839-5.25 3.929-5.054 4.036-7.929zm4.358-3.964v17.143q0 2.125-1.509 3.634t-3.634 1.509H5.143q-2.125 0-3.634-1.509T0 24.572V7.429q0-2.125 1.509-3.634t3.634-1.509h17.143q2.125 0 3.634 1.509t1.509 3.634z"/></svg>