<svg xmlns="http://www.w3.org/2000/svg" width="21" height="32" viewBox="0 0 21 32"><path d="M13.714 6.286v19.429q0 .464-.339.804t-.804.339-.804-.339l-5.946-5.946H1.142q-.464 0-.804-.339t-.339-.804v-6.857q0-.464.339-.804t.804-.339h4.679l5.946-5.946q.339-.339.804-.339t.804.339.339.804zM20.571 16q0 1.357-.759 2.527t-2.009 1.67q-.179.089-.446.089-.464 0-.804-.33t-.339-.813q0-.375.214-.634t.518-.446.607-.411.518-.634.214-1.018-.214-1.018-.518-.634-.607-.411-.518-.446-.214-.634q0-.482.339-.813t.804-.33q.268 0 .446.089 1.25.482 2.009 1.661T20.571 16z"/></svg>