<svg xmlns="http://www.w3.org/2000/svg" width="32" height="32" viewBox="0 0 32 32"><path d="M17.589 17.393q.232 0 1.741.786t1.598.946q.036.089.036.268 0 .589-.304 1.357-.286.696-1.268 1.17t-1.821.473q-1.018 0-3.393-1.107-1.75-.804-3.036-2.107t-2.643-3.304q-1.286-1.911-1.268-3.464v-.143q.054-1.625 1.321-2.821.429-.393.929-.393.107 0 .321.027t.339.027q.339 0 .473.116t.277.491q.143.357.589 1.571t.446 1.339q0 .375-.616 1.027t-.616.83q0 .125.089.268.607 1.304 1.821 2.446 1 .946 2.696 1.804.214.125.393.125.268 0 .964-.866t.929-.866zm-3.625 9.464q2.268 0 4.348-.893t3.58-2.393 2.393-3.58.893-4.348-.893-4.348-2.393-3.58-3.58-2.393-4.348-.893-4.348.893-3.58 2.393-2.393 3.58-.893 4.348q0 3.625 2.143 6.571l-1.411 4.161L7.803 25q2.821 1.857 6.161 1.857zm0-24.678q2.732 0 5.223 1.071t4.295 2.875 2.875 4.295 1.071 5.223-1.071 5.223-2.875 4.295-4.295 2.875-5.223 1.071q-3.482 0-6.518-1.679L0 29.821l2.429-7.232Q.5 19.41.5 15.643q0-2.732 1.071-5.223t2.875-4.295T8.741 3.25t5.223-1.071z"/></svg>