<svg xmlns="http://www.w3.org/2000/svg" width="30" height="32" viewBox="0 0 30 32"><path d="M18.268 21.196l1.821 3.643q-1.036 3.196-3.75 5.179T10.285 32q-2.786 0-5.152-1.384t-3.75-3.75-1.384-5.152q0-3.232 1.866-5.893t4.902-3.768l.304 2.339q-2.179.964-3.482 2.955t-1.304 4.366q0 3.304 2.348 5.652t5.652 2.348q2.25 0 4.152-1.161t2.946-3.134.884-4.223zm9.786 1.786l1.036 2.036-4.571 2.286q-.232.125-.518.125-.714 0-1.018-.625l-4.268-8.518h-8.429q-.429 0-.759-.295t-.384-.723L7.429 3.357q-.036-.286.107-.75.25-.911 1.018-1.473t1.732-.563q1.179 0 2.018.839t.839 2.018q0 1.232-.929 2.098t-2.143.741l.661 5.161h7.554v2.286h-7.268L11.304 16h8.125q.714 0 1.018.625l4.071 8.125z"/></svg>