<svg xmlns="http://www.w3.org/2000/svg" width="37" height="32" viewBox="0 0 37 32"><path d="M18.286 27.196q-.357 0-1.661-1.313t-1.304-1.67q0-.571 1.116-.964t1.848-.393 1.848.393 1.116.964q0 .357-1.304 1.67t-1.661 1.313zm4.821-4.839q-.036 0-.714-.446t-1.813-.893-2.295-.446-2.295.446-1.804.893-.723.446q-.321 0-1.67-1.339t-1.348-1.661q0-.232.179-.411 1.393-1.375 3.5-2.161t4.161-.786 4.161.786 3.5 2.161q.179.179.179.411 0 .321-1.348 1.661t-1.67 1.339zm4.875-4.857q-.196 0-.411-.143-2.429-1.875-4.5-2.759t-4.786-.884q-1.518 0-3.045.393t-2.661.946-2.027 1.107-1.411.946-.554.393q-.304 0-1.643-1.339t-1.339-1.661q0-.214.179-.393 2.357-2.357 5.714-3.661t6.786-1.304 6.786 1.304 5.714 3.661q.179.179.179.393 0 .321-1.339 1.661t-1.643 1.339zm4.839-4.839q-.196 0-.393-.161-3.196-2.804-6.634-4.223t-7.509-1.42-7.509 1.42T4.142 12.5q-.196.161-.393.161-.304 0-1.652-1.339T.749 9.661q0-.232.179-.411 3.339-3.321 7.946-5.143t9.411-1.821 9.411 1.821 7.946 5.143q.179.179.179.411 0 .321-1.348 1.661t-1.652 1.339z"/></svg>