<svg xmlns="http://www.w3.org/2000/svg" width="41" height="32" viewBox="0 0 41 32"><path d="M26.679 29.268l-5.268-12.411q-.446.875-2.83 5.455t-3.545 6.955q-.018.018-.491.009t-.473-.027q-1.464-3.446-4.563-10.482T4.875 8.124q-.375-.893-1.188-1.92T1.839 4.409.018 3.641q0-.089-.009-.429T0 2.73h10.411v.893q-.696.036-1.42.286t-1.188.768-.179 1.143q.464 1.054 3.866 8.911t4.205 9.643q.554-1.089 2.5-4.759t2.339-4.42q-.339-.696-2.25-5.018t-2.429-5.268q-.679-1.232-3.589-1.268v-.893l9.161.018v.839q-1.071.036-1.67.446t-.223 1.232q.589 1.25 1.554 3.384t1.536 3.348q1.964-3.821 3.089-6.482.429-.982-.179-1.42T23.23 3.64q.018-.125.018-.446v-.429q1.143 0 3.045-.009t3.214-.018 1.652-.009v.875q-1.107.036-2.125.589t-1.607 1.446l-3.804 7.893q.232.589 2.277 5.179t2.17 4.893l7.875-18.161q-.25-.679-.884-1.116T33.9 3.764t-.991-.143v-.893l8.214.071.018.036-.018.786q-2.482.071-3.589 2.589-9.393 21.714-9.982 23.054h-.875z"/></svg>