<svg xmlns="http://www.w3.org/2000/svg" width="30" height="32" viewBox="0 0 30 32"><path d="M6.857 26.286q0-.464-.339-.804t-.804-.339-.804.339-.339.804.339.804.804.339.804-.339.339-.804zm11.5-7.5L6.178 30.965q-.661.661-1.607.661-.929 0-1.625-.661l-1.893-1.929q-.679-.643-.679-1.607 0-.946.679-1.625l12.161-12.161q.696 1.75 2.045 3.098t3.098 2.045zm11.322-7.768q0 .696-.411 1.893-.839 2.393-2.938 3.884t-4.616 1.491q-3.304 0-5.652-2.348t-2.348-5.652 2.348-5.652 5.652-2.348q1.036 0 2.17.295t1.92.83q.286.196.286.5t-.286.5l-5.232 3.018v4l3.446 1.911 1.411-.866q1.322-.812 2.42-1.446t1.259-.634q.268 0 .42.179t.152.446z"/></svg>