<svg xmlns="http://www.w3.org/2000/svg" width="18" height="32" viewBox="0 0 18 32"><path d="M10.768 27.429H7.697q-.232 0-.402-.161t-.17-.411v-5.893H1.982q-.232 0-.402-.161t-.17-.411v-1.839q0-.232.17-.402t.402-.17h5.143v-1.518H1.982q-.232 0-.402-.161t-.17-.411v-1.857q0-.232.17-.402t.402-.17h3.821L.071 3.141q-.143-.286 0-.571.179-.286.5-.286h3.464q.339 0 .518.321l3.839 7.589q.339.679 1 2.232.179-.429.545-1.214t.491-1.089l3.411-7.5q.143-.339.518-.339h3.411q.304 0 .482.286.161.25.018.554l-5.589 10.339h3.839q.232 0 .402.17t.17.402v1.857q0 .25-.17.411t-.402.161h-5.179v1.518h5.179q.232 0 .402.17t.17.402v1.839q0 .25-.17.411t-.402.161h-5.179v5.893q0 .232-.17.402t-.402.17z"/></svg>